<?xml version="1.0" standalone="no"?>
<!DOCTYPE svg PUBLIC "-//W3C//DTD SVG 1.1//EN" "http://www.w3.org/Graphics/SVG/1.1/DTD/svg11.dtd" >
<svg>
<metadata>
Created by FontForge 20090914 at Mon Aug  1 19:48:57 2016
 By www-data
Copyright (c) 2013 by Alessio Laiso (alessio.laiso@gmail.com). Licensed under the SIL Open Font License, Version 1.2.2
</metadata>
<defs>
<font id="Aleo-BoldItalic" horiz-adv-x="1685" >
  <font-face 
    font-family="Aleo"
    font-weight="700"
    font-style="italic"
    font-stretch="normal"
    units-per-em="2048"
    panose-1="2 15 8 2 2 2 4 3 2 3"
    ascent="1649"
    descent="-399"
    x-height="1051"
    cap-height="1481"
    bbox="-91.999 -369.002 2316 1919"
    underline-thickness="163"
    underline-position="-41"
    unicode-range="U+000D-U+FB02"
  />
<missing-glyph horiz-adv-x="748" 
d="M68 0v1365h544v-1365h-544zM136 68h408v1229h-408v-1229z" />
    <glyph glyph-name="uniFB01" unicode="fi" horiz-adv-x="1320" 
d="M963 1237c-5.33301 16.667 -7 37.0049 -5 61.0049c0 3.33301 1.66699 11.666 5 24.999c-59.333 16 -122.333 16 -189 0c-45.333 -12.667 -80.666 -29 -105.999 -49c-32.667 -24.667 -56.667 -53.334 -72 -86.001c-16 -34.667 -27 -75 -33 -121l-2 -27h651l-102 -837
c5.33301 -0.666992 15.333 -2.33398 30 -5.00098s25 -4.33398 31 -5.00098c5.33301 -0.666992 11.833 -2 19.5 -4s12.834 -3 15.501 -3c3.33301 0 7 -0.333008 11 -1l6 -1c32.667 -8 47 -29 43 -63l-15 -121h-168h-252l25 203l21 172l12 98l49 389h-391v-2h-2l-23 -184
l-78 -633c-8 -70.667 -25 -132.667 -51 -186c-29.333 -55.333 -64 -98.333 -104 -129c-46.667 -34 -100 -58.667 -160 -74c-60.667 -15.333 -134.334 -23 -221.001 -23v131c0 52 27.333 78 82 78c24 0 48.333 4.33301 73 13c26 9.33301 46.667 20.666 62 33.999
c17.333 15.333 32.333 37.333 45 66c13.333 29.333 21.666 61.333 24.999 96l77 627v4l7 61l14 119h2l-90 14c-20.667 4.66699 -35.667 11.667 -45 21c-10.667 10.667 -15 25 -13 43l13 104h155l4 33c8 63.333 26.667 122.666 56 177.999c30 57.333 67.333 105.333 112 144
c43.333 38 101.666 69.333 174.999 94c68.667 23.333 147.667 35 237 35h37c2 0 4 -0.333008 6 -1s3.33301 -1 4 -1h6c12 -1.33301 23.667 -2 35 -2c24 -2 46 -6.33301 66 -13c68.667 -15.333 128 -42.666 178 -81.999c8 -6 14 -12 18 -18
c12.667 -14.667 21.667 -30.334 27 -47.001c6 -20 8 -41.333 6 -64c-1.33301 -16.667 -8.66602 -37 -21.999 -61c-9.33301 -17.333 -23 -33.666 -41 -48.999s-36.667 -27 -56 -35c-20 -8 -41.667 -12 -65 -12c-22 0 -42 4 -60 12s-33.667 19.667 -47 35
c-12.667 14.667 -22 31 -28 49z" />
    <glyph glyph-name="uniFB02" unicode="fl" horiz-adv-x="1374" 
d="M545 860l-22.9971 -183.997l-78 -633c-8 -70.667 -25 -132.667 -51 -186c-29.333 -55.333 -64 -98.333 -104 -129c-46.667 -34 -100 -58.667 -160 -74c-60.667 -15.333 -134.334 -23 -221.001 -23v131c0 52 27.333 78 82 78c24 0 48.333 4.33301 73 13
c26 9.33301 46.667 20.666 62 33.999c17.333 15.333 32.333 37.333 45 66c13.333 29.333 21.666 61.333 24.999 96l77 627v4l7 61l14 119v0l-88 14c-20.667 4.66699 -35.667 11.667 -45 21c-10.667 10.667 -15 25 -13 43l13 104h155l7 43c6 56.667 21.667 110.667 47 162
c22 48.667 54 93 96 133c43.333 41.333 92.333 73 147 95c54.667 24 122.334 36 203.001 36c62 0 120.667 -2 176 -6c54.667 -4 110 -6 166 -6h141l-145 -1182c-2 -24.667 -2 -47 0 -67c2 -18.667 7.33301 -34.334 16 -47.001c10 -10 23.667 -18.333 41 -25
c16 -4 36.667 -6 62 -6c26 0 43 -2 51 -6s12 -13 12 -27l-8 -135c-37.333 -10 -58.333 -15.333 -63 -16c-26.667 -2.66699 -49.334 -4 -68.001 -4c-61.333 0 -112.666 8 -153.999 24c-40 17.333 -71.333 41.333 -94 72c-22 29.333 -37 64.666 -45 105.999
c-6.66699 46 -7.33398 89 -2.00098 129l125 1010h-195c-76.667 0 -137.334 -20.333 -182.001 -61c-46 -44 -74 -104.333 -84 -181l-4 -43h250l-23 -180h-243z" />
    <glyph glyph-name=".notdef" horiz-adv-x="748" 
d="M68 0v1365h544v-1365h-544zM136 68h408v1229h-408v-1229z" />
    <glyph glyph-name="glyph3" horiz-adv-x="180" 
 />
    <glyph glyph-name="glyph3" horiz-adv-x="180" 
 />
    <glyph glyph-name="uni000D" unicode="&#xd;" horiz-adv-x="180" 
 />
    <glyph glyph-name="space" unicode=" " horiz-adv-x="473" 
 />
    <glyph glyph-name="exclam" unicode="!" horiz-adv-x="528" 
d="M487 1481l-72.998 -585.998c-10 -76.667 -20.333 -137.334 -31 -182.001c-20.667 -86.667 -36.334 -150.334 -47.001 -191.001h-172c-2.66699 89.333 -3.33398 153 -2.00098 191c2 67.333 6.66699 128 14 182l72 586h239zM45.002 139.002
c2.66699 24 8.66699 44.668 18 62.001c10.667 19.333 23.667 35.666 39 48.999c16 14 34 25 54 33s41 12 63 12s42 -4 60 -12s33 -19 45 -33c10.667 -12 19.334 -28.333 26.001 -49c5.33301 -16 6.66602 -36.667 3.99902 -62c-2 -20 -8.66699 -40.333 -20 -61
c-8 -14.667 -20.333 -30.334 -37 -47.001c-13.333 -13.333 -31 -24.333 -53 -33c-20 -8 -41.333 -12 -64 -12c-21.333 0 -41 4 -59 12s-33 19 -45 33c-12.667 14.667 -21.667 30.334 -27 47.001c-4.66699 14.667 -6 35 -4 61z" />
    <glyph glyph-name="quotedbl" unicode="&#x22;" horiz-adv-x="739" 
d="M313 1481l-34 -295.001l-46 -160c-8 -31.333 -18.667 -54.666 -32 -69.999c-12.667 -14.667 -34.667 -22 -66 -22c-26 0 -44.333 7.33301 -55 22c-14 18.667 -21 42 -21 70l-2 160l37 295h219zM690 1481l-35 -295.001l-45 -160c-8 -31.333 -18.667 -54.666 -32 -69.999
c-12.667 -14.667 -34.667 -22 -66 -22c-26 0 -44.333 7.33301 -55 22c-14 18.667 -21 42 -21 70l-2 160l37 295h219z" />
    <glyph glyph-name="numbersign" unicode="#" horiz-adv-x="1277" 
d="M846 418l-130.998 -418.001h-115c-21.333 0 -38.333 8.33301 -51 25c-11.333 15.333 -16 35 -14 59c0 1.33301 0.333008 3 1 5s1 3.66699 1 5c0 4 0.666992 7.33301 2 10l98 314h-209l-100 -326c-10.667 -36 -27 -60 -49 -72c-24 -13.333 -49.333 -20 -76 -20h-113
l129 418h-117c-22 0 -38.333 5.33301 -49 16c-8.66699 8.66699 -12 25.667 -10 51c0 1.33301 0.666992 6.33301 2 15s2.66602 15.334 3.99902 20.001l25 80h194l88 283h-219l33 104c8.66699 28 21.667 48 39 60c18 12 45.333 18 82 18h112l105 330
c8.66699 28.667 23.667 49.667 45 63c25.333 15.333 50 23 74 23h114l-129 -416h209l129 416h113c22.667 0 41 -7 55 -21c13.333 -13.333 19 -30.333 17 -51c0 -8 -0.666992 -13.333 -2 -16l-105 -328h209l-33 -107c-7.33301 -26 -20.333 -45 -39 -57
c-18 -12 -45.333 -18 -82 -18h-102l-88 -283h145c22 0 38.333 -5.33301 49 -16c11.333 -11.333 15 -29.333 11 -54c-2.66699 -13.333 -5.33398 -24 -8.00098 -32l-23 -80h-221zM475.002 599.999h211l86 283h-209z" />
    <glyph glyph-name="dollar" unicode="$" horiz-adv-x="1222" 
d="M418 -8c-81.333 10.667 -153.664 31.668 -216.997 63.001c-66.667 33.333 -121.334 74.333 -164.001 123l92 115c9.33301 12 19.666 20.667 30.999 26c12 6 24.333 9 37 9c14 0 29 -5 45 -15c6 -3.33301 15 -9.66602 27 -18.999l26 -20
c17.333 -12 40.666 -25.667 69.999 -41c30.667 -16 62.667 -26.667 96 -32l94 458c-31.333 9.33301 -77 26 -137 50c-47.333 18.667 -87 42.334 -119 71.001c-33.333 29.333 -59.333 68.333 -78 117c-17.333 45.333 -22 102.666 -14 171.999c6 52 23 103.333 51 154
c28 51.333 63.667 95.666 107 132.999s95.666 68.666 156.999 93.999c64 26 132.333 41 205 45l29 127c5.33301 20.667 13.333 35.667 24 45c16 14 33 21 51 21h93l-41 -203c70 -11.333 130 -32 180 -62c46 -27.333 87.667 -60.666 125 -99.999l-74 -92
c-9.33301 -13.333 -20.333 -23.666 -33 -30.999c-11.333 -6.66699 -22.666 -10 -33.999 -10s-23.666 3.33301 -36.999 10l-45 23c-4.66699 2.66699 -10 5.5 -16 8.5l-21 10.5c-8 4 -14.333 7 -19 9c-23.333 11.333 -46.333 19.666 -69 24.999l-88 -424
c30 -8.66699 76.333 -25.667 139 -51c47.333 -18.667 87.666 -42 120.999 -70c38.667 -32 66 -67.333 82 -106c18.667 -44.667 24 -98.667 16 -162c-8 -64.667 -26.333 -124 -55 -178c-30 -56.667 -67 -106 -111 -148s-98 -76.667 -162 -104
c-58.667 -24.667 -129 -40.334 -211 -47.001l-30 -150c-4.66699 -20 -13 -35 -25 -45c-15.333 -13.333 -32.333 -20 -51 -20h-92zM864.002 424.001c4 25.333 2.66602 48.667 -4.00098 70c-5.33301 17.333 -16.333 34.333 -33 51c-15.333 15.333 -33.666 28.333 -54.999 39
c-28 14 -51.333 24 -70 30l-86 -417c74 10 132.333 34.333 175 73c40 36.667 64.333 88 73 154zM449.001 1094c-3.33301 -21.333 -1.33301 -44 6 -68c6 -18.667 16 -36.334 30 -53.001c12 -14 29.333 -27.667 52 -41c20.667 -12.667 43 -23.667 67 -33l78 379
c-30 -3.33301 -62.667 -11 -98 -23c-26.667 -11.333 -50 -25.666 -70 -42.999c-22 -20 -37 -37.667 -45 -53c-11.333 -23.333 -18 -45 -20 -65z" />
    <glyph glyph-name="percent" unicode="%" horiz-adv-x="1628" 
d="M786 1122c-6 -55.333 -21.6699 -105.664 -47.0029 -150.997c-23.333 -42 -53.333 -80.333 -90 -115c-34.667 -32.667 -74.334 -57.334 -119.001 -74.001c-43.333 -16 -87.666 -24 -132.999 -24c-49.333 0 -93.666 8 -132.999 24c-37.333 15.333 -70 40 -98 74
c-26 32 -45 70.333 -57 115c-11.333 41.333 -13.666 91.666 -6.99902 150.999c6 54.667 21 106.667 45 156s52 89 84 119c33.333 31.333 73 55.666 119 72.999c44.667 16.667 91 25 139 25c48.667 0 93.334 -8.33301 134.001 -25s74 -41 100 -73c26 -31.333 45 -71 57 -119
c10.667 -41.333 12.667 -93.333 6 -156zM589.997 1122c4.66699 44 5.33398 76.999 2.00098 98.999c-4 26 -12.333 47.667 -25 65c-10.667 14.667 -25 26.334 -43 35.001c-13.333 6.66699 -31.666 10 -54.999 10c-24.667 0 -44.334 -3.33301 -59.001 -10
c-21.333 -9.33301 -38 -21 -50 -35c-16 -18.667 -28.667 -40.334 -38 -65.001c-12 -32 -19.667 -65 -23 -99c-4.66699 -44 -5.33398 -76 -2.00098 -96c4 -23.333 11.333 -43.666 22 -60.999c10 -16.667 24.333 -28.334 43 -35.001c14 -5.33301 32.667 -8 56 -8
s43 2.66699 59 8c19.333 6.66699 36.333 18.334 51 35.001c18 20.667 31 41 39 61c12 32.667 19.667 64.667 23 96zM1317 1442c5.33301 5.33301 17.001 14 35.001 26c13.333 8.66699 31 13 53 13h182l-1276 -1444c-10.667 -10.667 -22.334 -19.667 -35.001 -27
c-12 -6.66699 -27.667 -10 -47 -10h-188zM1526 348.001c-6.66699 -58 -21.667 -108.331 -45 -150.998c-23.333 -42 -53.333 -80.333 -90 -115c-34.667 -32.667 -74.334 -57.334 -119.001 -74.001c-46.667 -17.333 -91 -26 -133 -26c-46.667 0 -91 8.66699 -133 26
c-38.667 16 -71.667 40.667 -99 74c-26 32 -45 70.333 -57 115c-11.333 43.333 -14 93.666 -8 150.999c6 54.667 21 106.667 45 156c22.667 46.667 51.334 86.334 86.001 119.001s73.667 57 117 73c44.667 16.667 91 25 139 25s92.333 -8.33301 133 -25s74 -41 100 -73
c26.667 -32.667 46 -72.334 58 -119.001c10.667 -41.333 12.667 -93.333 6 -156zM1331 348.003c4.66699 45.333 5.33301 79 2 101c-4 26 -12 47 -24 63c-10.667 14.667 -25 26.334 -43 35.001c-16 8 -35.333 12 -58 12c-20 0 -39 -4 -57 -12c-22 -10 -39 -21.667 -51 -35
c-16 -18 -28.333 -39 -37 -63c-13.333 -36.667 -21.666 -70.334 -24.999 -101.001c-4 -38 -4 -70 0 -96c3.33301 -22 11 -42.667 23 -62c10 -16 23.667 -27.333 41 -34c19.333 -7.33301 38.333 -11 57 -11c18 0 38 3.66699 60 11c20 6.66699 37 18 51 34
c18.667 21.333 31.667 42 39 62c11.333 30 18.666 62 21.999 96z" />
    <glyph glyph-name="ampersand" unicode="&#x26;" horiz-adv-x="1435" 
d="M793 1497c59.333 0 111.67 -8.99707 157.003 -26.9971c44.667 -18 82.334 -42.333 113.001 -73c27.333 -27.333 49 -63 65 -107s23 -85 21 -123l-166 -32c-0.666992 0 -1.66699 -0.333008 -3 -1s-2.33301 -1 -3 -1h-6c-12 0 -22.333 3.33301 -31 10
c-8 6 -14 16.333 -18 31c-4 18 -9.66699 34.333 -17 49c-8 16 -18.333 30.333 -31 43c-9.33301 9.33301 -24.333 18.666 -45 27.999c-16.667 7.33301 -37 11 -61 11c-26.667 0 -52.667 -5 -78 -15c-20.667 -8 -41.667 -21.667 -63 -41c-20 -17.333 -34.333 -36.333 -43 -57
c-12.667 -28.667 -19.667 -52 -21 -70c-2 -20.667 -2 -40.334 0 -59.001c2.66699 -26.667 6.66699 -45.667 12 -57c9.33301 -21.333 19.666 -41.333 30.999 -60s27.666 -40.334 48.999 -65.001l344 -408c22.667 33.333 46 78.333 70 135c19.333 46 34.333 94.667 45 146
c3.33301 14 10.333 26.333 21 37s23.667 16 39 16h157c-12.667 -93.333 -35.667 -179.333 -69 -258c-32 -74.667 -78 -150.334 -138 -227.001l271 -322h-248c-15.333 0 -26.333 0.666992 -33 2c-14.667 2.66699 -24.334 5.33398 -29.001 8.00098c-4 2 -11.333 7 -22 15
c-6 4.66699 -13.667 12.667 -23 24l-90 105c-70.667 -52 -148.334 -93.667 -233.001 -125c-81.333 -30 -170 -45 -266 -45c-60 0 -114.667 9.33301 -164 28c-51.333 19.333 -97 48 -137 86s-69.667 82.333 -89 133c-18.667 50 -24 109 -16 177
c6 46.667 19 90.334 39 131.001c20.667 42 46 80 76 114c34.667 39.333 70 71.666 106 96.999c42.667 30 85.667 54.333 129 73c-30.667 50 -51 100 -61 150c-10 48.667 -12 97 -6 145c6.66699 56.667 21.667 106 45 148c22 42 54.667 81.333 98 118c42 36 89 63.333 141 82
c56.667 20.667 117 31 181 31zM303.004 428.003c-4 -37.333 -1.33398 -70.667 7.99902 -100c11.333 -34.667 25.666 -60.667 42.999 -78c18.667 -18.667 43.334 -34.334 74.001 -47.001c27.333 -11.333 58 -17 92 -17c61.333 0 117.333 9 168 27
c47.333 16.667 96 43.334 146 80.001l-340 399c-59.333 -35.333 -104.666 -75.666 -135.999 -120.999c-30.667 -44.667 -49 -92.334 -55 -143.001z" />
    <glyph glyph-name="quotesingle" unicode="'" horiz-adv-x="362" 
d="M313 1481l-34 -295.001l-46 -160c-8 -31.333 -18.667 -54.666 -32 -69.999c-12.667 -14.667 -34.667 -22 -66 -22c-26 0 -44.333 7.33301 -55 22c-14 18.667 -21 42 -21 70l-2 160l37 295h219z" />
    <glyph glyph-name="parenleft" unicode="(" horiz-adv-x="624" 
d="M274 643c-17.333 -150 -17.3369 -288.664 -0.00390625 -415.997c18.667 -140.667 51.667 -268.334 99 -383.001c5.33301 -10.667 8 -18.667 8 -24v-21c-2 -14 -6.66699 -24.667 -14 -32c-8 -8 -17 -15 -27 -21l-123 -70c-37.333 70.667 -70.666 148.667 -99.999 234
c-26.667 76 -46 155 -58 237c-12 80 -18 161.333 -18 244c0 88 4.66699 172 14 252c8.66699 73.333 24.334 156.666 47.001 249.999c22 89.333 48 170.666 78 243.999c33.333 80 72.333 159 117 237c40.667 70.667 93.334 148.667 158.001 234l104 -68
c12 -9.33301 19.667 -16 23 -20c6 -8.66699 8 -19.667 6 -33c-2 -10 -8.33301 -25 -19 -45c-73.333 -112 -137.333 -240.333 -192 -385c-53.333 -141.333 -87.666 -279.333 -102.999 -414z" />
    <glyph glyph-name="parenright" unicode=")" horiz-adv-x="626" 
d="M350 643c16.667 149.333 16.6689 287.33 0.00195312 413.997c-19.333 144.667 -52 273 -98 385c-6.66699 20.667 -9.33398 35.667 -8.00098 45c2.66699 15.333 7.33398 26.333 14.001 33c4 4.66699 13.667 11.334 29 20.001l121 68
c37.333 -70.667 70.666 -148.667 99.999 -234c25.333 -72.667 44.333 -151.667 57 -237c14 -93.333 21 -174.666 21 -243.999s-5.66699 -152.666 -17 -249.999c-10 -86 -25 -170 -45 -252c-20 -81.333 -46.667 -162.666 -80 -243.999
c-34.667 -84 -73.334 -163 -116.001 -237c-40.667 -70.667 -93.334 -148.667 -158.001 -234l-104 70c-11.333 8 -19 15 -23 21c-6 8 -8 18.667 -6 32c0 2 0.833008 5.66699 2.5 11s2.83398 8.66602 3.50098 9.99902c2 8 6 16 12 24c76 116 140.333 243.667 193 383
c52 138 86 276.667 102 416z" />
    <glyph glyph-name="asterisk" unicode="*" horiz-adv-x="784" 
d="M291 856l22.002 188.002c3.33301 24.667 5.33301 37.667 6 39c4.66699 14 9.66699 26.333 15 37c-2.66699 -2.66699 -5.66699 -5.5 -9 -8.5s-7.16602 -5.83301 -11.499 -8.5s-7.83301 -5 -10.5 -7c-4 -3.33301 -10.5 -7.83301 -19.5 -13.5
s-14.167 -8.83398 -15.5 -9.50098l-174 -94l-47 102l174 95c10 6.66699 23 12.667 39 18c14 4.66699 27 8 39 10c-16.667 2.66699 -29 6 -37 10c-12 6 -23 12.333 -33 19l-151 96l72 103l151 -97c3.33301 -2.66699 8.5 -6.33398 15.5 -11.001s12.167 -8.33398 15.5 -11.001
c7.33301 -6 14.666 -15 21.999 -27c-2.66699 8 -4 20.333 -4 37c0 18 0.666992 31.667 2 41l23 188h121l-23 -188c-2.66699 -20 -5.33398 -33.667 -8.00098 -41c-6 -18 -10.667 -30.333 -14 -37c4.66699 5.33301 14.667 14.333 30 27c4 2.66699 10.333 6.5 19 11.5l18 10.5
l172 95l49 -103l-174 -94c-12 -8 -25 -14.333 -39 -19s-27 -8 -39 -10c19.333 -3.33301 42.666 -12.666 69.999 -27.999l152 -95l-72 -102l-152 94c-4.66699 3.33301 -14.667 11 -30 23c-12 9.33301 -20.333 18 -25 26c6.66699 -24.667 8 -50.667 4 -78l-22 -188h-121z" />
    <glyph glyph-name="plus" unicode="+" horiz-adv-x="1114" 
d="M723 1200l-51 -418h397l-22 -188h-400l-51 -422h-205l51 422h-395l23 188h397l51 418h205z" />
    <glyph glyph-name="comma" unicode="," horiz-adv-x="446" 
d="M88 156c2.66699 22 8.00098 39.6641 16.001 52.9971c12 19.333 24.333 34.333 37 45c11.333 10 27.666 19.667 48.999 29c15.333 6.66699 36.666 10 63.999 10c25.333 0 47 -4 65 -12c17.333 -7.33301 31.666 -20.333 42.999 -39s19 -37.334 23 -56.001
c2.66699 -13.333 2.66699 -35 0 -65c-4 -32.667 -13 -67.667 -27 -105c-12.667 -32.667 -31.667 -68 -57 -106c-28.667 -42 -56.667 -77.667 -84 -107c-32 -34 -67.333 -65.333 -106 -94l-41 41c-10.667 10.667 -15 23 -13 37c0 3.33301 3 9.33301 9 18
c6.66699 10 11.334 16.333 14.001 19c2 2.66699 6.83301 7.33398 14.5 14.001s13.834 12.334 18.501 17.001c16.667 16.667 29 30.334 37 41.001c20 26.667 32 43 36 49c11.333 16.667 20.333 36.334 27 59.001c-24.667 0 -43.667 3.33301 -57 10
c-18 9.33301 -31.667 20.333 -41 33c-14 20 -22.333 35.667 -25 47c-3.33301 16 -4 36.667 -2 62z" />
    <glyph glyph-name="hyphen" unicode="-" horiz-adv-x="677" 
d="M86 725h530l-26 -213h-529z" />
    <glyph glyph-name="period" unicode="." horiz-adv-x="430" 
d="M59 139c2 22.667 8.33301 43.333 19 62c10.667 19.333 23.667 35.666 39 48.999c16.667 14.667 34.334 25.667 53.001 33c20 8 41 12 63 12s42 -4 60 -12s33 -19 45 -33c11.333 -13.333 20.333 -29.666 27 -48.999c5.33301 -16 6.66602 -36.667 3.99902 -62
c-1.33301 -18.667 -8.33301 -39 -21 -61c-8.66699 -14.667 -21 -30.334 -37 -47.001c-13.333 -13.333 -31 -24.333 -53 -33c-20 -8 -41 -12 -63 -12s-42 4 -60 12s-33 19 -45 33c-12.667 14.667 -21.667 30.334 -27 47.001c-4.66699 14.667 -6 35 -4 61z" />
    <glyph glyph-name="slash" unicode="/" horiz-adv-x="1112" 
d="M293 -4c-5.33301 -10 -15.001 -23.667 -29.001 -41c-5.33301 -6.66699 -17.666 -16.334 -36.999 -29.001c-7.33301 -5.33301 -21 -10.666 -41 -15.999c-18.667 -5.33301 -31.667 -8 -39 -8h-106l784 1532c12.667 25.333 32.667 47 60 65c24 15.333 51.333 23 82 23h106z
" />
    <glyph glyph-name="zero" unicode="0" horiz-adv-x="1198" 
d="M1143 741c-16 -128.667 -44.002 -241.332 -84.002 -337.999s-88 -175 -144 -235c-58 -62.667 -121.333 -109 -190 -139c-68 -30 -141.667 -45 -221 -45c-80 0 -149.667 15 -209 45c-61.333 31.333 -112.666 77.666 -153.999 138.999c-39.333 58.667 -67.333 137 -84 235
c-16 94.667 -16 207.334 0 338.001c16 131.333 43.333 243.333 82 336c39.333 94 87.333 172.667 144 236c56 62 118.667 108.333 188 139c68 30 141 45 219 45c80 0 150.333 -15 211 -45c62 -30.667 114 -77 156 -139c40.667 -60.667 69.334 -139.334 86.001 -236.001
c16 -94.667 16 -206.667 0 -336zM880.998 741.002c12.667 110 15.998 198.998 9.99805 266.998c-5.33301 64.667 -19.666 120.667 -42.999 168c-20 41.333 -46.667 70 -80 86c-36 17.333 -70 26 -102 26c-32.667 0 -69 -8.66699 -109 -26
c-34.667 -14.667 -68 -43.334 -100 -86.001c-28 -36.667 -55.333 -92.667 -82 -168c-27.333 -76 -46.666 -165 -57.999 -267c-12 -103.333 -14.667 -192 -8 -266c6 -68 19.667 -124 41 -168c20.667 -42.667 46.667 -72 78 -88c33.333 -17.333 67.333 -26 102 -26
c34 0 71 8.66699 111 26c34.667 14.667 68 43.334 100 86.001c29.333 38.667 57.333 95.334 84 170.001c25.333 70.667 44 159.334 56 266.001z" />
    <glyph glyph-name="one" unicode="1" horiz-adv-x="919" 
d="M840 170c28.667 -6 41.001 -23.001 37.001 -51.001l-17 -119h-401h-15h-403l16 119c4 28 19.667 45 47 51c33.333 4.66699 120.333 12.334 261 23.001l106 860c2.66699 19.333 8 54.666 16 105.999l-235 -178c-11.333 -9.33301 -21 -14.666 -29 -15.999
c-13.333 -2.66699 -22 -4 -26 -4c-16 0 -28.333 2.66699 -37 8c-12.667 7.33301 -20.334 14 -23.001 20l-67 111l499 383h207l-158 -1293c122.667 -9.33301 196.667 -16 222 -20z" />
    <glyph glyph-name="two" unicode="2" horiz-adv-x="1212" 
d="M1108 221l-27.001 -220.999h-24h-60h-956l12 84c2.66699 19.333 8.33398 37 17.001 53c10.667 19.333 24.334 36.333 41.001 51l503 451c43.333 38.667 81.666 75 114.999 109c32 32 61.333 66.667 88 104c28 39.333 48 74 60 104c14.667 37.333 24 74.333 28 111
c4 33.333 2.66699 64.666 -4 93.999c-5.33301 25.333 -17 48 -35 68c-17.333 19.333 -38.333 33 -63 41c-29.333 9.33301 -58.666 14 -87.999 14c-60.667 0 -112.667 -15.667 -156 -47c-40 -28.667 -72 -69.667 -96 -123c-9.33301 -25.333 -23 -43.666 -41 -54.999
c-20 -12.667 -40 -19 -60 -19c-5.33301 0 -16 1.33301 -32 4l-131 23c18 73.333 45.333 136 82 188c37.333 54 79.666 98.667 126.999 134c52 37.333 105.667 64.333 161 81c58.667 18 121 27 187 27c68 0 129.333 -10.333 184 -31
c55.333 -20.667 100.333 -49.334 135 -86.001c36 -38 62 -82.333 78 -133c16 -51.333 20 -108.666 12 -171.999c-6 -54 -20.333 -104.333 -43 -151c-26 -52.667 -52.667 -97 -80 -133c-34.667 -45.333 -71.334 -86.333 -110.001 -123l-129 -121l-375 -342
c26.667 7.33301 59.334 14.666 98.001 21.999c49.333 6 80 9 92 9h326c4 22 11 52.667 21 92c8 24.667 25.667 37 53 37h108z" />
    <glyph glyph-name="three" unicode="3" horiz-adv-x="1173" 
d="M727 1497c68.667 0 128.668 -9.66504 180.001 -28.998c52.667 -20 96.334 -47.333 131.001 -82c38 -38 63.333 -78 76 -120c14 -47.333 18 -98 12 -152c-5.33301 -44 -15.333 -85 -30 -123c-10.667 -28 -30.667 -59.333 -60 -94c-22.667 -26.667 -50 -49.334 -82 -68.001
c-36.667 -21.333 -71.334 -37 -104.001 -47c86.667 -29.333 148 -71.666 184 -126.999c36 -56 49 -128.333 39 -217c-8 -71.333 -29.667 -136 -65 -194c-36 -58.667 -78.333 -106.667 -127 -144c-50 -38 -107.333 -67.333 -172 -88c-58.667 -18.667 -125 -28 -199 -28
c-74.667 0 -138.334 8 -191.001 24c-48 14.667 -93 40.667 -135 78c-37.333 33.333 -67.333 74.333 -90 123c-23.333 50 -41 106 -53 168l117 45c20 8 39.667 12 59 12s35 -4 47 -12c14 -9.33301 23.667 -20.333 29 -33c12 -30 22.333 -53.333 31 -70
c11.333 -22 26.333 -42.333 45 -61c18 -18 40.333 -33 67 -45c24 -10.667 56 -16 96 -16c44.667 0 83.667 6.66699 117 20c30.667 12.667 59.334 31 86.001 55c25.333 23.333 44.666 48.666 57.999 75.999c14 28.667 22.667 56 26 82c4 36 4 68.667 0 98
c-4 28.667 -16.333 53.334 -37 74.001c-20 20 -52.667 36.333 -98 49c-40.667 11.333 -100 17 -178 17l22 180c59.333 0 112 5.33301 158 16c32 7.33301 66 23 102 47c28.667 21.333 48.667 44.666 60 69.999c14 31.333 22.667 61.333 26 90
c8 71.333 -4.66699 124.666 -38 159.999s-83.333 53 -150 53c-63.333 0 -115.333 -15.667 -156 -47c-42 -32 -74.667 -73 -98 -123c-10.667 -24 -24.334 -42.333 -41.001 -55s-35.667 -19 -57 -19c-7.33301 0 -19 1.33301 -35 4l-129 25c18 71.333 45.333 133.333 82 186
c38.667 56 80.334 100.667 125.001 134c46.667 35.333 100.667 62.333 162 81c59.333 18 122 27 188 27z" />
    <glyph glyph-name="four" unicode="4" horiz-adv-x="1216" 
d="M985 557l186 -0.000976562l-16 -145c-2 -13.333 -8 -25 -18 -35c-11.333 -11.333 -25 -17 -41 -17h-133l-45 -360h-222l45 360h-624c-16.667 0 -31.667 5.66699 -45 17c-10 8.66699 -16.333 22.334 -19 41.001l-10 127l817 938h240zM823 1042
c0.666992 8.66699 2.83203 21.5 6.49902 38.5s5.83398 28.167 6.50098 33.5c2 14 7.33301 40 16 78l-539 -635h451z" />
    <glyph glyph-name="five" unicode="5" horiz-adv-x="1181" 
d="M1126 1372c-4 -35.333 -19.001 -64.001 -45.001 -86.001c-27.333 -23.333 -66.666 -35 -117.999 -35h-408l-90 -309c68 14 129.333 21 184 21c78 0 145 -11.667 201 -35s101.667 -55.666 137 -96.999c36 -42 60.667 -89.667 74 -143c14.667 -56.667 18 -116 10 -178
c-9.33301 -72.667 -32.666 -144.334 -69.999 -215.001c-34.667 -65.333 -79.667 -120.666 -135 -165.999c-57.333 -46.667 -119.333 -82 -186 -106c-72.667 -26 -147.667 -39 -225 -39c-49.333 0 -93 4.66699 -131 14c-39.333 9.33301 -77 22.333 -113 39
c-28 12.667 -59.333 31 -94 55c-21.333 14.667 -46.666 36.667 -75.999 66l92 108c18 23.333 41.333 35 70 35c15.333 0 31.666 -5.33301 48.999 -16l23 -16c13.333 -9.33301 24.666 -16.333 33.999 -21c33.333 -17.333 58.666 -29 75.999 -35
c30.667 -10.667 67.667 -16 111 -16c48 0 89.667 6.66699 125 20c34 12.667 66 34 96 64c27.333 27.333 49 59.333 65 96c15.333 36 26.333 77 33 123c10 80 -5.66699 142.667 -47 188s-107.666 68 -198.999 68c-72.667 0 -145.667 -13 -219 -39l-153 45l211 719h731z" />
    <glyph glyph-name="six" unicode="6" horiz-adv-x="1130" 
d="M696 926c52 0 105.334 -9.66699 160.001 -29c51.333 -18 95 -46 131 -84s62.667 -83.667 80 -137c16.667 -50.667 20.667 -115.667 12 -195c-8 -68.667 -28.333 -133.334 -61 -194.001s-74.334 -113.334 -125.001 -158.001c-48.667 -42.667 -108 -78 -178 -106
c-65.333 -26 -138.333 -39 -219 -39c-82.667 0 -152.334 12 -209.001 36c-58 24.667 -107.333 60.334 -148 107.001c-38 44 -65.333 98.667 -82 164c-15.333 61.333 -18 132.333 -8 213c8 68 30.667 139.667 68 215c35.333 70.667 88.333 146.334 159 227.001l412 475
c12 14 32 27.667 60 41c26.667 12.667 54.334 19 83.001 19h226l-506 -539c-6.66699 -8 -17 -19 -31 -33c-3.33301 -3.33301 -8 -8.33301 -14 -15s-10.667 -11.667 -14 -15c36 16 68 27.333 96 34c38 8.66699 74 13 108 13zM287.001 465
c-4 -44 -3.33398 -81.6709 1.99902 -113.004c4.66699 -26 18.334 -54.667 41.001 -86c17.333 -23.333 42.666 -41.666 75.999 -54.999c36 -14 72.667 -21 110 -21c40 0 77.667 7 113 21c38 15.333 69.333 34.333 94 57c28.667 26 51.334 54.667 68.001 86
c18.667 34.667 30 71 34 109c5.33301 38 3.33301 76.333 -6 115c-6.66699 28.667 -21.667 57.334 -45 86.001c-18 22.667 -44.667 40.334 -80 53.001c-33.333 12 -68.666 18 -105.999 18c-42 0 -79.667 -6.66699 -113 -20c-34.667 -14 -65.334 -33.333 -92.001 -58
c-29.333 -27.333 -51.333 -56 -66 -86c-16 -33.333 -26 -68.666 -30 -105.999z" />
    <glyph glyph-name="seven" unicode="7" horiz-adv-x="1175" 
d="M109 1481l1024 0.000976562l-13 -109c-4 -35.333 -10.667 -62 -20 -80c-0.666992 -1.33301 -10.334 -18.333 -29.001 -51l-700 -1155c-12.667 -22.667 -32 -43 -58 -61c-24 -16.667 -53.333 -25 -88 -25h-184l713 1130c29.333 47.333 60.666 87.666 93.999 120.999h-596
c-12.667 -58.667 -23 -101.667 -31 -129c-8 -24.667 -25 -37 -51 -37h-109l27 220v2v2z" />
    <glyph glyph-name="eight" unicode="8" horiz-adv-x="1155" 
d="M506 -16c-76.667 0 -145.667 10.002 -207 30.002c-57.333 18.667 -108 48 -152 88c-40 36 -69.333 81.333 -88 136c-17.333 51.333 -22 110.666 -14 177.999c10 85.333 40.667 159 92 221c51.333 61.333 123.666 106.333 216.999 135
c-68.667 30.667 -117.667 73.667 -147 129s-39 121.666 -29 198.999c6 55.333 23.667 107.666 53 156.999c28 48 65 89.667 111 125c42 34.667 94.667 62.667 158 84c60.667 20.667 124.667 31 192 31c66.667 0 128.334 -10.333 185.001 -31c50 -18 95 -46 135 -84
c38.667 -38.667 65.334 -80.334 80.001 -125.001c16.667 -50.667 22 -103 16 -157c-10 -77.333 -36.667 -143.666 -80 -198.999c-44 -56 -102.667 -99 -176 -129c87.333 -28.667 148.666 -73.667 183.999 -135c34.667 -60 47 -133.667 37 -221
c-8 -64.667 -27.667 -124 -59 -178c-30 -51.333 -71 -96.666 -123 -135.999c-52.667 -40 -110 -69.333 -172 -88c-66 -20 -137 -30 -213 -30zM530 180.002c39.333 0 76.334 6.33203 111.001 18.999c27.333 10 56 27 86 51c23.333 18.667 42.333 43.334 57 74.001
c16 32.667 25.667 64.667 29 96c10 82.667 -5 144 -45 184c-42.667 42.667 -102 64 -178 64c-79.333 0 -144.333 -21.333 -195 -64c-50 -42 -80 -103.333 -90 -184c-4.66699 -38.667 -3.33398 -70.667 3.99902 -96c7.33301 -27.333 21 -52 41 -74
c21.333 -23.333 45.333 -40.333 72 -51c32.667 -12.667 68.667 -19 108 -19zM614.001 864.001c36 0 71 6.99902 105 20.999c28.667 12 54 29 76 51c20 20 35 44.667 45 74c9.33301 26 16 54.667 20 86c4 26.667 2.66699 53.334 -4 80.001s-17 49 -31 67
c-14.667 18.667 -35 33.667 -61 45c-28.667 12.667 -60.667 19 -96 19s-68.333 -6.33301 -99 -19c-32 -13.333 -56.333 -28.333 -73 -45c-22.667 -22.667 -39.334 -45 -50.001 -67c-10 -21.333 -17.333 -48 -22 -80c-4 -30 -4 -58.667 0 -86s13.667 -52 29 -74
c16.667 -24 36.334 -41 59.001 -51c31.333 -14 65.333 -21 102 -21z" />
    <glyph glyph-name="nine" unicode="9" horiz-adv-x="1095" 
d="M408 590c-50 0 -99.3359 9.33203 -148.003 27.999c-47.333 18 -87.666 44.667 -120.999 80c-35.333 37.333 -60.666 81.666 -75.999 132.999c-16 52.667 -20 114.334 -12 185.001c8 66.667 28 129.334 60 188.001c31.333 57.333 72 108 122 152
c48.667 42.667 106.334 76.667 173.001 102c68.667 26 138 39 208 39c80.667 0 147.667 -11.667 201 -35c59.333 -26 107 -60 143 -102c35.333 -40.667 61.333 -92 78 -154c15.333 -57.333 19 -122.666 11 -195.999c-6 -47.333 -15 -91 -27 -131
c-8.66699 -30.667 -25 -70.334 -49 -119.001c-15.333 -32 -37.333 -69 -66 -111c-23.333 -34.667 -50.666 -70.667 -81.999 -108l-399 -484c-14 -16 -33 -29.667 -57 -41c-22 -10.667 -48.667 -16 -80 -16h-232l531 573c0.666992 0.666992 13 15 37 43
c18.667 22 30 35.667 34 41c-36.667 -22.667 -76 -39 -118 -49c-42.667 -12 -86.334 -18 -131.001 -18zM806.997 1034c4.66699 45.333 3.33496 81.6689 -3.99805 109.002c-6.66699 28 -21 54.667 -43 80c-18.667 21.333 -43.334 38.333 -74.001 51
c-26 10.667 -59.333 16 -100 16c-38.667 0 -74.334 -6 -107.001 -18c-29.333 -10.667 -57.333 -28.334 -84 -53.001c-22.667 -20.667 -42.334 -47.334 -59.001 -80.001s-27 -67 -31 -103c-10 -82 3.66699 -144.667 41 -188c38 -44 96 -66 174 -66
c36.667 0 74.334 7 113.001 21c31.333 11.333 60 29 86 53c27.333 24.667 47 50.667 59 78c16 34.667 25.667 68 29 100z" />
    <glyph glyph-name="colon" unicode=":" horiz-adv-x="497" 
d="M49 139c2 20 8.99805 40.667 20.998 62c12.667 22.667 24.667 39 36 49c14.667 13.333 33.334 24.333 56.001 33c20 8 40.333 12 61 12c22 0 42 -4 60 -12s33 -19 45 -33c10.667 -12 19.334 -28.333 26.001 -49c6 -18.667 8 -39.334 6 -62.001
c-2 -20 -8.66699 -40.333 -20 -61c-6.66699 -12 -19.667 -27.667 -39 -47c-13.333 -13.333 -31 -24.333 -53 -33c-20 -8 -40.667 -12 -62 -12s-41 4 -59 12c-20 8.66699 -35.667 19.667 -47 33c-12.667 14.667 -21.667 30.334 -27 47.001c-4.66699 14.667 -6 35 -4 61z
M138.998 868c2 22.667 8.33105 43.332 18.998 61.999c10.667 19.333 23.667 35.666 39 48.999c16.667 14.667 34.334 25.667 53.001 33c20 8 41 12 63 12s42 -4 60 -12s33 -19 45 -33c10.667 -12 19.334 -28.333 26.001 -49c5.33301 -16.667 7 -36.667 5 -60
c-2 -21.333 -8.33301 -41.666 -19 -60.999c-8 -15.333 -21 -31.666 -39 -48.999c-13.333 -13.333 -31 -24.333 -53 -33c-16.667 -6.66699 -37.334 -10 -62.001 -10c-25.333 0 -45.666 3.33301 -60.999 10c-18 8 -33 19 -45 33c-11.333 13.333 -20.333 29.666 -27 48.999
c-4.66699 14.667 -6 34.334 -4 59.001z" />
    <glyph glyph-name="semicolon" unicode=";" horiz-adv-x="514" 
d="M76 156c2 19.333 7.99707 36.999 17.9971 52.999c13.333 21.333 25 36.333 35 45s27 18.334 51 29.001c14.667 6.66699 35.334 10 62.001 10c25.333 0 47 -4 65 -12c17.333 -7.33301 31.666 -20.333 42.999 -39s19 -37.334 23 -56.001c3.33301 -18 4 -39.667 2 -65
c-3.33301 -28 -13 -63 -29 -105c-12.667 -32.667 -31.667 -68 -57 -106c-32 -47.333 -59.333 -83 -82 -107c-27.333 -28.667 -63.666 -60 -108.999 -94l-39 41c-11.333 11.333 -16 23.666 -14 36.999c0 4 2.66699 10 8 18c2.66699 4 8.33398 10.333 17.001 19l30 31
c22 22 35 35.667 39 41c14 18.667 25.667 35 35 49c14 20.667 23.667 40.334 29 59.001c-25.333 0 -44.666 3.33301 -57.999 10c-18 9.33301 -31.667 20.333 -41 33c-13.333 18.667 -21.333 34.334 -24 47.001c-4.66699 20 -6 40.667 -4 62zM157.997 867.999
c2.66699 24 8.66797 44.666 18.001 61.999c10.667 19.333 23.667 35.666 39 48.999c16.667 14.667 34.334 25.667 53.001 33c20 8 41.333 12 64 12c21.333 0 41 -4 59 -12s33 -19 45 -33c11.333 -13.333 20.333 -29.666 27 -48.999c5.33301 -16 6.66602 -36.667 3.99902 -62
c-1.33301 -16.667 -8.33301 -36.334 -21 -59.001c-10.667 -19.333 -22.667 -35.666 -36 -48.999c-12.667 -12.667 -30.667 -23.667 -54 -33c-16.667 -6.66699 -37.667 -10 -63 -10s-45.333 3.33301 -60 10c-18 8 -33 19 -45 33c-10.667 12 -19.334 28.333 -26.001 49
c-4.66699 14.667 -6 34.334 -4 59.001z" />
    <glyph glyph-name="less" unicode="&#x3c;" horiz-adv-x="972" 
d="M61 741l862.999 423.998l-21 -180c-2 -15.333 -7.33301 -28.333 -16 -39c-6 -9.33301 -18.333 -18.666 -37 -27.999l-395 -191c-10.667 -5.33301 -28 -12 -52 -20c-28 -9.33301 -47 -15 -57 -17c16.667 -4 34.334 -9.33301 53.001 -16c20 -7.33301 35.667 -14.333 47 -21
l349 -190c13.333 -8 23.333 -18.333 30 -31c4.66699 -9.33301 6 -21.666 4 -36.999l-20 -180l-760 424z" />
    <glyph glyph-name="equal" unicode="=" horiz-adv-x="1081" 
d="M76 602h907l-22 -188h-908zM121 963h907l-22 -189h-908z" />
    <glyph glyph-name="greater" unicode="&#x3e;" horiz-adv-x="970" 
d="M47 215l23 180.002c2 13.333 6.66699 25.666 14 36.999c8 12.667 20.333 23 37 31l395 190c36.667 15.333 73.667 27.666 111 36.999c-14 3.33301 -32 9 -54 17c-23.333 8.66699 -39 15.334 -47 20.001l-348 191c-16 9.33301 -26.333 18.666 -31 27.999
c-6 12 -8 24.333 -6 37l23 180l760 -422l-15 -102z" />
    <glyph glyph-name="question" unicode="?" horiz-adv-x="854" 
d="M43 1348c34 25.333 61.9961 44.333 83.9961 57c30.667 17.333 62 33 94 47c32.667 14 69 25 109 33c38.667 8 80.334 12 125.001 12c58 0 110.333 -8 157 -24c47.333 -16 86.333 -39.333 117 -70c31.333 -31.333 54 -68.333 68 -111c14 -43.333 18 -91.666 12 -144.999
c-6 -52 -19 -96.333 -39 -133c-19.333 -38 -42.666 -71.667 -69.999 -101c-22.667 -24.667 -50.667 -48.334 -84 -71.001l-40 -28.5l-41 -29.5c-15.333 -10 -38.666 -27.667 -69.999 -53c-18.667 -16.667 -31 -36.334 -37 -59.001l-43 -150h-172l2 166v10l2 9
c4 30 14.333 55.667 31 77c20.667 26 42.334 47.333 65.001 64c24.667 19.333 50.667 37.666 78 54.999c13.333 8 40.666 28.667 81.999 62c28.667 26.667 50 50.334 64 71.001c18.667 28 30 60.333 34 97c2 24.667 0 47 -6 67c-5.33301 18 -15.333 34.333 -30 49
c-14 14 -32.667 25 -56 33c-19.333 6.66699 -43.666 10 -72.999 10c-38.667 0 -72.334 -4 -101.001 -12c-20.667 -6 -44.667 -15.667 -72 -29c-10.667 -5.33301 -27.667 -14.666 -51 -27.999c-15.333 -8.66699 -27.666 -13 -36.999 -13c-24.667 0 -41 10.333 -49 31z
M87.9961 139c2 22.667 8 42.6699 18 60.0029c10.667 19.333 23.667 35.666 39 48.999c18 15.333 36.667 27 56 35c20 8 40.333 12 61 12c22 0 42 -4 60 -12s33 -19 45 -33c10.667 -12 19.334 -28.333 26.001 -49c6 -18.667 8 -39.334 6 -62.001
c-2 -20 -8.66699 -40.333 -20 -61c-8 -14.667 -21 -31 -39 -49c-10.667 -10.667 -28.334 -21 -53.001 -31c-20 -8 -40.667 -12 -62 -12s-41 4 -59 12c-22 10 -37.667 20.333 -47 31c-11.333 13.333 -20.333 29.666 -27 48.999c-4.66699 14.667 -6 35 -4 61z" />
    <glyph glyph-name="at" unicode="@" horiz-adv-x="1669" 
d="M1126 188c-46.667 0 -86.667 10.9971 -120 32.9971c-34.667 22.667 -56 58.334 -64 107.001c-52 -54 -98.333 -89.667 -139 -107c-48.667 -20.667 -98.667 -31 -150 -31c-39.333 0 -76 7.66699 -110 23c-30 13.333 -54 33.666 -72 60.999
c-19.333 28.667 -31.666 59.667 -36.999 93c-6.66699 40.667 -7.33398 80 -2.00098 118c2.66699 24.667 13 63.667 31 117c15.333 44 34.333 83 57 117c22 32.667 51.333 67.334 88 104.001c27.333 27.333 65.666 55.333 114.999 84c40.667 24 88.334 43.333 143.001 58
c53.333 14.667 109.333 22 168 22c52 0 96.333 -4 133 -12c24 -5.33301 59 -17.666 105 -36.999l-146 -379c-14 -37.333 -23.333 -73.333 -28 -108c-2.66699 -26.667 -2.66699 -44.667 0 -54c4 -14.667 9.33301 -25.334 16 -32.001s17 -12.334 31 -17.001
c8 -2.66699 21 -4 39 -4c26.667 0 54.667 9 84 27c30 18.667 56 43.667 78 75c22.667 32.667 42.334 72.334 59.001 119.001c18 50 29.667 99.333 35 148c10 86 5.66699 163.667 -13 233c-16.667 64 -48.667 120.667 -96 170c-44 46 -98.667 80.333 -164 103
s-139.666 34 -222.999 34c-84.667 0 -169.334 -17 -254.001 -51c-80 -32 -152.333 -78.333 -217 -139c-66.667 -62 -119.334 -131 -158.001 -207c-40.667 -79.333 -67 -165.333 -79 -258c-14 -113.333 -8.66699 -212.333 16 -297s63.667 -155.667 117 -213
c52.667 -56.667 118.667 -99.667 198 -129c73.333 -27.333 160.666 -41 261.999 -41c56.667 0 106 2.66699 148 8c52 6.66699 95 14.334 129 23.001c26.667 6.66699 62.667 18.334 108 35.001c26.667 10 57 23.667 91 41c11.333 6.66699 22.666 10 33.999 10
c20 0 33 -11 39 -33l23 -92c-73.333 -45.333 -160.666 -83 -261.999 -113c-96.667 -28.667 -206.667 -43 -330 -43c-124.667 0 -236.667 19.333 -336 58c-101.333 39.333 -185.333 95.333 -252 168s-115.667 161.334 -147 266.001s-39 222 -23 352
c7.33301 65.333 25.666 136.333 54.999 213c26.667 69.333 61 133.666 103 192.999c41.333 59.333 90.333 115 147 167c50 46.667 110.333 89.667 181 129c64.667 36 132.667 64 204 84c74.667 20.667 149.334 31 224.001 31c96 0 186.667 -16.333 272 -49
c88.667 -34 162.334 -80.333 221.001 -139c60 -60 105.667 -133.667 137 -221c30.667 -85.333 39 -183 25 -293c-8 -72.667 -27 -141.667 -57 -207c-29.333 -64 -66.333 -119.333 -111 -166c-45.333 -47.333 -95 -84.333 -149 -111c-56 -27.333 -115 -41 -177 -41z
M723 351.997c20.667 0 39 2.66504 55 7.99805c22 7.33301 40.667 17 56 29c16.667 12.667 33.667 31.667 51 57c20.667 29.333 35.667 58 45 86l108 289c-20 4 -41.667 6 -65 6c-44.667 0 -85.667 -8.66699 -123 -26c-36 -16.667 -71 -42 -105 -76
c-31.333 -31.333 -57 -67.666 -77 -108.999s-33 -82.666 -39 -123.999c-6 -42.667 -0.666992 -77 16 -103c16 -24.667 42 -37 78 -37z" />
    <glyph glyph-name="A" unicode="A" 
d="M1608 158c24.667 -9.33301 35.999 -27.334 33.999 -54.001l-14 -104h-72h-159h-35h-19h-215l13 104c2 24 17.667 42 47 54c18 6 32.333 11.333 43 16l-4 23l-49 200h-590l-103 -211l-6 -12c8 -4 16.333 -7.66699 25 -11l14 -5c25.333 -11.333 37 -29.333 35 -54l-14 -104
h-213h-21h-33h-161h-72l12 104c2 24 17.667 42 47 54c2.66699 0.666992 42.334 16.334 119.001 47.001l657 1276h283l344 -1276c66 -29.333 101.667 -45 107 -47zM906.999 1051l-225 -459h448l-110 459c-10 38 -16.333 63.667 -19 77c-5.33301 26 -11.333 58.333 -18 97
l-18 -44.5l-21 -52.5c-6 -16 -18.333 -41.667 -37 -77z" />
    <glyph glyph-name="B" unicode="B" horiz-adv-x="1423" 
d="M1081 766c196.667 -44.667 285.003 -154.668 265.003 -330.001c-8 -64 -27.333 -122 -58 -174c-32.667 -56 -73 -102.333 -121 -139c-47.333 -36 -107.333 -66 -180 -90c-66.667 -22 -144.334 -33 -233.001 -33h-559h-156l14 121c4 34 24 55 60 63
c1.33301 0 3.16602 0.333008 5.49902 1s4.5 1 6.5 1s6.83301 1 14.5 3s13.834 3.33301 18.501 4l26 4.5c13.333 2.33301 25 4.16602 35 5.49902l131 1075l-32 5.5c-13.333 2.33301 -22.333 3.83301 -27 4.5s-10.167 1.83398 -16.5 3.50098s-10.5 2.5 -12.5 2.5
c-4 1.33301 -8 2 -12 2c-32.667 8 -47 29.333 -43 64l14 121h156h510c93.333 0 175.333 -9.66699 246 -29c67.333 -18 119.666 -44 156.999 -78c41.333 -37.333 68.666 -79 81.999 -125c14 -50 17.333 -104 10 -162c-4 -35.333 -12.667 -68.666 -26 -99.999
s-33.333 -61.333 -60 -90c-22.667 -26 -52.667 -50.667 -90 -74c-34 -21.333 -75.667 -40.333 -125 -57zM625.003 1268l-52 -428h220c94.667 0 167.667 17 219 51c53.333 35.333 84 89.333 92 162c10 76.667 -5 132 -45 166c-38.667 32.667 -105 49 -199 49h-235z
M1049 353.999c12 26.667 20 56 24 88c3.33301 29.333 2 58 -4 86c-6 24.667 -19.667 46.667 -41 66c-19.333 17.333 -45.333 31 -78 41c-30.667 9.33301 -71.667 14 -123 14h-278l-53 -434h280c49.333 0 92.333 6 129 18c34.667 11.333 64.667 28 90 50
c24.667 21.333 42.667 45 54 71z" />
    <glyph glyph-name="C" unicode="C" horiz-adv-x="1390" 
d="M1188 1014c-26.667 0 -40.9971 12.335 -42.9971 37.002c0 48.667 0.666992 103 2 163c-106 32 -198.333 48 -277 48c-74 0 -139.333 -11.667 -196 -35c-63.333 -26 -118 -61 -164 -105c-48.667 -46.667 -87.667 -101.334 -117 -164.001
c-32.667 -68.667 -53.667 -141.667 -63 -219c-10 -84 -7.33301 -157.667 8 -221c15.333 -64 40.666 -118.667 75.999 -164c31.333 -40.667 75 -74.667 131 -102c47.333 -23.333 104 -35 170 -35c38 0 72.667 2 104 6c26 3.33301 54.667 9.66602 86 18.999
c21.333 6.66699 46.666 18 75.999 34c18.667 10.667 44 28.667 76 54c8 6 15.333 10.667 22 14c5.33301 2.66699 13.666 4 24.999 4c16 0 28.333 -5.33301 37 -16l94 -119c-70.667 -75.333 -151.334 -132 -242.001 -170c-92.667 -39.333 -200.334 -59 -323.001 -59
c-106.667 0 -203 19 -289 57c-86.667 38 -155.667 90 -207 156c-52 67.333 -89.667 147 -113 239c-22 89.333 -26 190.333 -12 303c14.667 118 45.334 220.667 92.001 308c48.667 91.333 110.334 170.333 185.001 237c77.333 69.333 164 122 260 158
c97.333 36.667 202.333 55 315 55c126 0 276.333 -35.333 451 -106l-45 -377h-119z" />
    <glyph glyph-name="D" unicode="D" horiz-adv-x="1626" 
d="M1561 1040c24.667 -89.333 29.999 -189 15.999 -299c-14.667 -112 -44.667 -211.667 -90 -299c-47.333 -90.667 -108 -169 -182 -235c-71.333 -63.333 -156 -114 -254 -152c-95.333 -36.667 -200 -55 -314 -55h-542h-156l14 121c4 34 24 55 60 63
c1.33301 0 3.16602 0.333008 5.49902 1s4.5 1 6.5 1s6.83301 1 14.5 3s13.834 3.33301 18.501 4l26 4.5c13.333 2.33301 25 4.16602 35 5.49902l131 1075l-32 5.5c-13.333 2.33301 -22.333 3.83301 -27 4.5s-10.167 1.83398 -16.5 3.50098s-10.5 2.5 -12.5 2.5
c-2.66699 0 -5.33398 0.333008 -8.00098 1l-4 1c-32.667 8 -47 29.333 -43 64l14 121h156h543c110.667 0 210.334 -18.667 299.001 -56c90.667 -38 163 -88.333 217 -151c58.667 -68 100.334 -146 125.001 -234zM1237 522c29.333 62 49 135.001 59 219.001
c10 80 8 152.333 -6 217c-14.667 65.333 -39 120 -73 164c-34 43.333 -78.667 77.666 -134 102.999c-54 24.667 -117.333 37 -190 37h-266l-129 -1043h266c72.667 0 139 12.333 199 37c64.667 26.667 117.667 60.667 159 102c48 48 86.333 102.667 115 164z" />
    <glyph glyph-name="E" unicode="E" horiz-adv-x="1347" 
d="M377 1481h934.002l-19 -144l-10 -75l-20 -170h-9h-24h-84c-26.667 0 -41 12.667 -43 38c0 1.33301 -0.166992 9 -0.5 23s-0.5 30.333 -0.5 49s0.333008 38.667 1 60h-475l-52 -410h502l-26 -213h-500l-53 -418h477c9.33301 42 19.666 85.667 30.999 131
c8 26 25.667 39 53 39h84h24h9l-21 -170l-10 -78l-17 -143h-933h-156l14 121c4 34 24 55 60 63c1.33301 0 3.16602 0.333008 5.49902 1s4.5 1 6.5 1s6.83301 1 14.5 3s13.834 3.33301 18.501 4l26 4.5c13.333 2.33301 25 4.16602 35 5.49902l131 1075l-32 5.5
c-13.333 2.33301 -22.333 3.83301 -27 4.5s-10.167 1.83398 -16.5 3.50098s-10.5 2.5 -12.5 2.5c-2.66699 0 -5.33398 0.333008 -8.00098 1l-4 1c-32.667 8 -47 29.333 -43 64l14 121h156z" />
    <glyph glyph-name="F" unicode="F" horiz-adv-x="1398" 
d="M1311 1481h50.999l-19 -144l-6 -47l-24 -198h-8h-25h-84c-26.667 0 -41 12.667 -43 38c0 1.33301 -0.166992 9 -0.5 23s-0.5 30.333 -0.5 49s0.333008 38.667 1 60h-526l-54 -439h517l-27 -219h-518l-49 -401l32 -5.5c13.333 -2.33301 22.333 -3.83301 27 -4.5
s10.5 -2 17.5 -4s11.5 -3 13.5 -3c2.66699 0 5.33398 -0.333008 8.00098 -1l4 -1c32.667 -8 47 -29 43 -63l-14 -121h-156h-276h-156l14 121c4 34 24 55 60 63c1.33301 0 3.16602 0.333008 5.49902 1s4.5 1 6.5 1s6.83301 1 14.5 3s13.834 3.33301 18.501 4l26 4.5
c13.333 2.33301 25 4.16602 35 5.49902l131 1075l-32 5.5c-13.333 2.33301 -22.333 3.83301 -27 4.5s-10.167 1.83398 -16.5 3.50098s-10.5 2.5 -12.5 2.5c-4 1.33301 -8 2 -12 2c-32.667 8 -47 29.333 -43 64l14 121h156h887h47z" />
    <glyph glyph-name="G" unicode="G" horiz-adv-x="1460" 
d="M866 741l492.005 0.000976562l-74 -598c-44 -29.333 -85.667 -53 -125 -71c-44.667 -20.667 -90.334 -37 -137.001 -49c-55.333 -14 -106 -23.667 -152 -29c-58.667 -6.66699 -115.334 -10 -170.001 -10c-106.667 0 -204 19 -292 57s-159.667 90 -215 156
c-58 69.333 -100.333 149 -127 239c-26.667 91.333 -33 193 -19 305c14 111.333 44.667 213.333 92 306c46 90 107.667 169.667 185 239c76 68 162.667 120 260 156c92.667 34.667 197 53 313 55h12h2c156 0 326 -35.333 510 -106l-45 -377h-10h-25h-84
c-26.667 0 -41 12.333 -43 37c0 18 1 71 3 159c-97.333 34.667 -212.333 52 -345 52c-78 0 -145.333 -11.667 -202 -35c-60.667 -24.667 -115.334 -60.334 -164.001 -107.001c-46 -44 -85 -98.667 -117 -164c-28.667 -58.667 -48.334 -130.334 -59.001 -215.001
c-10 -88 -7.33301 -164.333 8 -229c15.333 -66 42 -122 80 -168c36.667 -44.667 83 -79.334 139 -104.001s119.667 -37 191 -37c58.667 0 113 5.33301 163 16c41.333 8.66699 87.333 24.334 138 47.001l34 269h-186c-18.667 0 -32.334 5.33301 -41.001 16
s-12 22.334 -10 35.001z" />
    <glyph glyph-name="H" unicode="H" horiz-adv-x="1818" 
d="M1706 1296c-1.33301 0 -3.17188 -0.332031 -5.50488 -0.999023s-4.5 -1 -6.5 -1s-6.5 -0.833008 -13.5 -2.5s-12.833 -2.83398 -17.5 -3.50098l-28 -4.5c-14.667 -2.33301 -26.667 -4.16602 -36 -5.49902l-131 -1075l32.5 -5.5
c13.667 -2.33301 22.834 -3.83301 27.501 -4.5s10 -2 16 -4s10 -3 12 -3c2.66699 0 5.66699 -0.333008 9 -1s5.33301 -1 6 -1c32.667 -8 47 -29 43 -63l-17 -121h-153h-279h-153l14 121c4 34 23.667 55 59 63c4.66699 0 9 0.666992 13 2
c9.33301 3.33301 19.333 5.66602 30 6.99902l26.5 4.5c13.667 2.33301 25.5 4.16602 35.5 5.49902l55 444h-694l-55 -444l32 -5.5c13.333 -2.33301 22.333 -3.83301 27 -4.5s10.5 -2 17.5 -4s11.5 -3 13.5 -3c4 -1.33301 8 -2 12 -2c32.667 -8 47 -29 43 -63l-14 -121h-156
h-276h-156l14 121c4 34 24 55 60 63c0.666992 0 2.33398 0.333008 5.00098 1s5 1 7 1s6.83301 1 14.5 3s13.834 3.33301 18.501 4l26 4.5c13.333 2.33301 25 4.16602 35 5.49902l131 1075l-32 5.5c-13.333 2.33301 -22.333 3.83301 -27 4.5s-10.167 1.83398 -16.5 3.50098
s-10.5 2.5 -12.5 2.5c-4 1.33301 -8 2 -12 2c-32.667 8 -47 29.333 -43 64l14 121h156h276h156l-16 -121c-4 -34.667 -23.333 -56 -58 -64c-5.33301 0 -10 -0.666992 -14 -2c-5.33301 -2 -15.666 -4 -30.999 -6l-26 -4.5c-13.333 -2.33301 -25 -4.16602 -35 -5.49902
l-54 -434h695l53 434l-32 5.5c-13.333 2.33301 -22.333 3.83301 -27 4.5c-15.333 2 -25.666 4 -30.999 6c-4 1.33301 -8 2 -12 2c-32.667 8 -47 29.333 -43 64l14 121h156h278h154l-15 -121c-4 -34.667 -23.667 -56 -59 -64z" />
    <glyph glyph-name="I" unicode="I" horiz-adv-x="845" 
d="M733 1296c-1.33301 0 -3.16895 -0.333008 -5.50195 -1s-4.5 -1 -6.5 -1s-6.5 -0.833008 -13.5 -2.5s-12.833 -2.83398 -17.5 -3.50098l-27 -4.5c-14 -2.33301 -26 -4.16602 -36 -5.49902l-131 -1075l32 -5.5c13.333 -2.33301 22.333 -3.83301 27 -4.5s10.167 -2 16.5 -4
s10.5 -3 12.5 -3c2.66699 0 5.66699 -0.333008 9 -1l5 -1c32.667 -8 47 -29 43 -63l-16 -121h-154h-276h-156l14 121c4 34 24 55 60 63c0.666992 0 2.33398 0.333008 5.00098 1s5 1 7 1s6.83301 1 14.5 3s13.834 3.33301 18.501 4l26 4.5
c13.333 2.33301 25 4.16602 35 5.49902l131 1075l-32 5.5c-13.333 2.33301 -22.333 3.83301 -27 4.5s-10.167 1.83398 -16.5 3.50098s-10.5 2.5 -12.5 2.5c-4 1.33301 -8 2 -12 2c-32.667 8 -47 29.333 -43 64l14 121h156h276h154l-14 -121c-4 -34.667 -24 -56 -60 -64z" />
    <glyph glyph-name="J" unicode="J" horiz-adv-x="1118" 
d="M926 1481h155l-14 -121c-4 -34.667 -23.667 -56 -59 -64l-6 -1c-4 -0.666992 -7 -1 -9 -1s-6.33301 -0.833008 -13 -2.5s-12.334 -2.83398 -17.001 -3.50098l-26.5 -4.5c-13.667 -2.33301 -25.5 -4.16602 -35.5 -5.49902l-92 -752c-9.33301 -80 -29 -155 -59 -225
c-28 -66 -65.667 -122.667 -113 -170s-102 -83.333 -164 -108c-65.333 -26 -137.666 -39 -216.999 -39c-37.333 0 -73.666 2 -108.999 6c-30.667 3.33301 -66.667 10.666 -108 21.999l35 164c4 14 10.667 25.667 20 35c11.333 9.33301 26.333 14 45 14c12 0 27 -2 45 -6
c24 -5.33301 47.333 -8 70 -8c43.333 0 78.666 5.33301 105.999 16c28.667 9.33301 56 28 82 56c26.667 28.667 46 60 58 94c16 44 26.667 91.667 32 143l93 758c-39.333 6 -60.666 9.33301 -63.999 10c-6 0.666992 -13.333 1.83398 -22 3.50098s-14.334 2.5 -17.001 2.5
c-3.33301 0 -7.33301 0.333008 -12 1l-6 1c-32.667 8 -47 29.333 -43 64l14 121h176h275z" />
    <glyph glyph-name="K" unicode="K" horiz-adv-x="1634" 
d="M1440 184c32.667 -8 47.002 -28.998 43.002 -62.998l-17 -121h-14h-139h-80h-25h-315l14 121c4 34 24 55 60 63c5.33301 0 10.666 0.666992 15.999 2c16 4 25.667 6.33301 29 7l-262 407c-12 18.667 -25.667 31.667 -41 39c-16 8 -40 12 -72 12h-88l-55 -448l32 -5.5
c13.333 -2.33301 22.333 -3.83301 27 -4.5s10.5 -2 17.5 -4s11.5 -3 13.5 -3c2.66699 0 5.33398 -0.333008 8.00098 -1l4 -1c32.667 -8 47 -29 43 -63l-14 -121h-156h-274h-156l14 121c4 34 24 55 60 63c0.666992 0 2.33398 0.333008 5.00098 1s5 1 7 1c8 2.66699 19 5 33 7
l26 4.5c13.333 2.33301 25 4.16602 35 5.49902l131 1075c-8.66699 1.33301 -19.334 3.5 -32.001 6.5s-21 4.83301 -25 5.5c-18.667 2.66699 -29 4 -31 4c-2.66699 0 -5.33398 0.333008 -8.00098 1l-4 1c-32.667 8 -47 30 -43 66l14 119h156h274h156l-16 -119
c-4 -36 -23.333 -58 -58 -66c-0.666992 0 -2.66699 -0.333008 -6 -1s-6 -1 -8 -1c-2 -0.666992 -4.5 -1.16699 -7.5 -1.5s-6.83301 -0.666016 -11.5 -0.999023s-8.66699 -0.833008 -12 -1.5c-4 -0.666992 -12.667 -2.5 -26 -5.5s-25 -5.16699 -35 -6.5l-52 -418h64
c28.667 0 50.667 3.33301 66 10c20 8.66699 36.333 20.334 49 35.001l352 387c-1.33301 0 -3.5 0.333008 -6.5 1s-5.5 1 -7.5 1c-2.66699 0 -5.33398 0.333008 -8.00098 1s-4.33398 1 -5.00098 1c-32.667 8 -47 29.333 -43 64l15 121h340h51h155l-14 -121
c-4 -34.667 -23.667 -56 -59 -64c-1.33301 0 -3.66602 -0.333008 -6.99902 -1s-6.66602 -1 -9.99902 -1c-2.66699 0 -8.66699 -0.833008 -18 -2.5s-16.333 -2.83398 -21 -3.50098c-6 -0.666992 -16.333 -2.33398 -31 -5.00098s-24.667 -4.33398 -30 -5.00098l-385 -414
c-23.333 -23.333 -40.333 -39 -51 -47c-20 -15.333 -37 -26.333 -51 -33c22 -8.66699 41 -20 57 -34c14 -12 29 -31.333 45 -58l305 -489c36 -6 55.667 -9.33301 59 -10c5.33301 -0.666992 12.166 -2 20.499 -4s13.833 -3 16.5 -3c3.33301 0 7 -0.333008 11 -1z" />
    <glyph glyph-name="L" unicode="L" horiz-adv-x="1196" 
d="M1047 354l107.998 -0.000976562l-25 -207l-6 -38l-12 -109h-49h-6h-862h-156l14 121c4 34 24 55 60 63c4 0 8 0.666992 12 2c2 0 6.83301 1 14.5 3s13.834 3.33301 18.501 4l26 4.5c13.333 2.33301 25 4.16602 35 5.49902l131 1075l-32 5.5
c-13.333 2.33301 -22.333 3.83301 -27 4.5s-10.167 1.83398 -16.5 3.50098s-10.5 2.5 -12.5 2.5c-4 1.33301 -8 2 -12 2c-32.667 8 -47 29.333 -43 64l14 121h156h274h156l-16 -121c-4 -34.667 -23.333 -56 -58 -64c-5.33301 0 -10 -0.666992 -14 -2
c-5.33301 -2 -15.666 -4 -30.999 -6l-26 -4.5c-13.333 -2.33301 -25 -4.16602 -35 -5.49902l-129 -1051h477l18 88c8 26 26 39 54 39z" />
    <glyph glyph-name="M" unicode="M" horiz-adv-x="2174" 
d="M2062 1296l-4 -0.99707c-2.66699 -0.666992 -5.33398 -1 -8.00098 -1c-2 0 -6.5 -0.833008 -13.5 -2.5s-12.833 -2.83398 -17.5 -3.50098l-27 -4.5c-14 -2.33301 -26 -4.16602 -36 -5.49902l-131 -1075l32 -5.5c13.333 -2.33301 22.333 -3.83301 27 -4.5
s10.167 -2 16.5 -4s10.5 -3 12.5 -3s4.66699 -0.333008 8 -1s5.33301 -1 6 -1c32.667 -8 47 -29 43 -63l-16 -121h-154h-244h-184l14 121c4 34 24 55 60 63c1.33301 0 6.5 0.666992 15.5 2l49 7l70.5 10l94 753c3.33301 27.333 6 46.666 8 57.999l13 65l-551 -839
c-14 -21.333 -29 -36.333 -45 -45c-20.667 -11.333 -40.667 -17 -60 -17h-39c-20.667 0 -39 5.66699 -55 17c-12.667 9.33301 -23.667 24.333 -33 45l-350 841c0 -12.667 -1.33301 -34.334 -4 -65.001c-0.666992 -6.66699 -1.33398 -16.834 -2.00098 -30.501
s-1.33398 -23.5 -2.00098 -29.5l-94 -753l68 -10l47.5 -7c9 -1.33301 14.167 -2 15.5 -2c34 -8 49 -29 45 -63l-16 -121h-185h-241h-156l14 121c4 34 24 55 60 63c0.666992 0 2.33398 0.333008 5.00098 1s5 1 7 1c8 2.66699 19 5 33 7l26 4.5
c13.333 2.33301 25 4.16602 35 5.49902l131 1075l-32 5.5c-13.333 2.33301 -22.333 3.83301 -27 4.5s-10.167 1.83398 -16.5 3.50098s-10.5 2.5 -12.5 2.5c-4 1.33301 -8 2 -12 2c-32.667 8 -47 29.333 -43 64l14 121h156h207c4 0 9.33301 -0.333008 16 -1
s11.334 -1 14.001 -1c8.66699 0 17 -1.33301 25 -4c2.66699 -0.666992 8.66699 -5.66699 18 -15c6 -6 11 -14 15 -24l342 -822c12 -34.667 19.333 -57 22 -67l10.5 -34c5 -16 8.5 -28.667 10.5 -38c10 20.667 23 45.334 39 74.001c3.33301 7.33301 7.33301 14.666 12 21.999
l15.5 24l13.5 21l538 820c3.33301 4.66699 10.333 12.667 21 24c8.66699 8.66699 15.334 13.667 20.001 15c10.667 2.66699 19 4 25 4c2 0 7 0.333008 15 1s14 1 18 1h208h154l-14 -121c-4 -34.667 -24 -56 -60 -64z" />
    <glyph glyph-name="N" unicode="N" horiz-adv-x="1818" 
d="M1626 1481l153.999 0.000976562l-15 -121c-4 -34.667 -23.667 -56 -59 -64c-1.33301 0 -3.16602 -0.333008 -5.49902 -1s-4.5 -1 -6.5 -1s-6.5 -0.833008 -13.5 -2.5s-12.833 -2.83398 -17.5 -3.50098l-28 -4.5c-14.667 -2.33301 -26.667 -4.16602 -36 -5.49902
l-155 -1278h-144c-20 0 -37.667 3.33301 -53 10c-11.333 4.66699 -23.666 17 -36.999 37l-653 985c0 -28.667 -0.666992 -49.667 -2 -63l-6 -60l-88 -706l68 -10l47.5 -7c9 -1.33301 14.167 -2 15.5 -2c34 -8 49 -29 45 -63l-16 -121h-185h-241h-156l14 121
c4 34 24 55 60 63c4 0 8 0.666992 12 2c8 2.66699 19 5 33 7l26 4.5c13.333 2.33301 25 4.16602 35 5.49902l131 1075l-32 5.5c-13.333 2.33301 -22.333 3.83301 -27 4.5s-10.167 1.83398 -16.5 3.50098s-10.5 2.5 -12.5 2.5c-2.66699 0 -5.33398 0.333008 -8.00098 1l-4 1
c-32.667 8 -47 29.333 -43 64l14 121h156h143c4 0 9.66699 -0.333008 17 -1s12 -1 14 -1c7.33301 0 14 -2 20 -6c6 -2 12.333 -6.33301 19 -13c2.66699 -2.66699 8 -10.667 16 -24l658 -990c0 31.333 0.666992 54.666 2 69.999c2.66699 30.667 4.66699 52.667 6 66l86 696
c-84 12 -127.667 18 -131 18c-32.667 8 -47 29.333 -43 64l14 121h184h244z" />
    <glyph glyph-name="O" unicode="O" horiz-adv-x="1597" 
d="M1548 741c-14.667 -112.667 -44.666 -213.668 -89.999 -303.001c-46 -90 -106.667 -169.667 -182 -239c-74 -68 -159.333 -120.667 -256 -158c-98.667 -38 -203 -57 -313 -57c-108.667 0 -208.334 19 -299.001 57c-90 38 -163.333 90.667 -220 158
c-56 67.333 -96.667 147 -122 239c-26 96.667 -32.333 197.667 -19 303c14 108 44.667 208.333 92 301c46 90 107 170 183 240c73.333 67.333 159.333 120 258 158s203 57 313 57c113.333 0 213 -19 299 -57c90 -40 162.333 -92.667 217 -158
c56.667 -68 97.667 -148 123 -240c24.667 -91.333 30 -191.666 16 -300.999zM1266 740.999c10 84 8.66699 156.332 -4 216.999c-14 64.667 -38.667 120 -74 166c-34 44 -78.333 78.333 -133 103c-54 24.667 -117.667 37 -191 37s-140 -12.333 -200 -37
c-61.333 -25.333 -114.666 -59.666 -159.999 -102.999c-44.667 -42.667 -83 -98 -115 -166c-29.333 -62.667 -49 -135 -59 -217c-10 -80.667 -8 -153.667 6 -219c13.333 -63.333 38 -118 74 -164c34 -44 79 -78.667 135 -104c51.333 -23.333 114.666 -35 189.999 -35
c77.333 0 144.333 11.667 201 35c61.333 25.333 114 60 158 104c50 50 88 104.667 114 164c28.667 66 48 139 58 219z" />
    <glyph glyph-name="P" unicode="P" horiz-adv-x="1394" 
d="M1339 1198c15.333 -55.333 18.9971 -118.668 10.9971 -190.001c-8 -70 -28 -135.667 -60 -197c-31.333 -59.333 -73.666 -110.666 -126.999 -153.999c-50.667 -40.667 -114 -74 -190 -100c-69.333 -23.333 -154.666 -35 -255.999 -35h-185l-38 -319l32 -5.5
c13.333 -2.33301 22.333 -3.83301 27 -4.5s10.5 -2 17.5 -4s11.5 -3 13.5 -3c2.66699 0 5.33398 -0.333008 8.00098 -1l4 -1c32.667 -8 47 -29 43 -63l-14 -121h-156h-274h-156l14 121c4 34 24 55 60 63c0.666992 0 2.33398 0.333008 5.00098 1s5 1 7 1c8 2.66699 19 5 33 7
l26 4.5c13.333 2.33301 25 4.16602 35 5.49902l131 1075l-32 5.5c-13.333 2.33301 -22.333 3.83301 -27 4.5s-10.167 1.83398 -16.5 3.50098s-10.5 2.5 -12.5 2.5c-4 1.33301 -8 2 -12 2c-32.667 8 -47 29.333 -43 64l14 121h156h457c97.333 0 181.666 -11.667 252.999 -35
c64 -21.333 119.333 -54 166 -98c40 -38 68.667 -88 86 -150zM1042 894.998c18 37.333 29.001 75.667 33.001 115c4 38 2 73.333 -6 106s-23 60 -45 82c-22.667 22.667 -51.334 39.667 -86.001 51c-39.333 12.667 -83 19 -131 19h-182l-66 -531h184
c48 0 92.667 6.33301 134 19c42.667 13.333 76 31 100 53c28 24 49.667 52.667 65 86z" />
    <glyph glyph-name="Q" unicode="Q" horiz-adv-x="1597" 
d="M1548 741c-7.33301 -62 -21.665 -125.332 -42.998 -189.999c-19.333 -58.667 -46 -115.334 -80 -170.001c-35.333 -57.333 -72 -105.666 -110 -144.999c-43.333 -45.333 -90.333 -84.333 -141 -117l325 -410h-227c-26 0 -54.667 5 -86 15
c-28.667 9.33301 -51.334 25.666 -68.001 48.999l-186 239c-32.667 -8.66699 -69.667 -15.334 -111 -20.001c-49.333 -5.33301 -87.333 -8 -114 -8c-108.667 0 -208.334 19 -299.001 57c-90 38 -163.333 90.667 -220 158c-56 67.333 -96.667 147 -122 239
c-26 96.667 -32.333 197.667 -19 303c14 108 44.667 208.333 92 301c46 90 107 170 183 240c73.333 67.333 159.333 120 258 158s203 57 313 57c113.333 0 213 -19 299 -57c90 -40 162.333 -92.667 217 -158c56.667 -68 97.667 -148 123 -240
c24.667 -91.333 30 -191.666 16 -300.999zM1266 741.001c10 84 8.66699 156.332 -4 216.999c-14 64.667 -38.667 120 -74 166c-34 44 -78.333 78.333 -133 103c-54 24.667 -117.667 37 -191 37s-140 -12.333 -200 -37c-61.333 -25.333 -114.666 -59.666 -159.999 -102.999
c-44.667 -42.667 -83 -98 -115 -166c-29.333 -62.667 -49 -135 -59 -217c-10 -80.667 -8 -153.667 6 -219c13.333 -63.333 38 -118 74 -164c34 -44 79 -78.667 135 -104c51.333 -23.333 114.666 -35 189.999 -35c77.333 0 144.333 11.667 201 35
c61.333 25.333 114 60 158 104c50 50 88 104.667 114 164c28.667 66 48 139 58 219z" />
    <glyph glyph-name="R" unicode="R" horiz-adv-x="1421" 
d="M1335 184c32.667 -8 47.001 -28.999 43.001 -62.999l-14 -121h-29h-127h-121c-24.667 0 -44.334 4.66699 -59.001 14s-27 23 -37 41l-254 475c-9.33301 16.667 -20 29 -32 37c-12.667 8.66699 -33.334 13 -62.001 13h-102l-47 -377l32 -5.5
c13.333 -2.33301 22.333 -3.83301 27 -4.5s10.5 -2 17.5 -4s11.5 -3 13.5 -3c2.66699 0 5.33398 -0.333008 8.00098 -1l4 -1c32.667 -8 47 -29 43 -63l-14 -121h-156h-274h-156l14 121c4 34 24 55 60 63c4 0 8 0.666992 12 2c8 2.66699 19 5 33 7l26 4.5
c13.333 2.33301 25 4.16602 35 5.49902l131 1075l-32 5.5c-13.333 2.33301 -22.333 3.83301 -27 4.5s-10.167 1.83398 -16.5 3.50098s-10.5 2.5 -12.5 2.5c-2.66699 0 -5.33398 0.333008 -8.00098 1l-4 1c-32.667 8 -47 29.333 -43 64l14 121h156h436
c98 0 183.333 -10.333 256 -31c66.667 -19.333 122 -48.666 166 -87.999c41.333 -37.333 69.333 -82.333 84 -135c15.333 -56 19.333 -113.333 12 -172c-6 -50 -19 -97.333 -39 -142c-18 -40 -44.667 -80 -80 -120c-33.333 -37.333 -70.666 -69 -111.999 -95
s-90.666 -47.667 -147.999 -65c33.333 -20 60 -48.667 80 -86l191 -344c5.33301 -0.666992 15.333 -2.33398 30 -5.00098s25 -4.33398 31 -5.00098c5.33301 -0.666992 12.166 -2 20.499 -4s13.833 -3 16.5 -3c3.33301 0 6.33301 -0.333008 9 -1zM860.001 797.001
c38 11.333 72.333 29 103 53c25.333 20 47 47.333 65 82c16.667 32.667 27 66.667 31 102c8 76.667 -9.66699 134.667 -53 174c-44 40 -117.333 60 -220 60h-161l-60 -492h158c43.333 0 89 7 137 21z" />
    <glyph glyph-name="S" unicode="S" horiz-adv-x="1179" 
d="M1049 621c14.667 -44.667 17.9971 -97.3262 9.99707 -157.993c-7.33301 -62.667 -27.333 -125 -60 -187c-32 -61.333 -71.333 -112.333 -118 -153c-51.333 -44.667 -109.333 -79 -174 -103c-63.333 -24 -137.333 -36 -222 -36h-30c-131.333 0 -270 25.667 -416 77l4 37
l43 344h8h25h84c26.667 0 41 -12 43 -36c0 -50.667 -0.666992 -107.334 -2 -170.001c57.333 -18 149.333 -27 276 -27c80.667 0 144.334 18.333 191.001 55c48 38 76 91.333 84 160c4 38 -2.33301 70 -19 96s-39.667 46.667 -69 62c-34 17.333 -69 31.666 -105 42.999
c-59.333 17.333 -99.666 29.666 -120.999 36.999c-32.667 11.333 -72.334 27.666 -119.001 48.999c-35.333 16 -68.666 41 -99.999 75c-26 28 -46.333 66.333 -61 115c-14.667 48 -18.334 104.667 -11.001 170c6 52.667 24 105.334 54 158.001
c32.667 58 69.334 103.667 110.001 137c44.667 36.667 99.334 68 164.001 94c62 24.667 131.667 37 209 37c144 0 282.667 -28 416 -84l-47 -379h-9h-24h-84c-26.667 0 -41 13 -43 39c0 49.333 0.666992 104.666 2 165.999c-46.667 22 -124.334 33 -233.001 33
c-39.333 0 -73.666 -4 -102.999 -12c-32 -11.333 -57.333 -24.333 -76 -39c-22.667 -18 -39.667 -38 -51 -60c-12 -22.667 -20 -48 -24 -76c-4 -34.667 2 -63.334 18 -86.001s40 -42.334 72 -59.001c43.333 -22.667 77.333 -37.667 102 -45l121 -41
c22 -7.33301 61.667 -24.333 119 -51c36 -16.667 69.333 -41.334 100 -74.001c31.333 -34 53.333 -70 66 -108z" />
    <glyph glyph-name="T" unicode="T" horiz-adv-x="1349" 
d="M1278 1481l32.9971 0.000976562l-43 -351h-8h-25h-84c-26.667 0 -41 13 -43 39v86h-303l-129 -1052l32 -5.5c13.333 -2.33301 22.333 -3.83301 27 -4.5s10.5 -2 17.5 -4s11.5 -3 13.5 -3c2.66699 0 5.33398 -0.333008 8.00098 -1l4 -1c32.667 -8 47 -29 43 -63l-14 -121
h-156h-274h-156l15 121c4 34 23.667 55 59 63c0.666992 0 2.33398 0.333008 5.00098 1s5 1 7 1s6.83301 1 14.5 3s13.834 3.33301 18.501 4l26 4.5c13.333 2.33301 25 4.16602 35 5.49902l129 1052h-303c-11.333 -52 -18 -80.667 -20 -86c-8 -26 -25 -39 -51 -39h-86h-25h-8
l43 351h31h2h1165z" />
    <glyph glyph-name="U" unicode="U" horiz-adv-x="1632" 
d="M1440 1481l155.002 -0.00292969l-16 -121c-4 -34.667 -23.667 -56 -59 -64c-1.33301 0 -3.33301 -0.333008 -6 -1s-5 -1 -7 -1s-6.33301 -0.833008 -13 -2.5s-12.334 -2.83398 -17.001 -3.50098l-26.5 -4.5c-13.667 -2.33301 -25.5 -4.16602 -35.5 -5.49902l-84 -684
c-9.33301 -82.667 -34 -164 -74 -244c-36.667 -73.333 -85 -138 -145 -194c-60 -54 -129.667 -96.333 -209 -127c-77.333 -30 -164.666 -45 -261.999 -45c-96.667 0 -180 15 -250 45c-70.667 30.667 -130 73 -178 127c-47.333 55.333 -80 120 -98 194
c-18.667 76 -23 157.333 -13 244l84 684l-32 5.5c-13.333 2.33301 -22.333 3.83301 -27 4.5s-10.167 1.83398 -16.5 3.50098s-10.5 2.5 -12.5 2.5c-2.66699 0 -5.33398 0.333008 -8.00098 1l-4 1c-34 8 -49 29.333 -45 64l16 121h154h276h164l-14 -121
c-4 -34.667 -23.667 -56 -59 -64c-1.33301 0 -4 -0.333008 -8 -1s-7 -1 -9 -1s-7 -0.833008 -15 -2.5s-14.667 -2.83398 -20 -3.50098s-15 -2.16699 -29 -4.5l-34 -5.5l-84 -682c-6.66699 -61.333 -5.33398 -112.666 3.99902 -153.999c10.667 -48 27.667 -87.333 51 -118
s55.333 -55.334 96 -74.001c38.667 -18 85.334 -27 140.001 -27c53.333 0 102.333 9 147 27c45.333 18 83.666 42.667 114.999 74c36.667 36.667 64 75.334 82 116.001c21.333 48.667 35 100 41 154l84 684c-6 0.666992 -13.5 1.83398 -22.5 3.50098s-16.667 3 -23 4
s-11.833 1.83301 -16.5 2.5c-5.33301 0.666992 -12 1.83398 -20 3.50098s-13 2.5 -15 2.5c-2.66699 0 -5.66699 0.333008 -9 1l-5 1c-32.667 8 -47 29.333 -43 64l14 121h164h277z" />
    <glyph glyph-name="V" unicode="V" horiz-adv-x="1681" 
d="M1573 1481l69.0029 0.000976562l-14 -121c-4 -34.667 -23.667 -56 -59 -64c-1.33301 0 -3.33301 -0.333008 -6 -1s-5 -1 -7 -1s-6.33301 -0.833008 -13 -2.5s-12.334 -2.83398 -17.001 -3.50098s-13.834 -2.16699 -27.501 -4.5l-32.5 -5.5l-673 -1278h-248l-361 1278
c-8.66699 1.33301 -19.167 3.16602 -31.5 5.49902s-20.833 3.83301 -25.5 4.5s-10.167 1.83398 -16.5 3.50098s-10.5 2.5 -12.5 2.5c-4 1.33301 -8 2 -12 2c-32.667 8 -47 29.333 -43 64l14 121h72h84h137h260l-14 -121c-4 -34.667 -23.667 -56 -59 -64
c-4.66699 0 -8.33398 -0.666992 -11.001 -2c-3.33301 -2 -10.666 -4 -21.999 -6c-2.66699 -0.666992 -7.66699 -2 -15 -4s-13.333 -3.33301 -18 -4l201 -764c9.33301 -33.333 16.666 -66 21.999 -98c9.33301 -54.667 15 -91.667 17 -111c26.667 84 54.667 153.667 84 209
l387 764c-4.66699 0.666992 -10.667 2 -18 4s-12.333 3.33301 -15 4c-10 2 -17 4 -21 6c-2.66699 1.33301 -6 2 -10 2c-32.667 8 -47 29.333 -43 64l15 121h262h137h84z" />
    <glyph glyph-name="W" unicode="W" horiz-adv-x="2353" 
d="M2247 1481h69l-14 -121c-4 -34.667 -23.667 -56 -59 -64c-0.666992 0 -2 -0.166992 -4 -0.5l-9 -1.5l-12 -2c-4 -0.666992 -12.333 -2.16699 -25 -4.5s-24 -4.16602 -34 -5.49902l-555 -1282h-248l-201 1012c-0.666992 4 -2.66699 17.667 -6 41l-4 23
c-2 11.333 -3.33301 20 -4 26c-9.33301 -24.667 -15.666 -41 -18.999 -49c-4.66699 -13.333 -10.667 -27 -18 -41l-451 -1012h-247l-242 1282c-8.66699 1.33301 -19.334 3.16602 -32.001 5.49902s-21.334 3.83301 -26.001 4.5c-4 0.666992 -7.5 1.33398 -10.5 2.00098
s-5.16699 1.16699 -6.5 1.5s-2.33301 0.5 -3 0.5c-34 8 -49 29.333 -45 64l16 121h70h84h147h252l-16 -121c-4 -34.667 -23 -56 -57 -64c-6 0 -10.333 -0.666992 -13 -2c-3.33301 -2 -10.666 -4 -21.999 -6c-20 -4 -32.333 -6.66699 -37 -8l121 -748
c2.66699 -16.667 5.33398 -40.334 8.00098 -71.001c1.33301 -20.667 3.33301 -48 6 -82c8.66699 31.333 17.667 58.666 27 81.999c3.33301 8.66699 13.333 32.334 30 71.001l400 885c9.33301 18 21.666 32.333 36.999 43c21.333 14 41.666 21 60.999 21h82
c22 0 41 -5.66699 57 -17c13.333 -12 22.333 -27.667 27 -47l180 -885c10 -42.667 17 -91 21 -145l24 76c6.66699 21.333 15 44.333 25 69l303 746c-17.333 3.33301 -44.666 9.33301 -81.999 18c-34 8 -49 29.333 -45 64l16 121h267h131h86z" />
    <glyph glyph-name="X" unicode="X" horiz-adv-x="1757" 
d="M1530 184c32.667 -8 46.999 -28.999 42.999 -62.999l-14 -121h-78h-68h-18h-189h-276l16 121c4 34 23.333 55 58 63c26.667 4.66699 47.667 9 63 13l-203 417c-1.33301 -2 -3 -5.66699 -5 -11s-3.66699 -9 -5 -11l-14 -21l-277 -368c4.66699 -0.666992 32.667 -7 84 -19
c32.667 -8 47 -29 43 -63l-14 -121h-303h-168h-12h-78h-74l14 121c4 34 24 55 60 63c28 4.66699 79.667 11 155 19l430 559l-274 516c-96.667 10.667 -148.667 16.667 -156 18c-32.667 8 -47 29.333 -43 64l15 121h75h78h11h186h287l-15 -121
c-4 -34.667 -23.667 -56 -59 -64c-13.333 -2 -27.666 -4.66699 -42.999 -8s-24.333 -5.33301 -27 -6l187 -379c8 16.667 12.667 25.667 14 27c2 2.66699 5 7 9 13s7 10.333 9 13l244 324c-4.66699 1.33301 -15.167 3.66602 -31.5 6.99902l-42.5 9c-34 8 -49 29.333 -45 64
l17 121h288h172h21h72h71l-14 -121c-4 -34.667 -23.667 -56 -59 -64c-10.667 -2 -64 -8 -160 -18l-402 -504l291 -571c88.667 -10 140 -16.333 154 -19z" />
    <glyph glyph-name="Y" unicode="Y" horiz-adv-x="1517" 
d="M1446 1481l33.001 0.000976562l-15 -121c-4 -34.667 -23.667 -56 -59 -64c-1.33301 0 -3.16602 -0.333008 -5.49902 -1s-4.5 -1 -6.5 -1s-6.5 -0.833008 -13.5 -2.5s-12.833 -2.83398 -17.5 -3.50098l-28 -4.5c-14.667 -2.33301 -26.667 -4.16602 -36 -5.49902l-503 -703
l-45 -372l32 -5.5c13.333 -2.33301 22.333 -3.83301 27 -4.5s10.167 -2 16.5 -4s10.5 -3 12.5 -3c2.66699 0 5.66699 -0.333008 9 -1l5 -1c32.667 -8 47 -29 43 -63l-16 -121h-154h-276h-154l14 121c4 34 24 55 60 63c4 0 8 0.666992 12 2c8.66699 2.66699 19 5 31 7l27 4.5
c14 2.33301 26 4.16602 36 5.49902l45 372l-332 703l-32 5.5c-13.333 2.33301 -22.333 3.83301 -27 4.5s-10.5 1.83398 -17.5 3.50098s-11.5 2.5 -13.5 2.5c-4 1.33301 -8 2 -12 2c-32.667 8 -47 29.333 -43 64l14 121h35h37h84h121h276l-14 -121
c-4 -34.667 -23.667 -56 -59 -64c-0.666992 0 -2.33398 -0.333008 -5.00098 -1s-4.66699 -1 -6 -1c-4 -2 -10 -4 -18 -6c-3.33301 -0.666992 -8.83301 -1.83398 -16.5 -3.50098s-12.5 -2.5 -14.5 -2.5l152 -358c13.333 -32.667 23.333 -60 30 -82
c15.333 -50.667 23 -76.667 23 -78c4.66699 10.667 12.167 25.5 22.5 44.5s16.5 30.167 18.5 33.5c6.66699 12.667 23 40 49 82l240 358c-16.667 3.33301 -26.334 5.33301 -29.001 6l-10.5 3.5c-5 1.66699 -8.16699 2.5 -9.5 2.5c-2.66699 1.33301 -5.66699 2 -9 2
c-32.667 8 -47 29.333 -43 64l15 121h276h121h86h37z" />
    <glyph glyph-name="Z" unicode="Z" horiz-adv-x="1402" 
d="M1315 1292l-891.001 -1073h594l18.5 72.5c5.66699 23 9.66699 39.833 12 50.5s3.83301 16.667 4.5 18c8 26 25 39 51 39h108l-20 -180l-29 -219h-1124l14 109c2.66699 16.667 6 29.334 10 38.001c7.33301 14.667 15 27 23 37l895 1078h-563
c-23.333 -93.333 -35.666 -142 -36.999 -146c-8 -26 -25.667 -39 -53 -39h-109l49 404h1096l-12 -103c-4 -29.333 -16.333 -58 -37 -86z" />
    <glyph glyph-name="bracketleft" unicode="[" horiz-adv-x="727" 
d="M37 -315l233 1898h420l-12 -98c-2 -17.333 -10.333 -32.333 -25 -45s-31.667 -19 -51 -19h-141l-193 -1573h142c20 0 35 -6 45 -18c11.333 -13.333 16 -29 14 -47l-12 -98h-420z" />
    <glyph glyph-name="backslash" unicode="\" horiz-adv-x="718" 
d="M43 1522h109c30.667 0 55.667 -7.66699 75 -23c21.333 -17.333 35.666 -39 42.999 -65l408 -1532h-107c-23.333 0 -47.666 8 -72.999 24c-23.333 14.667 -39 38 -47 70z" />
    <glyph glyph-name="bracketright" unicode="]" horiz-adv-x="729" 
d="M37 -315l12.001 97.999c2 18.667 10.333 34.334 25 47.001c14 12 31 18 51 18h141l193 1573h-142c-20.667 0 -36.334 6.33301 -47.001 19c-10 12 -14 27 -12 45l12 100h420l-233 -1900h-420z" />
    <glyph glyph-name="asciicircum" unicode="^" horiz-adv-x="1019" 
d="M975 795l-184.001 0.000976562c-16.667 0 -29 4 -37 12c-7.33301 7.33301 -14.333 17.666 -21 30.999l-127 297c-9.33301 20.667 -16.666 38.334 -21.999 53.001c-5.33301 14 -10.333 31.667 -15 53c-12 -26 -20.667 -43.667 -26 -53
c-0.666992 -0.666992 -5.16699 -7.83398 -13.5 -21.501l-19.5 -31.5l-195 -297c-8 -12 -17.333 -22.333 -28 -31c-10 -8 -25 -12 -45 -12h-193l465 686h164z" />
    <glyph glyph-name="underscore" unicode="_" horiz-adv-x="987" 
d="M905 -137l-20 -164h-807l20 164h807z" />
    <glyph glyph-name="grave" unicode="`" horiz-adv-x="557" 
d="M295 1497c25.333 0 45 -4.66699 59 -14c12 -8 22.333 -21.667 31 -41l117 -248h-146c-14 0 -29 2.66699 -45 8c-13.333 6.66699 -24 15.667 -32 27l-222 268h238z" />
    <glyph glyph-name="a" unicode="a" horiz-adv-x="1062" 
d="M975 186c34 -8 48.9971 -28.999 44.9971 -62.999l-16 -121h-127v0h-134c-31.333 0 -53 7 -65 21c-12.667 14.667 -19 33 -19 55l9 143c-49.333 -75.333 -101.333 -132.666 -156 -171.999c-56 -42 -120.333 -63 -193 -63c-38 0 -74.667 8 -110 24s-65.333 39.333 -90 70
c-25.333 29.333 -45.333 68.333 -60 117c-14.667 49.333 -22 103.666 -22 162.999c0 64 8 125.667 24 185c18 66 40 122 66 168c32 56 66.667 103.667 104 143c42 44 88.667 81.667 140 113c56.667 34.667 111.334 59 164.001 73c61.333 16.667 123.333 25 186 25
c43.333 0 91 -3.33301 143 -10c46.667 -6 93.334 -18.333 140.001 -37l-103 -821l2 2c8.66699 -1.33301 18.5 -3.33301 29.5 -6s18.167 -4.33398 21.5 -5.00098l10 -2l7.5 -1.5c1.66699 -0.333008 2.83398 -0.5 3.50098 -0.5zM697.997 567.001l39 317.999
c-24 2.66699 -41 4 -51 4c-58 0 -110.667 -13 -158 -39c-48 -26.667 -89.667 -61.667 -125 -105c-38 -48.667 -66 -99.667 -84 -153c-18.667 -53.333 -28 -115.333 -28 -186c0 -74.667 11 -128.667 33 -162c22.667 -34 54.667 -51 96 -51c26.667 0 54 9.33301 82 28
c24 16 49.333 42.667 76 80c24.667 34.667 47 74.334 67 119.001c23.333 52.667 41 101.667 53 147z" />
    <glyph glyph-name="b" unicode="b" horiz-adv-x="1120" 
d="M1067 762c10 -66 9.99902 -141.669 -0.000976562 -227.002c-10.667 -82 -29.667 -155.333 -57 -220c-27.333 -63.333 -65 -121.333 -113 -174c-44.667 -48.667 -96.667 -86.667 -156 -114c-55.333 -27.333 -119.333 -41 -192 -41c-157.333 0 -326.666 19 -507.999 57
l41 328l117 948c-6 0.666992 -13.5 1.83398 -22.5 3.50098s-16.667 3 -23 4s-11.833 1.83301 -16.5 2.5c-5.33301 0.666992 -12 1.83398 -20 3.50098s-13 2.5 -15 2.5c-2.66699 0 -5.66699 0.333008 -9 1l-5 1c-32.667 8 -47 29.333 -43 64l14 121h164h252l-74 -600
c42 40 94 75.333 156 106c52.667 26 115.334 39 188.001 39c60.667 0 112 -11.667 154 -35c43.333 -22 79.666 -56 108.999 -102c29.333 -45.333 49 -101.333 59 -168zM769.999 374.998c16.667 47.333 29 100.667 37 160c7.33301 54.667 8.66602 106.334 3.99902 155.001
c-4 40 -13.667 75 -29 105c-12.667 24.667 -33 43.667 -61 57c-25.333 12 -54 18 -86 18c-54.667 0 -101 -10.667 -139 -32c-42 -24.667 -80.333 -56.334 -115 -95.001l-68 -546c72 -12.667 139 -19 201 -19c38.667 0 74.334 7 107.001 21c31.333 13.333 60 35 86 65
c26.667 30.667 47.667 67.667 63 111z" />
    <glyph glyph-name="c" unicode="c" horiz-adv-x="980" 
d="M823 250l62.0029 -91.999c-32 -32 -66.333 -60 -103 -84c-31.333 -20.667 -67.333 -38.667 -108 -54c-34 -10.667 -71.667 -19.334 -113 -26.001c-34.667 -5.33301 -72 -8 -112 -8c-69.333 0 -129 11.333 -179 34c-54.667 24.667 -100.334 60.334 -137.001 107.001
c-38 48 -64.667 104.667 -80 170c-15.333 66 -18 143 -8 231c10 80 29.667 151 59 213c31.333 66.667 71 124 119 172c49.333 49.333 106.666 87 171.999 113c68.667 27.333 144 41 226 41c86 0 193 -25.333 321 -76l-41 -323h-8h-25h-84c-26.667 0 -41 13 -43 39
c0 43.333 0.666992 92.333 2 147c-48.667 13.333 -92.334 20 -131.001 20c-45.333 0 -85.333 -8 -120 -24c-37.333 -17.333 -68.333 -40 -93 -68c-23.333 -26.667 -43.666 -63.334 -60.999 -110.001c-18 -48 -29.667 -96 -35 -144c-6 -56 -6 -105.667 0 -149
c6 -41.333 18.333 -78.333 37 -111c17.333 -28 42 -50.333 74 -67c34 -15.333 69.333 -23 106 -23c40 0 73.667 5 101 15c25.333 9.33301 47 20 65 32c28 18.667 44.333 29.667 49 33c13.333 9.33301 28.333 14 45 14c21.333 0 35.666 -7.33301 42.999 -22z" />
    <glyph glyph-name="d" unicode="d" horiz-adv-x="1171" 
d="M1106 125l-13.999 -121h-144h-153c-17.333 0 -31 4 -41 12c-10.667 8.66699 -17 20.334 -19 35.001l-8 96c-44.667 -44.667 -98 -83.334 -160 -116.001c-57.333 -30 -123.333 -45 -198 -45c-62 0 -113.333 11.333 -154 34c-44.667 25.333 -81.667 60.333 -111 105
c-29.333 45.333 -49 101.333 -59 168c-10 67.333 -10 143.666 0 228.999c9.33301 74.667 29 147 59 217c27.333 63.333 65 121.333 113 174c42.667 46.667 94.667 85 156 115c58 28.667 122 43 192 43c56.667 0 106 -9.66699 148 -29
c42.667 -19.333 76.667 -43.666 102 -72.999l43 350l-32 5.5c-13.333 2.33301 -22.333 3.83301 -27 4.5c-15.333 2 -25.666 4 -30.999 6c-4 1.33301 -8 2 -12 2c-32.667 8 -47 29.333 -43 64l14 121h156h252l-162 -1317l30.5 -5c12.333 -2 19.166 -3 20.499 -3
c4 -0.666992 9.16699 -2 15.5 -4s10.166 -3 11.499 -3s3.33301 -0.333008 6 -1s4.66699 -1 6 -1c32.667 -8 47 -29 43 -63zM733.001 311l59.998 471.002c-25.333 36 -54 60.667 -86 74c-36 15.333 -71.667 23 -107 23c-34.667 0 -70 -7.66699 -106 -23
c-31.333 -13.333 -60 -35 -86 -65c-28 -32 -49.333 -69 -64 -111c-17.333 -48.667 -29.666 -101.334 -36.999 -158.001c-7.33301 -55.333 -8.66602 -107.666 -3.99902 -156.999c3.33301 -38 13 -72.333 29 -103c14 -26.667 34.333 -46.334 61 -59.001s55.334 -19 86.001 -19
c53.333 0 99.666 11 138.999 33c42.667 25.333 81 56.666 115 93.999z" />
    <glyph glyph-name="e" unicode="e" horiz-adv-x="966" 
d="M928 807c0 -44 -9.66406 -86.9971 -28.9971 -128.997c-18 -39.333 -51.333 -74.333 -100 -105c-44.667 -28.667 -110.334 -55 -197.001 -79c-87.333 -24.667 -193 -42.667 -317 -54v-12c0 -165.333 69.667 -248 209 -248c32 0 58.333 2.66699 79 8
c28 7.33301 48.667 14.333 62 21c14 7.33301 29.667 17 47 29l13 8.5l14.5 9.5c5 3.33301 8.83301 6 11.5 8c22 14.667 33.667 22.334 35 23.001c10.667 5.33301 23.667 8 39 8c8 0 16 -2 24 -6c8.66699 -4.66699 15.667 -10.334 21 -17.001l63 -77
c-38.667 -38.667 -74 -70.334 -106 -95.001c-36.667 -28.667 -72.334 -50.334 -107.001 -65.001c-40.667 -18 -79 -30.333 -115 -37c-40.667 -8 -84.334 -12 -131.001 -12c-62.667 0 -118.667 10 -168 30s-91.333 49.333 -126 88c-36.667 38.667 -64 84.667 -82 138
c-20.667 60.667 -31 120.667 -31 180c0 54.667 6 108.667 18 162c13.333 58 30.333 108.333 51 151c22 45.333 50 89 84 131c33.333 41.333 70.333 76.333 111 105c42.667 30 88.334 53 137.001 69c51.333 16.667 104 25 158 25s102.333 -8.33301 145 -25
c47.333 -18.667 82.333 -38.334 105 -59.001c25.333 -22 45.666 -50 60.999 -84c14 -31.333 21 -61.333 21 -90zM582.003 889.003c-34.667 0 -66.332 -7 -94.999 -21c-29.333 -14 -55.666 -33.667 -78.999 -59c-25.333 -25.333 -46 -55.333 -62 -90
c-18 -38.667 -31.667 -77.667 -41 -117c87.333 12.667 155.666 25.667 204.999 39c50 13.333 89.667 28.333 119 45c30 16.667 49 33.667 57 51c8 14.667 12 34.667 12 60c0 11.333 -2 22 -6 32s-10.667 19.667 -20 29c-14.667 11.333 -26.334 19 -35.001 23
c-12.667 5.33301 -31 8 -55 8z" />
    <glyph glyph-name="f" unicode="f" horiz-adv-x="927" 
d="M766 1505c48 0 92.335 -5.99902 133.002 -17.999l-22 -127c-4 -21.333 -14.333 -33.666 -31 -36.999c-24 -5.33301 -44.667 -8 -62 -8c-32.667 0 -60 -2.66699 -82 -8c-21.333 -5.33301 -42.333 -17 -63 -35c-18 -16 -33 -37.333 -45 -64
c-13.333 -29.333 -21.666 -61.333 -24.999 -96l-8 -70h273l-21 -180h-266l-2 -2l-23 -184l-78 -633c-8 -70.667 -25 -132.667 -51 -186c-30.667 -57.333 -65.334 -100.333 -104.001 -129c-46.667 -34 -100 -58.667 -160 -74c-60.667 -15.333 -134.334 -23 -221.001 -23v131
c0 52 26.667 78 80 78c25.333 0 50.333 4.33301 75 13c26 9.33301 46.667 20.666 62 33.999c17.333 15.333 32.333 37.333 45 66c13.333 29.333 21.666 61.333 24.999 96l77 627v4l7 61l16 119l-90 14c-20.667 4.66699 -35.667 11.667 -45 21c-10.667 10.667 -15 25 -13 43
l13 104h155l11 78c8.66699 66 24.334 120 47.001 162c28 52 58.667 92.333 92 121c39.333 33.333 83.666 58.666 132.999 75.999s105.333 26 168 26z" />
    <glyph glyph-name="g" unicode="g" horiz-adv-x="1185" 
d="M987 748c0 -28 -3.33301 -55.999 -10 -83.999c-5.33301 -23.333 -13.666 -46 -24.999 -68c-17.333 -34.667 -28 -55 -32 -61c-3.33301 -4.66699 -14.333 -24 -33 -58c-10 -17.333 -18.333 -37.666 -25 -60.999c-6.66699 -22 -10 -45.333 -10 -70
c0 -29.333 6 -55.333 18 -78l37 -71c15.333 -26.667 28.333 -53.334 39 -80.001c11.333 -27.333 17 -59.666 17 -96.999c0 -51.333 -11.667 -101 -35 -149c-22 -45.333 -55.667 -86.333 -101 -123c-42 -34.667 -95 -62 -159 -82c-65.333 -20.667 -136.333 -31 -213 -31
c-62 0 -120 6.33301 -174 19c-52.667 14.667 -96.334 33.667 -131.001 57c-40 27.333 -68 55.333 -84 84c-19.333 35.333 -29 71 -29 107c0 59.333 14.333 108.333 43 147c28 37.333 65.667 68.666 113 93.999c49.333 26 101.666 44 156.999 54c60.667 10.667 118 16 172 16
c18.667 0 46 -1.33301 82 -4c16.667 -1.33301 42 -4.66602 76 -9.99902c-0.666992 3.33301 -1.66699 8.66602 -3 15.999s-2.33301 12.666 -3 15.999c-2.66699 13.333 -4 25 -4 35c0 44 10.667 87.667 32 131c-26 -17.333 -55.333 -31 -88 -41
c-30.667 -9.33301 -70 -14 -118 -14c-36.667 0 -74.334 6.66699 -113.001 20c-33.333 10.667 -64.666 30.667 -93.999 60s-51.333 62 -66 98c-14.667 37.333 -22 84.666 -22 141.999c0 52 8.66699 101.667 26 149c16 44 44.667 87.667 86 131
c35.333 36.667 82 67.334 140 92.001c56 23.333 120 35 192 35c41.333 0 78.333 -4.66699 111 -14c34.667 -8 66.667 -21 96 -39h295l-12 -82c-2 -16.667 -7 -31 -15 -43c-7.33301 -10.667 -19 -18.334 -35 -23.001l-108 -28c2.66699 -8.66699 5.33398 -23 8.00098 -43
c1.33301 -9.33301 2 -25.666 2 -48.999zM733 -1.99902c0 3.33301 -0.331055 8.16797 -0.998047 14.501s-1 11.166 -1 14.499c-0.666992 3.33301 -1.33398 7.83301 -2.00098 13.5s-1.33398 9.83398 -2.00098 12.501c-44.667 7.33301 -78 11.666 -100 12.999
c-41.333 2.66699 -70.666 4 -87.999 4c-49.333 0 -89 -3.66699 -119 -11c-36 -8.66699 -63.333 -18.667 -82 -30c-20 -10.667 -35.667 -25 -47 -43s-17 -35.333 -17 -52c0 -42.667 16.667 -74 50 -94s83.666 -30 150.999 -30c41.333 0 76.333 4.66699 105 14
c32 10.667 59.333 23.667 82 39c22 15.333 39.667 35.666 53 60.999c12 22.667 18 47.334 18 74.001zM569.002 496.003c31.333 0 58 6.66797 80 20.001c25.333 15.333 45.333 33.666 60 54.999c13.333 18.667 24.666 45.334 33.999 80.001
c8.66699 31.333 13 60.666 13 87.999c0 52.667 -11.667 91.667 -35 117c-25.333 27.333 -60.333 41 -105 41c-30.667 0 -57.667 -6 -81 -18c-21.333 -11.333 -40.666 -29.333 -57.999 -54c-15.333 -22 -27 -47.667 -35 -77s-12 -59 -12 -89c0 -52 11.667 -92.667 35 -122
c23.333 -27.333 58 -41 104 -41z" />
    <glyph glyph-name="h" unicode="h" horiz-adv-x="1165" 
d="M1079 184c32.667 -8 47 -29.001 43 -63.001l-14 -121h-156h-252l82 668c8 64 -0.666992 113.667 -26 149s-67.666 53 -126.999 53c-43.333 0 -85.666 -10 -126.999 -30c-40.667 -20 -79.667 -46.667 -117 -80l-63 -506l-31 -254h-254l26 203l13 102l18 148l107 866
l-32.5 5.5c-13.667 2.33301 -22.834 3.83301 -27.501 4.5s-10.334 1.83398 -17.001 3.50098s-11 2.5 -13 2.5s-4.5 0.333008 -7.5 1s-4.83301 1 -5.5 1c-32.667 8 -47 29.333 -43 64l15 121h155h252l-71 -586c38.667 34 87.667 65.333 147 94c50 24.667 108.667 37 176 37
c54 0 104 -9.66699 150 -29c42 -18.667 76 -46 102 -82c23.333 -32.667 40.333 -75 51 -127c10.667 -50.667 12 -104.334 4 -161.001l-57 -465l32 -5.5c13.333 -2.33301 22.333 -3.83301 27 -4.5c9.33301 -1.33301 19 -3.66602 29 -6.99902c4 -1.33301 8 -2 12 -2z" />
    <glyph glyph-name="i" unicode="i" horiz-adv-x="577" 
d="M461 184c32.667 -8 47.001 -29.001 43.001 -63.001l-15 -121h-155h-254l26 203l78 645l-32 5.5c-13.333 2.33301 -22.333 3.83301 -27 4.5c-12.667 2 -22.334 4 -29.001 6c-2.66699 0 -5.33398 0.333008 -8.00098 1l-4 1c-34 8 -49 29.333 -45 64l16 121h154h254
l-105 -848l32.5 -5.5c13.667 -2.33301 22.834 -3.83301 27.501 -4.5c8 -1.33301 17.333 -3.66602 28 -6.99902c4 -1.33301 9 -2 15 -2zM539.001 1356c-1.33301 -19.333 -8.33203 -40.0029 -20.999 -62.0029c-8 -14.667 -22.333 -31 -43 -49c-18 -16 -36.333 -27.667 -55 -35
c-20 -8 -42 -12 -66 -12c-21.333 0 -41 4 -59 12s-33.667 19.667 -47 35c-14 16 -23.667 32.333 -29 49c-4.66699 14.667 -6 35.334 -4 62.001c1.33301 18.667 8.33301 40.334 21 65.001c8 16.667 21.333 33 40 49c18.667 16.667 36.667 28.334 54 35.001
c25.333 10 46.333 15 63 15c20 0 41.333 -5 64 -15c18 -8 33.667 -19.667 47 -35c13.333 -16 22.666 -32.333 27.999 -49c6.66699 -22 9 -43.667 7 -65z" />
    <glyph glyph-name="j" unicode="j" horiz-adv-x="784" 
d="M741 1419c4.66699 -16 5.99902 -37 3.99902 -63c-2 -20.667 -8.66699 -41.334 -20 -62.001c-9.33301 -17.333 -23 -33.666 -41 -48.999c-18 -16 -36.333 -27.667 -55 -35c-20 -8 -42 -12 -66 -12c-22.667 0 -43 4 -61 12c-16 7.33301 -31 19 -45 35
s-23.667 32.333 -29 49c-6 18 -8 38.667 -6 62c1.33301 18.667 8 39.667 20 63c8.66699 18 22.334 35 41.001 51c18 15.333 36.667 27 56 35c21.333 8.66699 42.333 13 63 13c22 0 42.667 -4.33301 62 -13c18 -8 33.667 -19.667 47 -35
c15.333 -17.333 25.333 -34.333 30 -51zM417.999 1051l252.001 -0.00292969l-133 -1086c-6 -44.667 -17 -87.667 -33 -129c-14.667 -37.333 -38.667 -72.666 -72 -105.999c-31.333 -31.333 -68 -55.333 -110 -72c-50.667 -18 -104 -27 -160 -27
c-17.333 0 -39.333 1.33301 -66 4c-4.66699 0.666992 -25 6.33398 -61 17.001l24 135c4 14 11 23 21 27s27 6 51 6c26 0 48 2 66 6s33 12 45 24c10 8 18.667 23.333 26 46c8 24.667 13.667 47.667 17 69l108 883l-32 5.5c-13.333 2.33301 -22.333 3.83301 -27 4.5
s-10.5 1.83398 -17.5 3.50098s-11.5 2.5 -13.5 2.5s-4.33301 0.333008 -7 1s-4.33398 1 -5.00098 1c-32.667 8 -47 29.333 -43 64l14 121h156z" />
    <glyph glyph-name="k" unicode="k" horiz-adv-x="1150" 
d="M1110 1051l2.00098 0.00292969l-14 -121c-4 -34.667 -24 -56 -60 -64c-6.66699 0 -12.667 -0.666992 -18 -2c-8 -2 -21 -4 -39 -6c-5.33301 -0.666992 -14.666 -2 -27.999 -4s-23.666 -3.33301 -30.999 -4l-179 -188l-13 -13.5l-15 -15.5
c-4.66699 -4.66699 -9 -8.66699 -13 -12c-18 -15.333 -32.333 -25.666 -43 -30.999c13.333 -10.667 24.333 -22.334 33 -35.001c14.667 -20 24.334 -35 29.001 -45l172 -307c33.333 -6 54.333 -9.33301 63 -10c25.333 -2.66699 39.666 -4.33398 42.999 -5.00098
c10.667 -2.66699 17.667 -4 21 -4c32.667 -8 47 -29 43 -63l-14 -121h-41h-115h-115c-18 0 -33.667 3.33301 -47 10c-14 6.66699 -25 18.334 -33 35.001l-219 399c-8.66699 17.333 -17.334 27.666 -26.001 30.999c-10 4 -25 6 -45 6h-58l-8 -69h-2l-49 -412h-254l57 453
l107 866l-32.5 5.5c-13.667 2.33301 -22.834 3.83301 -27.501 4.5c-14 2 -24 4 -30 6c-2 0 -4.5 0.333008 -7.5 1s-4.83301 1 -5.5 1c-32.667 8 -47 29.333 -43 64l15 121h155h252l-106 -871h47c17.333 0 31 2 41 6c6.66699 2.66699 17.667 11.667 33 27l167 178
c-2 0.666992 -4 1.16699 -6 1.5s-3.66699 0.666016 -5 0.999023s-2.33301 0.666016 -3 0.999023s-1.33398 0.5 -2.00098 0.5c-32.667 8 -47 29.333 -43 64l14 121h252l-2 -2c5.33301 1.33301 13 2 23 2h223z" />
    <glyph glyph-name="l" unicode="l" horiz-adv-x="514" 
d="M418 184c32.667 -8 47.002 -29.001 43.002 -63.001l-15 -121h-155h-252h-2l26 203l31 250l33 266l74 600l-32.5 5.5c-13.667 2.33301 -22.834 3.83301 -27.501 4.5s-10.334 1.83398 -17.001 3.50098s-11 2.5 -13 2.5s-4.5 0.333008 -7.5 1s-4.83301 1 -5.5 1
c-32.667 8 -47 29.333 -43 64l15 121h155h252l-162 -1319l32.5 -5.5c13.667 -2.33301 22.834 -3.83301 27.501 -4.5c11.333 -2 21.666 -4.33301 30.999 -7c4 -1.33301 8 -2 12 -2z" />
    <glyph glyph-name="m" unicode="m" horiz-adv-x="1771" 
d="M1683 184c32.667 -8 47.002 -28.999 43.002 -62.999l-14 -121h-156h-251l81 668c8 65.333 -0.666992 115.666 -26 150.999c-24 34 -64.333 51 -121 51c-24 0 -49.333 -4.66699 -76 -14c-21.333 -7.33301 -41.666 -19.666 -60.999 -36.999s-35 -38.333 -47 -63
c-14.667 -30.667 -23.667 -60 -27 -88l-24 -199l-19 -152l-12 -114l-27 -203h-254l82 668c8 72 0.666992 123 -22 153c-24.667 32.667 -64.334 49 -119.001 49c-37.333 0 -73 -8.66699 -107 -26c-32.667 -16.667 -65.334 -41.334 -98.001 -74.001l-49 -408l-45 -362h-252
l51 424l53 424l-32 5.5c-13.333 2.33301 -22.333 3.83301 -27 4.5s-10.5 1.83398 -17.5 3.50098s-11.5 2.5 -13.5 2.5c-2.66699 0 -5.33398 0.333008 -8.00098 1l-4 1c-32.667 8 -47 29.333 -43 64l14 121h156h154c33.333 0 53 -15.667 59 -47l6 -78c24 24 46 43 66 57
c30.667 21.333 53.667 35.666 69 42.999c28.667 14 54.667 24.333 78 31c30 6.66699 59.333 10 88 10c66.667 0 118.667 -17.667 156 -53c39.333 -37.333 66 -85.333 80 -144c22.667 39.333 46.334 69.666 71.001 90.999c22 20.667 51.333 40.334 88 59.001
c28.667 14.667 61.667 26.334 99 35.001c35.333 8 68.666 12 99.999 12c58 0 108.667 -9 152 -27c44 -18.667 78.667 -44.334 104 -77.001c26.667 -34.667 45 -76.334 55 -125.001c10 -47.333 10.667 -104 2 -170l-55 -465c8.66699 -1.33301 19.167 -3.16602 31.5 -5.49902
s20.833 -3.83301 25.5 -4.5c12 -2 22.333 -4.33301 31 -7c4 -1.33301 8 -2 12 -2z" />
    <glyph glyph-name="n" unicode="n" horiz-adv-x="1210" 
d="M1124 184c32.667 -8 46.999 -29.001 42.999 -63.001l-14 -121h-156h-254l82 668c8 65.333 0 115 -24 149c-25.333 35.333 -67.666 53 -126.999 53c-44 0 -86.333 -10 -127 -30c-43.333 -21.333 -83 -48 -119 -80l-41 -334l-6 -49l-21 -174l-26 -203h-252l37 305l67 543
l-32 5.5c-13.333 2.33301 -22.333 3.83301 -27 4.5s-10.5 1.83398 -17.5 3.50098s-11.5 2.5 -13.5 2.5c-4 1.33301 -8 2 -12 2c-32.667 8 -47 29.333 -43 64l14 121h156h154c33.333 0 53 -15.667 59 -47l8 -82c25.333 23.333 50 43 74 59c31.333 20.667 58 35.667 80 45
c42 17.333 71.333 27.666 88 30.999c34.667 6.66699 68 10 100 10c58.667 0 108.667 -9.66699 150 -29c40 -17.333 73.333 -44.666 100 -81.999c23.333 -32.667 40.333 -75 51 -127c10.667 -50.667 12 -104.334 4 -161.001l-57 -465l32 -5.5
c13.333 -2.33301 22.333 -3.83301 27 -4.5c9.33301 -1.33301 19 -3.66602 29 -6.99902c4 -1.33301 8.66699 -2 14 -2z" />
    <glyph glyph-name="o" unicode="o" horiz-adv-x="1132" 
d="M631 1067c76 0 145.667 -13.002 209 -39.002c61.333 -25.333 111 -60.666 149 -105.999c40.667 -49.333 68.667 -106 84 -170c16.667 -69.333 20 -144 10 -224c-9.33301 -80.667 -31 -155.667 -65 -225c-33.333 -68.667 -75 -126 -125 -172
c-52 -48 -110.667 -84 -176 -108c-67.333 -24.667 -140.333 -37 -219 -37c-79.333 0 -149 12.333 -209 37c-63.333 26 -114 62 -152 108c-40.667 48.667 -68.667 106 -84 172c-16 69.333 -19.333 144.333 -10 225c9.33301 78.667 31.333 153.334 66 224.001
c30.667 64 73 120.667 127 170c50 46 108.667 81.333 176 106c70.667 26 143.667 39 219 39zM522 179.998c88 0 156.333 29.333 205 88s80 144.667 94 258c14 114.667 4 200.667 -30 258c-35.333 60 -96.333 90 -183 90c-89.333 0 -159 -30 -209 -90
c-48.667 -58 -80 -144.667 -94 -260c-14 -112.667 -3.66699 -198 31 -256c34.667 -58.667 96.667 -88 186 -88z" />
    <glyph glyph-name="p" unicode="p" horiz-adv-x="1316" 
d="M1266 762c10 -66.667 9.99805 -142.334 -0.00195312 -227.001c-10 -75.333 -30 -148.666 -60 -219.999c-28.667 -67.333 -65.334 -125.333 -110.001 -174c-40.667 -44 -93.334 -82 -158.001 -114c-55.333 -27.333 -119.666 -41 -192.999 -41
c-60.667 0 -109.667 8.66699 -147 26s-70.666 42.666 -99.999 75.999l-29 -227c9.33301 -1.33301 20.5 -3.66602 33.5 -6.99902s21.5 -5.33301 25.5 -6c3.33301 -0.666992 7.33301 -1.16699 12 -1.5s8.16699 -0.666016 10.5 -0.999023s4.5 -0.833008 6.5 -1.5
c4 -1.33301 8 -2 12 -2c34 -8 49 -29.667 45 -65l-16 -119h-154h-254h-153l14 119c4 35.333 24 57 60 65c0.666992 0 2.33398 0.333008 5.00098 1s5 1 7 1s12.333 1.33301 31 4c4 0.666992 12.667 2.66699 26 6s25 5.66602 35 6.99902l123 987l-32 5.5
c-13.333 2.33301 -22.333 3.83301 -27 4.5s-10.5 1.83398 -17.5 3.50098s-11.5 2.5 -13.5 2.5c-2.66699 0 -5.33398 0.333008 -8.00098 1l-4 1c-32.667 8 -47 29.333 -43 64l14 121h155h154c16.667 0 30.334 -4.33301 41.001 -13c10 -8 16 -19.333 18 -34l9 -97
c45.333 45.333 99 84.333 161 117c57.333 30 123 45 197 45c60.667 0 112 -11.667 154 -35c44.667 -24.667 81.334 -59.334 110.001 -104.001c30 -46.667 50 -102.667 60 -168zM966.998 375c17.333 48.667 29.668 101 37.001 157c7.33301 55.333 8.66602 108 3.99902 158
c-3.33301 38 -13 72.333 -29 103c-14 27.333 -33.667 47 -59 59s-55 18 -89 18c-54.667 0 -101 -10.667 -139 -32c-40 -24 -78 -55.667 -114 -95l-58 -471c25.333 -36 53.333 -60.333 84 -73c36 -15.333 71.667 -23 107 -23c34.667 0 70 7.66699 106 23
c31.333 13.333 60 35 86 65c28 32 49.333 69 64 111z" />
    <glyph glyph-name="q" unicode="q" horiz-adv-x="1122" 
d="M1040 -160c32.667 -8 47.002 -28.999 43.002 -62.999l-14 -121h-162h-254h-155l16 121c4 34 23 55 57 63c6 0 11 0.666992 15 2c6 2 16 4 30 6c4 0.666992 12.833 2.33398 26.5 5.00098s25.5 4.66699 35.5 6l35 272c-39.333 -37.333 -91.333 -72 -156 -104
c-56 -27.333 -118.667 -41 -188 -41c-58 0 -109.333 12.333 -154 37c-47.333 26 -84.333 60 -111 102c-29.333 46 -49 101.333 -59 166c-10 66 -10 142.333 0 229c9.33301 74.667 29 147 59 217c27.333 63.333 65 121.333 113 174s100 91.667 156 117
c60 27.333 124 41 192 41c157.333 0 326.666 -19 507.999 -57l-41 -330l-100 -823c8 -1.33301 18.833 -3.33301 32.5 -6s23.167 -4.33398 28.5 -5.00098s11.666 -1.83398 18.999 -3.50098s12 -2.5 14 -2.5c2.66699 0 5.66699 -0.333008 9 -1zM618.002 217.001
c45.333 26.667 83.667 57.3359 115 92.0029l68 547c-79.333 14 -146.333 21 -201 21c-34.667 0 -70 -7.66699 -106 -23c-30.667 -12.667 -59.334 -34.667 -86.001 -66c-28 -32.667 -49.333 -69.334 -64 -110.001c-17.333 -48.667 -29.666 -101.334 -36.999 -158.001
c-7.33301 -54.667 -8.66602 -106.334 -3.99902 -155.001c4 -40 13.667 -75 29 -105c14 -27.333 33.667 -47 59 -59c26.667 -12.667 56 -19 88 -19c51.333 0 97.666 11.667 138.999 35z" />
    <glyph glyph-name="r" unicode="r" horiz-adv-x="917" 
d="M754 1069c54.667 0 96.333 -11.668 125 -35.001l-56 -190c-4 -12.667 -10 -21 -18 -25c-7.33301 -5.33301 -17 -8 -29 -8c-11.333 0 -25 2 -41 6c-21.333 5.33301 -44.333 8 -69 8c-52.667 0 -99.334 -14.333 -140.001 -43c-38 -26.667 -74.667 -69.667 -110 -129
l-45 -364l-37 -289h-252l24 203l15 121l10 71l55 453c-57.333 10.667 -91.333 16.667 -102 18c-32.667 8 -47 29.333 -43 64l14 121h156h147c28 0 46 -5 54 -15c9.33301 -11.333 14 -27.666 14 -48.999v-127c43.333 64 94 115.333 152 154
c54.667 36.667 113.334 55 176.001 55z" />
    <glyph glyph-name="s" unicode="s" horiz-adv-x="899" 
d="M819 442c11.333 -36 14.6699 -72 10.0029 -108c-6 -53.333 -21 -100.333 -45 -141c-26 -44.667 -57.333 -81.667 -94 -111c-40.667 -32.667 -87.667 -56.667 -141 -72c-52.667 -17.333 -113.334 -26 -182.001 -26c-122.667 0 -231.334 19 -326.001 57l12 102l23 195h10
h25h84c26.667 0 41 -13 43 -39c0 -26 -0.666992 -66.333 -2 -121c35.333 -10.667 89.666 -16 162.999 -16c28 0 54.667 3.33301 80 10c21.333 7.33301 40 17 56 29c17.333 13.333 29.333 26.333 36 39c8 16 13 32.333 15 49c2 23.333 -3 43 -15 59
c-10.667 14.667 -28.334 28.334 -53.001 41.001c-27.333 14.667 -53.333 25 -78 31l-92 31c-22.667 7.33301 -52.667 20 -90 38c-31.333 15.333 -56.666 34 -75.999 56c-24.667 28.667 -41 56 -49 82c-10.667 36 -13.334 75.333 -8.00098 118
c6.66699 46.667 20.334 87.667 41.001 123c24.667 42 54 76.333 88 103c38.667 30 83 53 133 69c57.333 18 115.333 27 174 27c52.667 0 98.5 -3.5 137.5 -10.5s92.833 -21.833 161.5 -44.5l-37 -297h-8h-24h-86c-26.667 0 -41 13 -43 39c0 22.667 0.666992 60.667 2 114
c-31.333 10 -71.666 15 -120.999 15c-48.667 0 -89 -10.333 -121 -31c-31.333 -20 -49 -48 -53 -84c-2 -22.667 2.66699 -41.667 14 -57c9.33301 -12.667 27 -25.667 53 -39c31.333 -16 57.333 -27 78 -33c10 -2.66699 40.667 -12.334 92 -29.001
c14.667 -4.66699 44 -17.667 88 -39c29.333 -14 54.666 -31.667 75.999 -53c22.667 -20 39 -45.333 49 -76z" />
    <glyph glyph-name="t" unicode="t" horiz-adv-x="780" 
d="M367 -16c-90.667 0 -157.668 25.665 -201.001 76.998c-42.667 50.667 -59 121.667 -49 213l73 586h-106c-14 0 -25.667 4.66699 -35 14c-8.66699 8.66699 -12 21.667 -10 39l12 103l172 26l90 287c3.33301 10.667 11 21 23 31c10 8 23 12 39 12h131l-41 -332h276
l-22 -180h-277l-69 -569c-4 -33.333 0.666992 -58.666 14 -75.999c14 -18 35.333 -27 64 -27c17.333 0 30 1.66699 38 5c2 0.666992 6.83301 2.5 14.5 5.5l16.5 6.5c8 4 15 8 21 12c4 2.66699 10.667 4 20 4c8.66699 0 14.334 -1.33301 17.001 -4
c8 -8 12.667 -13.333 14 -16l61 -123c-39.333 -29.333 -85 -52.666 -137 -69.999c-49.333 -16 -99 -24 -149 -24z" />
    <glyph glyph-name="u" unicode="u" horiz-adv-x="1210" 
d="M1124 184c32.667 -8 47.0059 -29.002 43.0059 -63.002l-14 -121h-156h-155c-32.667 0 -52 15.667 -58 47l-8 84c-26 -24 -50.667 -44.333 -74 -61c-26.667 -19.333 -53 -34.333 -79 -45c-32 -13.333 -62.333 -23.666 -91 -30.999
c-34.667 -6.66699 -67.334 -10 -98.001 -10c-56.667 0 -106.334 9.33301 -149.001 28c-36.667 16 -70.334 44 -101.001 84c-24.667 32 -42.334 73.667 -53.001 125c-9.33301 47.333 -10 101.333 -2 162l57 465c-57.333 10.667 -91.333 16.667 -102 18
c-32.667 8 -47 29.333 -43 64l14 121h156h252l-82 -668c-8 -63.333 1 -113.333 27 -150c24 -34 66.333 -51 127 -51c40.667 0 83 9.66699 127 29c37.333 16.667 76.666 43.334 117.999 80.001l68 557l-49.5 8.5c-13.667 2.33301 -22.834 4 -27.501 5
s-8.83398 1.83301 -12.501 2.5l-10.5 2c-34.667 8.66699 -50 30 -46 64l17 121h153h254l-104 -848l49.5 -9c14.333 -2.66699 23.833 -4.5 28.5 -5.5s8.83398 -1.83301 12.501 -2.5z" />
    <glyph glyph-name="v" unicode="v" horiz-adv-x="1296" 
d="M1188 1051h67l-14 -121c-4 -34.667 -23.667 -56 -59 -64l-10 -2l-12 -2.5c-4.66699 -1 -13.667 -2.66699 -27 -5l-50 -8.5l-440 -848h-229l-234 848c-18.667 3.33301 -34.667 6.33301 -48 9s-22 4.5 -26 5.5s-7.5 1.66699 -10.5 2s-6.16699 0.833008 -9.5 1.5
c-34 8 -49 29.333 -45 64l16 121h68h209h233l-14 -121c-4 -34.667 -23.667 -56 -59 -64l-58 -10l99 -414c8 -33.333 14 -65.333 18 -96c2.66699 -20 5.33398 -51.333 8.00098 -94c11.333 35.333 22.333 66.666 33 93.999c9.33301 24 23.666 56 42.999 96l203 412l-36 6.5
l-20 3.5c-4 0.666992 -7.33301 1.33398 -10 2.00098c-34 8 -49 29.333 -45 64l16 121h244h199z" />
    <glyph glyph-name="w" unicode="w" horiz-adv-x="1869" 
d="M1747 1051l83.999 -0.00488281l-14 -121c-4 -34.667 -24 -56 -60 -64c-2 0 -35.333 -6 -100 -18l-373 -848h-203c-22.667 0 -37 15 -43 45l-114 606c-4 18.667 -7 39.334 -9 62.001c-0.666992 4.66699 -1.5 11 -2.5 19s-1.83301 15.167 -2.5 21.5s-1 12.5 -1 18.5
c-8.66699 -29.333 -15.334 -49.666 -20.001 -60.999l-25 -62l-266 -604c-11.333 -30 -31 -45 -59 -45h-195l-164 848l-48.5 8.5c-13 2.33301 -21.5 4 -25.5 5s-7.5 1.83301 -10.5 2.5s-6.16699 1.33398 -9.5 2.00098c-34 8 -49 29.333 -45 64l16 121h84h201h225l-14 -121
c-4 -34.667 -23.667 -56 -59 -64c-0.666992 0 -6.66699 -1.16699 -18 -3.5s-26.666 -5.16602 -45.999 -8.49902l59 -412c6.66699 -53.333 10.334 -83.333 11.001 -90c0.666992 -10 1 -24.667 1 -44s0.333008 -34 1 -44c4 11.333 10.833 28 20.5 50s15.167 34.667 16.5 38
c2.66699 6 8 19.5 16 40.5s14.667 37.5 20 49.5l244 564c6 13.333 15.667 24 29 32c17.333 10 32.333 15 45 15h111c17.333 0 32.333 -5 45 -15c11.333 -9.33301 18 -20 20 -32l102 -574c2 -10.667 6.33301 -39.334 13 -86.001c1.33301 -10 3 -24 5 -42s3.66699 -32 5 -42
c8.66699 32 17.667 61.333 27 88c8.66699 25.333 20 56 34 92l164 410c-12 2 -22.667 4 -32 6s-15.833 3.33301 -19.5 4s-7 1.33398 -10 2.00098s-6.16699 1.33398 -9.5 2.00098c-32.667 8 -47 29.333 -43 64l14 121h235h193z" />
    <glyph glyph-name="x" unicode="x" horiz-adv-x="1259" 
d="M1083 184c32.667 -8 47.0029 -29.002 43.0029 -63.002l-14 -121h-8h-90h-58h-96h-205l17 121c4 34 22.333 55 55 63l-113 228c-7.33301 -22.667 -18 -43.334 -32 -62.001l-127 -164c1.33301 0 3.33301 -0.333008 6 -1s4.66699 -1 6 -1c32.667 -8 47 -29 43 -63l-14 -121
h-222h-79h-56h-92h-6l14 121c4 34 24 55 60 63l23 4c15.333 3.33301 37 7 65 11l270 342l-172 311c-17.333 2.66699 -32 5.16699 -44 7.5s-20.333 3.83301 -25 4.5s-9 1.33398 -13 2.00098c-34 8 -49 29.333 -45 64l16 121v0h244h211l-14 -121c-4 -34.667 -24 -56 -60 -64
l101 -200c1.33301 4 6.66602 15.333 15.999 34c2 4.66699 6.16699 11 12.5 19l12.5 16l96 127c-2 0.666992 -4.66699 1.33398 -8 2.00098s-6 1.33398 -8 2.00098c-32.667 8 -47 29.333 -43 64l14 121h221h2h232h2l-17 -121c-4 -34.667 -23 -56 -57 -64
c-2.66699 -0.666992 -6.83398 -1.5 -12.501 -2.5s-14.834 -2.5 -27.501 -4.5s-29.334 -4.33301 -50.001 -7l-246 -299l188 -354c24.667 -4 44.334 -7.5 59.001 -10.5s23 -4.5 25 -4.5z" />
    <glyph glyph-name="y" unicode="y" horiz-adv-x="1290" 
d="M1190 1051h61.0039l-14 -121c-4 -34.667 -23.667 -56 -59 -64l-10 -2l-12 -2.5c-4.66699 -1 -13.667 -2.66699 -27 -5l-50 -8.5l-626 -1137c-10.667 -18.667 -22.334 -32.334 -35.001 -41.001c-9.33301 -8 -28 -12 -56 -12h-188l248 420l-242 770l-47.5 8.5
c-13 2.33301 -21.5 4 -25.5 5s-7.66699 1.83301 -11 2.5l-10 2c-34 8 -49 29.333 -45 64l16 121h60h221h229l-14 -121c-4 -34.667 -23.667 -56 -59 -64l-15 -2c-10 -1.33301 -21.667 -3.33301 -35 -6l117 -399c2 -5.33301 3.66699 -11.166 5 -17.499
s2.66602 -13.333 3.99902 -21l3 -17.5c0.666992 -4 3 -23 7 -57c3.33301 8 8.16602 18.667 14.499 32s10.166 21.666 11.499 24.999c10.667 24.667 19.667 43.334 27 56.001l203 395l-68 12c-32.667 8 -47 29.333 -43 64l14 121h248h203z" />
    <glyph glyph-name="z" unicode="z" horiz-adv-x="1034" 
d="M911 344h10.999l-43 -344h-29h-4h-807l12 106c2 10.667 7 24.334 15 41.001c10.667 21.333 20.667 36.666 30 45.999l586 663h-330c-4.66699 -20.667 -9 -38.667 -13 -54s-7 -27.333 -9 -36l-4 -12c-8 -26 -25.333 -39 -52 -39h-84h-24h-10l41 323v13h796l-12 -105
c-2 -16 -7.33301 -33 -16 -51s-17.667 -32.333 -27 -43l-582 -657h369c4.66699 22 9 41.5 13 58.5s6.83301 29.333 8.5 37s2.83398 12.5 3.50098 14.5c8 26 25.667 39 53 39h84h24z" />
    <glyph glyph-name="braceleft" unicode="{" horiz-adv-x="712" 
d="M145 420c4 41.333 -2.00195 75.3281 -18.002 101.995c-15.333 26 -44.666 39 -87.999 39l18 148c44 0 77 13 99 39c23.333 27.333 37 61.333 41 102c4 33.333 6 64.666 6 93.999c0 20 -1.33301 52 -4 96s-4 76.333 -4 97c0 34 2 67.333 6 100c6 51.333 19 98.333 39 141
c19.333 41.333 47.333 78.333 84 111c34 30 76.333 53.333 127 70c53.333 17.333 110 26 170 26h53l-12 -112c-2 -9.33301 -5.66699 -17.666 -11 -24.999c-2.66699 -4 -8 -8.66699 -16 -14c-9.33301 -6 -15.666 -9.66699 -18.999 -11c-4 -1.33301 -9.33301 -2 -16 -2h-8
c-50 0 -89 -15 -117 -45c-29.333 -31.333 -47 -73 -53 -125c-4 -36.667 -6 -72.667 -6 -108v-101c0 -11.333 0.333008 -27.333 1 -48s1 -36 1 -46c0 -30.667 -2 -62.667 -6 -96c-4 -26 -11 -50.667 -21 -74c-10.667 -24.667 -23.667 -45.667 -39 -63
c-16.667 -18.667 -35 -35 -55 -49s-44 -24.333 -72 -31c24.667 -8 46 -19 64 -33c14 -11.333 28.333 -27.666 43 -48.999c11.333 -17.333 19.333 -38.666 24 -63.999c4.66699 -27.333 5.33398 -51.666 2.00098 -72.999c-4 -30.667 -10 -62 -18 -94
c-16 -63.333 -24.333 -95.666 -25 -96.999c-13.333 -54.667 -21.333 -88 -24 -100c-11.333 -51.333 -18.333 -87.666 -21 -108.999c-6 -52.667 1.66699 -93.334 23 -122.001c22.667 -30.667 57.334 -46 104.001 -46h11c2.66699 0 8 -1.33301 16 -4
c5.33301 -2 10.666 -4.66699 15.999 -8c6.66699 -4.66699 11 -10 13 -16c3.33301 -9.33301 4 -17.666 2 -24.999l-15 -110h-53c-64.667 0 -119.334 8 -164.001 24c-46 16 -82.667 40 -110 72c-28 32 -46.667 68 -56 108s-10.666 88 -3.99902 144
c3.33301 26 9.66602 58.667 18.999 98c8 34 16.667 66 26 96c18 60.667 27.667 93 29 97c8.66699 34.667 14.667 66.667 18 96z" />
    <glyph glyph-name="bar" unicode="|" horiz-adv-x="507" 
d="M164 1585h196v-1929h-196v1929z" />
    <glyph glyph-name="braceright" unicode="}" horiz-adv-x="712" 
d="M514 420c-2.66699 -22 -3.99707 -53.9961 -3.99707 -95.9961c0 -42.667 0.666992 -75 2 -97c2.66699 -44 4 -76 4 -96c0 -34 -2 -67.333 -6 -100c-6 -52 -19 -99.333 -39 -142c-18 -38 -46 -74 -84 -108c-37.333 -32.667 -79 -56.667 -125 -72
c-49.333 -16 -106.666 -24 -171.999 -24h-53l14 110c3.33301 14 6 22.333 8 25c4 5.33301 9.66699 10.666 17 15.999c4 2.66699 10 5.33398 18 8.00098s13.667 4 17 4h10c48 0 86.333 15.333 115 46c29.333 31.333 47 72 53 122c4 37.333 6 73.666 6 108.999v100v94
c0 42.667 1.33301 75 4 97c4 26.667 10.667 50.334 20 71.001c12.667 28.667 25.667 50.667 39 66c19.333 21.333 38 37.666 56 48.999c24 14.667 47.667 25.667 71 33c-22 5.33301 -43 15.666 -63 30.999c-14 11.333 -28.333 27.666 -43 48.999
c-12.667 19.333 -21 40.333 -25 63c-4.66699 26.667 -5.33398 51.334 -2.00098 74.001c3.33301 25.333 9.66602 56.666 18.999 93.999l24 96c2 7.33301 5.83301 22.666 11.5 45.999l13.5 55c10.667 46 17.334 82 20.001 108c6 55.333 -1.33301 97 -22 125
c-22 30 -57 45 -105 45h-8c-6.66699 0 -12 0.666992 -16 2c-0.666992 0 -6.33398 3.66699 -17.001 11c-8 5.33301 -12.667 10 -14 14c-3.33301 9.33301 -4 17.666 -2 24.999l14 112h54c61.333 0 116.333 -8.66699 165 -26c46.667 -16.667 83 -40 109 -70
c26.667 -30.667 45 -67.667 55 -111c10 -42.667 12 -89.667 6 -141c-2.66699 -23.333 -9.33398 -56.666 -20.001 -99.999c-6.66699 -26 -15.667 -58.333 -27 -97c-5.33301 -18 -14 -50 -26 -96c-10 -40.667 -16.333 -72.667 -19 -96c-4 -40.667 1.66699 -74 17 -100
s44.666 -39 87.999 -39l-17 -148c-44.667 0 -78 -13 -100 -39c-23.333 -27.333 -37 -61.333 -41 -102z" />
    <glyph glyph-name="asciitilde" unicode="~" horiz-adv-x="1146" 
d="M750 664c38.667 0 69.999 12.0029 93.999 36.0029c22 22 36.333 57 43 105h205c-5.33301 -45.333 -18.333 -93 -39 -143c-18 -42.667 -42.667 -79.667 -74 -111c-30.667 -30.667 -66.334 -54 -107.001 -70c-41.333 -16 -85.666 -24 -132.999 -24
c-37.333 0 -71.333 4.66699 -102 14c-37.333 11.333 -67.333 21.666 -90 30.999l-80 33c-23.333 9.33301 -46.666 14 -69.999 14c-38 0 -69.333 -12.333 -94 -37c-24 -24 -39 -58.667 -45 -104h-203c5.33301 45.333 18.333 93 39 143c16 38.667 40.667 74.667 74 108
c34.667 34.667 69.334 58.667 104.001 72c42.667 16.667 88 25 136 25c35.333 0 69.333 -5 102 -15c12.667 -4 29.5 -9.83301 50.5 -17.5l39.5 -14.5c10.667 -4.66699 25 -10.334 43 -17.001s30.333 -11.334 37 -14.001c23.333 -9.33301 46.666 -14 69.999 -14z" />
    <glyph glyph-name="uni00A0" unicode="&#xa0;" horiz-adv-x="180" 
 />
    <glyph glyph-name="exclamdown" unicode="&#xa1;" horiz-adv-x="520" 
d="M45 -344l68 546.999c10.667 82.667 20.667 143.334 30 182.001l50 190h169c2.66699 -99.333 3.66699 -162.666 3 -189.999c-2 -60.667 -7 -121.334 -15 -182.001l-67 -547h-238zM160 912.999c2 20.667 8.66602 41.332 19.999 61.999c8 14.667 20.333 30.334 37 47.001
c13.333 13.333 31 24.333 53 33c20 8 41.333 12 64 12c21.333 0 41 -4 59 -12c20 -8.66699 35 -19 45 -31c11.333 -13.333 20.333 -29.666 27 -48.999c6 -18 8 -38.667 6 -62c-2 -20 -8.66699 -40.333 -20 -61c-9.33301 -16.667 -22.333 -32.334 -39 -47.001
c-16 -14 -34 -25 -54 -33s-40.333 -12 -61 -12c-22.667 0 -43 4 -61 12c-19.333 8.66699 -34.666 19.667 -45.999 33s-20 29 -26 47c-4.66699 14.667 -6 35 -4 61z" />
    <glyph glyph-name="cent" unicode="&#xa2;" horiz-adv-x="989" 
d="M827 246l62.002 -90.001c-34 -34 -67.667 -62 -101 -84c-31.333 -20.667 -67.333 -38.667 -108 -54c-34 -10.667 -71.667 -19.334 -113 -26.001c-41.333 -5.33301 -71.333 -8 -90 -8l-22 -119l-6 -29c-4 -16 -13 -31 -27 -45c-15.333 -13.333 -32.333 -20 -51 -20h-92
l26 135l21 94c-12 4 -28.667 10 -50 18c-54.667 24.667 -100.334 60.334 -137.001 107.001c-40 50.667 -67.333 107.334 -82 170.001c-15.333 66 -18 143 -8 231c10 78 30 149 60 213c32 68 71.333 125.333 118 172c48.667 48.667 106.667 86.334 174 113.001
c47.333 19.333 96 31.666 146 36.999l20 96l15 66c4.66699 18.667 12.667 33.667 24 45c12 12 29 18 51 18h95l-33 -147v-2l-17 -76c54 -6 135.333 -30 244 -72l-39 -323h-8h-25h-86c-26.667 0 -41 13 -43 39c0 16 1 65 3 147c-37.333 10 -65.333 16 -84 18l-2 -6l-144 -688
h8c40.667 0 73.667 4.66699 99 14c26 10 48.333 21 67 33c28 18.667 44.333 29.667 49 33c13.333 9.33301 27.666 14 42.999 14c20.667 0 35 -8 43 -24zM307.002 376.999c5.33301 -38.667 18.335 -75.666 39.002 -110.999c8 -12 17.667 -23.667 29 -35l55 273l74 346h-4
l-2 -2c-34.667 -16 -65.334 -39.333 -92.001 -70c-28 -32 -49.333 -68 -64 -108c-16 -42.667 -27 -91.334 -33 -146.001c-6.66699 -60.667 -7.33398 -109.667 -2.00098 -147z" />
    <glyph glyph-name="sterling" unicode="&#xa3;" horiz-adv-x="1294" 
d="M106 696c2 22.667 11.665 42.665 28.998 59.998c16 16 38.667 24 68 24h110l29 242c8.66699 68 25.667 128.667 51 182c28.667 60.667 64.334 111.334 107.001 152.001c46 44 98.333 78 157 102c63.333 26 134.333 39 213 39c56.667 0 104.667 -6.66699 144 -20
c42 -14 78 -33.333 108 -58c35.333 -28.667 61.333 -56.667 78 -84c24 -39.333 41 -74.666 51 -105.999l-108 -64c-24.667 -10.667 -45.334 -16 -62.001 -16c-26.667 0 -47.667 11 -63 33c-11.333 16 -22.333 30.333 -33 43c-9.33301 11.333 -21.666 21.333 -36.999 30
c-24.667 14 -39.667 21.667 -45 23c-16 4 -35.667 6 -59 6c-68 0 -123.333 -23.333 -166 -70c-40.667 -44.667 -66 -108 -76 -190l-31 -244h420l-12 -100c-2 -14 -11 -29 -27 -45c-14 -14 -31.667 -21 -53 -21h-348l-25 -198c-6 -46 -19 -86.333 -39 -121
c-18 -31.333 -45 -64 -81 -98c50.667 12 101.667 18 153 18h600l-12 -106c-2 -11.333 -6.66699 -24.333 -14 -39c-6.66699 -13.333 -15 -25 -25 -35c-9.33301 -10 -22.333 -18.333 -39 -25c-15.333 -6.66699 -30.333 -10 -45 -10h-983l20 160c28.667 6.66699 52 14 70 22
c22.667 10 42.334 22.333 59.001 37c18.667 16.667 34 35 46 55s20 44.667 24 74l33 266h-197z" />
    <glyph glyph-name="currency" unicode="&#xa4;" horiz-adv-x="1130" 
d="M186 688c3.33301 29.333 12.332 64.3311 26.999 104.998c9.33301 25.333 26.333 56 51 92l-137 155l143 123l133 -151c27.333 16 61 29.667 101 41c32.667 9.33301 68 14 106 14c32.667 0 67 -4.66699 103 -14c24 -6 52.667 -19 86 -39l174 155l110 -125l-172 -155
c12.667 -26.667 22.334 -58 29.001 -94c6 -31.333 6.66699 -67 2 -107c-2.66699 -26 -11.667 -60 -27 -102c-10 -26.667 -26.333 -56.667 -49 -90l138 -156l-144 -127l-137 156c-29.333 -17.333 -62 -31 -98 -41c-39.333 -11.333 -75 -17 -107 -17c-28 0 -61.333 5 -100 15
c-24 6 -52.667 19 -86 39l-176 -156l-111 127l174 153c-14.667 30.667 -25 62.334 -31 95.001c-5.33301 30.667 -6 65.334 -2 104.001zM372.999 687.998c-2.66699 -20 -0.666992 -44.668 6 -74.001c5.33301 -21.333 16.333 -41.666 33 -60.999
c15.333 -17.333 34.333 -31 57 -41c24.667 -10.667 48.667 -16 72 -16c24.667 0 50.334 5.33301 77.001 16c20 8 42 21.667 66 41c21.333 17.333 37.666 37.666 48.999 60.999c13.333 28 21.666 52.667 24.999 74c4 26.667 2 52.667 -6 78c-8 24.667 -19 45 -33 61
c-15.333 17.333 -34.333 31 -57 41c-26 11.333 -50.667 17 -74 17c-22.667 0 -48 -5.66699 -76 -17c-19.333 -8 -41.333 -21.667 -66 -41c-21.333 -17.333 -37.666 -37.666 -48.999 -60.999c-12 -25.333 -20 -51.333 -24 -78z" />
    <glyph glyph-name="yen" unicode="&#xa5;" horiz-adv-x="1263" 
d="M88 647l282.999 -0.000976562l-305 834h208c25.333 0 44.666 -5.66699 57.999 -17c12 -10.667 21.333 -25.667 28 -45l162 -499c13.333 -40.667 21 -68.667 23 -84c0.666992 -3.33301 2.66699 -14.666 6 -33.999s5.33301 -34 6 -44l8.5 24
c3 8.66699 6.66699 18.334 11 29.001s7.5 19 9.5 25c2.66699 8 6.33398 16.333 11.001 25l17 31c6.66699 12 11.667 21.333 15 28l282 499c10.667 17.333 23.667 31.666 39 42.999c16.667 12.667 37.334 19 62.001 19h211l-510 -834h282l-18 -139h-326l-12 -98h326l-17 -140
h-325l-35 -270h-252l33 270h-328l16 140h328l12 98h-327z" />
    <glyph glyph-name="brokenbar" unicode="&#xa6;" horiz-adv-x="512" 
d="M276 1585h197l-102 -829h-197zM141 483h197l-102 -827h-197z" />
    <glyph glyph-name="section" unicode="&#xa7;" horiz-adv-x="1042" 
d="M934 1274c-9.33301 -12 -17.667 -19.6699 -25 -23.0029c-10.667 -5.33301 -20 -8 -28 -8c-12.667 0 -25.667 3.33301 -39 10c-3.33301 2 -10.5 6 -21.5 12s-19.5 10.333 -25.5 13c-18 8.66699 -38 16 -60 22c-28 7.33301 -55.333 11 -82 11c-24 0 -50 -3.66699 -78 -11
c-22.667 -6 -41.667 -14.667 -57 -26c-16 -12 -29 -25 -39 -39c-9.33301 -13.333 -15.333 -29.666 -18 -48.999c-2 -22.667 4 -42 18 -58c14 -16.667 33.333 -31.667 58 -45c32 -18 60.667 -32.333 86 -43l98 -43c41.333 -20 74 -37 98 -51
c30 -17.333 57.333 -38.333 82 -63c22 -22 39.667 -50 53 -84c12.667 -32.667 17 -69 13 -109c-5.33301 -51.333 -24.666 -101 -57.999 -149c-31.333 -45.333 -77 -81.666 -137 -108.999c31.333 -29.333 53.333 -58.666 66 -87.999c14.667 -35.333 19.334 -75 14.001 -119
c-5.33301 -46.667 -20.333 -93 -45 -139c-22.667 -42 -54 -79 -94 -111c-42.667 -34 -89.334 -58.333 -140.001 -73c-62 -18 -123.333 -27 -184 -27c-32.667 0 -67.334 3.33301 -104.001 10c-34 6 -66.333 15 -97 27c-33.333 13.333 -61.333 27 -84 41c-22 14 -43 31 -63 51
l70 96c6.66699 10 16.667 19 30 27c11.333 6.66699 24.333 10 39 10s29 -4.66699 43 -14c24 -16 39 -25.667 45 -29c19.333 -10.667 41.333 -20 66 -28c27.333 -8.66699 60 -13 98 -13c54.667 0 99.667 11.667 135 35c36 24 56 56 60 96
c4 25.333 -1.66699 48.666 -17 69.999c-12.667 18.667 -32.334 36.334 -59.001 53.001s-56 31 -88 43c-26 9.33301 -59.667 22.333 -101 39c-13.333 5.33301 -31.666 14.166 -54.999 26.499l-43 22.5c-31.333 15.333 -60 36 -86 62c-24.667 24.667 -43 53.334 -55 86.001
c-12 34 -15.333 72 -10 114c6 52 26.333 100.667 61 146c33.333 42.667 80.333 76.667 141 102c-30 28 -51.667 59.333 -65 94c-14 37.333 -18 82 -12 134c6 44 18.667 84.667 38 122s49 71.666 89 102.999c38.667 30 83 53 133 69c53.333 16.667 111.333 25 174 25
c74.667 0 138.667 -11.667 192 -35c58 -25.333 103.667 -56.666 137 -93.999zM341.999 740.997c-4 -27.333 2.66699 -51.666 20 -72.999c15.333 -19.333 39.333 -38 72 -56c30 -16.667 63.667 -33 101 -49c68 -29.333 105.333 -45.666 112 -48.999
c30.667 14.667 52.667 31.667 66 51c15.333 22 24 45.333 26 70c4 29.333 -2.66699 54.666 -20 75.999c-16.667 20.667 -39.334 39 -68.001 55c-46 25.333 -78.667 41.666 -98 48.999c-24.667 9.33301 -61 25.666 -109 48.999c-33.333 -16 -57.666 -33.667 -72.999 -53
s-25 -42.666 -29 -69.999z" />
    <glyph glyph-name="dieresis" unicode="&#xa8;" horiz-adv-x="784" 
d="M344 1323c-2 -19.333 -7.99805 -37.001 -17.998 -53.001c-12 -19.333 -24.333 -34.333 -37 -45c-12 -10 -28.333 -19.667 -49 -29c-14.667 -6.66699 -33.334 -10 -56.001 -10c-20.667 0 -37.667 3.33301 -51 10c-16 8 -29.667 17.667 -41 29c-10 10 -18.667 25 -26 45
c-5.33301 14.667 -7 32.334 -5 53.001c2 19.333 8.33301 37.666 19 54.999c14 22 26.333 37.667 37 47c13.333 11.333 29 21 47 29s36.333 12 55 12c19.333 0 37 -4 53 -12s29.667 -17.667 41 -29c10 -10 19 -25.667 27 -47
c5.33301 -13.333 6.66602 -31.666 3.99902 -54.999zM727.002 1323c-2 -19.333 -8 -37.001 -18 -53.001c-13.333 -21.333 -25 -36.333 -35 -45c-12 -10 -28.333 -19.667 -49 -29c-14.667 -6.66699 -34 -10 -58 -10c-22 0 -39.667 3.33301 -53 10
c-19.333 9.33301 -33 19 -41 29c-8.66699 10.667 -16.667 25.667 -24 45c-5.33301 14.667 -7 32.334 -5 53.001c2 19.333 8.33301 37.666 19 54.999c13.333 21.333 25 36.333 35 45c14.667 12.667 31 23 49 31s36.333 12 55 12c19.333 0 37 -4 53 -12
c18.667 -9.33301 33 -19 43 -29c8 -8 16.333 -23.667 25 -47c4.66699 -13.333 6 -31.666 4 -54.999z" />
    <glyph glyph-name="copyright" unicode="&#xa9;" horiz-adv-x="1611" 
d="M1012 524c9.33301 0 16.0029 -1.33496 20.0029 -4.00195c8.66699 -5.33301 13.667 -9.33301 15 -12l73 -90c-45.333 -49.333 -98.333 -86.333 -159 -111c-63.333 -26 -133 -39 -209 -39c-68.667 0 -129 12.333 -181 37c-52.667 24.667 -96.334 58.334 -131.001 101.001
c-32.667 40.667 -56.334 90.334 -71.001 149.001c-14 57.333 -17 120 -9 188c8 70 28 134.333 60 193c31.333 57.333 71 107 119 149c51.333 44.667 104.333 77.667 159 99c60 23.333 123.667 35 191 35c73.333 0 136.666 -13 189.999 -39
c50 -24.667 91.667 -57.667 125 -99l-78 -90c-2 -3.33301 -8 -8.66602 -18 -15.999c-7.33301 -5.33301 -17 -8 -29 -8c-8.66699 0 -18.667 3.33301 -30 10c-2.66699 1.33301 -7.83398 4.5 -15.501 9.5l-19.5 12.5c-18.667 10.667 -35.667 18.334 -51 23.001
c-22 6.66699 -50 10 -84 10c-37.333 0 -74.333 -6.66699 -111 -20c-37.333 -16 -67.333 -35.333 -90 -58c-25.333 -25.333 -46 -55.333 -62 -90c-13.333 -28.667 -23.333 -69 -30 -121c-6 -48.667 -5.33301 -89.334 2 -122.001c8 -36 21 -66.333 39 -91s40.333 -43 67 -55
s57.334 -18 92.001 -18c35.333 0 63.333 2.66699 84 8c30.667 8 50 14 58 18c14.667 7.33301 29 15.666 43 24.999c9.33301 6 23 11.333 41 16zM51.0029 740.998c7.33301 66 25.001 132.998 53.001 200.998c26 63.333 59 123.333 99 180c42 58.667 87.667 110 137 154
c51.333 45.333 107.333 85 168 119c55.333 30.667 118 55.667 188 75c66 18 134.333 27 205 27c70 0 135.667 -9 197 -27c68.667 -20 126 -45 172 -75c49.333 -32 95.666 -71.667 138.999 -119c34 -39.333 66.667 -90.666 98 -153.999c28 -56.667 46.667 -116.667 56 -180
c9.33301 -62.667 10 -129.667 2 -201c-8 -67.333 -25.333 -134 -52 -200c-27.333 -67.333 -60 -127.666 -98 -180.999c-40.667 -57.333 -86.334 -108.333 -137.001 -153c-47.333 -42 -103.333 -81 -168 -117c-62.667 -35.333 -126 -61.333 -190 -78
c-65.333 -17.333 -133.666 -26 -204.999 -26c-72.667 0 -138.334 8.66699 -197.001 26c-63.333 18.667 -120.666 44.667 -171.999 78c-49.333 32 -95 71 -137 117c-36 39.333 -69.333 90.333 -100 153c-24.667 50.667 -42.667 111 -54 181c-10.667 65.333 -12 132 -4 200z
M190.004 740.996c-10.667 -92 -5 -175 17 -249c23.333 -78.667 58.666 -145.667 105.999 -201c49.333 -57.333 109.666 -102.333 180.999 -135c72.667 -33.333 151 -50 235 -50c86 0 169.333 16.667 250 50s152.334 78.333 215.001 135c64 58 116 125 156 201
c44 83.333 70.667 166.333 80 249c6.66699 51.333 5.66699 108 -3 170c-8 53.333 -22.333 104.666 -43 153.999c-20.667 48 -47 91 -79 129c-26.667 32 -65 64.667 -115 98c-46.667 31.333 -93 53.333 -139 66c-53.333 14.667 -108 22 -164 22s-112.667 -7.33301 -170 -22
c-44.667 -11.333 -96.667 -33.333 -156 -66c-60 -35.333 -105.667 -68 -137 -98c-41.333 -38.667 -78.333 -81.667 -111 -129c-33.333 -47.333 -60 -98.666 -80 -153.999c-21.333 -58 -35.666 -114.667 -42.999 -170z" />
    <glyph glyph-name="ordfeminine" unicode="&#xaa;" horiz-adv-x="688" 
d="M588 860l-86.002 0.000976562c-14 0 -26.333 2.66699 -37 8c-8.66699 4.66699 -15 14.334 -19 29.001l-8 37c-13.333 -10.667 -30.333 -22.334 -51 -35.001c-23.333 -14.667 -39.666 -23.667 -48.999 -27c-10 -3.33301 -27.667 -8 -53 -14c-18 -4 -38.667 -6 -62 -6
c-27.333 0 -52.666 4 -75.999 12c-24.667 8.66699 -43.667 19.667 -57 33c-14 14 -24.333 32.333 -31 55c-7.33301 24.667 -9.33301 49.334 -6 74.001c1.33301 17.333 10.333 40.666 27 69.999c13.333 24 35.666 45 66.999 63c33.333 19.333 74.333 35 123 47
c54.667 13.333 117 21 187 23l2 24c4 37.333 -1 64 -15 80c-13.333 15.333 -35.666 23 -66.999 23c-17.333 0 -36.666 -2.66699 -57.999 -8c-12 -2.66699 -26.333 -8.33398 -43 -17.001c-16 -8 -27.333 -13.333 -34 -16c-10 -4 -22.333 -6 -37 -6
c-13.333 0 -24.333 3.33301 -33 10c-4 3.33301 -9.33301 11.333 -16 24l-25 58c42 34.667 87 60 135 76c47.333 16 98 24 152 24c37.333 0 70.666 -6 99.999 -18c31.333 -13.333 55.333 -30.333 72 -51c20 -26 33.667 -52.667 41 -80c8 -30.667 10 -63.667 6 -99z
M294.998 977.001c24.667 0 48.667 4.66602 72 13.999c19.333 8 41 22.333 65 43l10 84c-32 -1.33301 -65.333 -4.66602 -100 -9.99902c-20 -2.66699 -42 -8.66699 -66 -18c-12 -6 -23.333 -14.333 -34 -25c-6 -6 -10.333 -15.667 -13 -29c-2 -24 2.33301 -39.667 13 -47
c12 -8 29.667 -12 53 -12z" />
    <glyph glyph-name="guillemotleft" unicode="&#xab;" horiz-adv-x="862" 
d="M49 535l4 32l312 406l77 -39c16 -8 25.667 -16.333 29 -25c4 -10.667 5.33301 -20.667 4 -30c-2 -14.667 -8 -29 -18 -43l-170 -242c-12.667 -19.333 -25.667 -33.666 -39 -42.999c8 -8 16.667 -22.333 26 -43l113 -242c7.33301 -16.667 10 -31.667 8 -45
c-2 -22.667 -17 -40.334 -45 -53.001l-88 -39zM385 535l4 32l313 406l78 -39c14.667 -7.33301 23.667 -15 27 -23c5.33301 -13.333 7.33301 -24 6 -32c-2 -12.667 -8.66699 -27 -20 -43l-170 -242c-12.667 -19.333 -25.667 -33.666 -39 -42.999
c10.667 -10.667 20 -25 28 -43l111 -242c7.33301 -16.667 10 -31.667 8 -45c-2 -22.667 -17 -40.334 -45 -53.001l-88 -39z" />
    <glyph glyph-name="logicalnot" unicode="&#xac;" horiz-adv-x="1044" 
d="M82 782h907l-59 -479h-213l35 291h-695z" />
    <glyph glyph-name="uni00AD" unicode="&#xad;" horiz-adv-x="677" 
d="M86 725h530l-26 -213h-529z" />
    <glyph glyph-name="registered" unicode="&#xae;" horiz-adv-x="1611" 
d="M51 741c7.33301 66 24.999 132.998 52.999 200.998c26 63.333 59 123.333 99 180c42 58.667 87.667 110 137 154c47.333 42 103.333 81 168 117c60 33.333 122.667 59 188 77c66 18 134.333 27 205 27c70 0 135.667 -9 197 -27c64.667 -19.333 122 -45 172 -77
c52.667 -34 99 -73 139 -117c32.667 -35.333 65.334 -86.666 98.001 -153.999c28 -56.667 46.667 -116.667 56 -180c9.33301 -62.667 10 -129.667 2 -201c-8 -67.333 -25.333 -134 -52 -200c-27.333 -67.333 -60 -127.666 -98 -180.999
c-40.667 -57.333 -86.334 -108.333 -137.001 -153c-47.333 -42 -103.333 -81 -168 -117c-62.667 -35.333 -126 -61.333 -190 -78c-65.333 -17.333 -133.666 -26 -204.999 -26c-72.667 0 -138.334 8.66699 -197.001 26c-63.333 18.667 -120.666 44.667 -171.999 78
c-49.333 32 -95 71 -137 117c-36 39.333 -69.333 90.333 -100 153c-24.667 50.667 -42.667 111 -54 181c-10.667 65.333 -12 132 -4 200zM189.999 738.998c-10.667 -91.333 -5 -173.667 17 -247c23.333 -78.667 58.666 -145.667 105.999 -201
c49.333 -57.333 109.666 -102.333 180.999 -135c72.667 -33.333 151 -50 235 -50c86 0 169.333 16.667 250 50s152.334 78.333 215.001 135c64 58 116 125 156 201c44 83.333 70.667 166.333 80 249c6.66699 51.333 5.66699 108 -3 170
c-8 53.333 -22.333 104.666 -43 153.999c-20.667 48 -47 91 -79 129c-26.667 32 -65 64.667 -115 98c-43.333 29.333 -89.666 50.666 -138.999 63.999c-53.333 14.667 -108 22 -164 22s-112.667 -7.33301 -170 -22c-49.333 -12.667 -101.333 -34 -156 -64
c-60 -35.333 -105.667 -68 -137 -98c-41.333 -38.667 -78.333 -81.667 -111 -129c-33.333 -47.333 -60 -98.666 -80 -153.999c-20.667 -57.333 -35 -114.666 -43 -171.999zM677.999 615.997l-41 -333.001h-219l112 919h330c127.333 0 217.333 -22.333 270 -67
c54 -46 76 -111.667 66 -197c-8 -63.333 -30 -116.666 -66 -159.999c-39.333 -47.333 -92.333 -80.666 -159 -99.999c14 -8 25.667 -19 35 -33c9.33301 -16.667 17.333 -32.334 24 -47.001l148 -315h-211c-31.333 0 -52 11.333 -62 34l-112 269
c-6.66699 10.667 -13.667 18 -21 22c-10.667 5.33301 -23.667 8 -39 8h-55zM695.999 773.996h91.999c36.667 0 65.334 2.66699 86.001 8c27.333 7.33301 46.666 15.666 57.999 24.999c14 12 24.333 27 31 45c8 20.667 12.667 39.667 14 57c2 20.667 2 39.334 0 56.001
s-8.33301 30.334 -19 41.001c-11.333 11.333 -25.666 18.666 -42.999 21.999c-26.667 5.33301 -51.667 8 -75 8h-111z" />
    <glyph glyph-name="macron" unicode="&#xaf;" horiz-adv-x="751" 
d="M84 1405h612l-20 -162h-613z" />
    <glyph glyph-name="degree" unicode="&#xb0;" horiz-adv-x="813" 
d="M51 1151c5.33301 44 20.335 89.001 45.002 135.001c22.667 42 52 79 88 111c38 33.333 78.333 58.666 121 75.999c43.333 17.333 91.333 26 144 26c50.667 0 95.667 -8.66699 135 -26c37.333 -16.667 72 -42 104 -76c31.333 -33.333 52.666 -70.333 63.999 -111
c12 -44 15.333 -89 10 -135c-6 -49.333 -21 -94.333 -45 -135c-26 -45.333 -55.333 -82.333 -88 -111c-36 -32.667 -77 -58 -123 -76c-43.333 -17.333 -91.333 -26 -144 -26c-50.667 0 -95.667 8.66699 -135 26c-40.667 18 -75.334 43.333 -104.001 76
c-28.667 32 -48.667 69 -60 111c-13.333 48 -17.333 93 -12 135zM227.002 1147c-3.33301 -22.667 -1.99707 -46.001 4.00293 -70.001c5.33301 -20.667 15.666 -39.667 30.999 -57c14 -16 31.667 -28.333 53 -37c23.333 -9.33301 46 -14 68 -14
c21.333 0 45.333 4.66699 72 14c25.333 10.667 45.666 23 60.999 37c18.667 16.667 33.667 35.667 45 57c11.333 22 19 45.333 23 70s2.66699 49.334 -4 74.001c-5.33301 20.667 -15.666 39.667 -30.999 57c-12.667 14.667 -30.334 27.667 -53.001 39
c-18.667 9.33301 -41.334 14 -68.001 14s-50.667 -4.66699 -72 -14c-22.667 -10 -43 -23 -61 -39c-18.667 -16.667 -33.667 -35.667 -45 -57s-19 -46 -23 -74z" />
    <glyph glyph-name="plusminus" unicode="&#xb1;" horiz-adv-x="1185" 
d="M791 1270l-46 -361h400l-25 -188h-397l-43 -350h-205l43 350h-397l24 188h396l45 361h205zM66 270h999l-23 -188h-999z" />
    <glyph glyph-name="uni00B2" unicode="&#xb2;" horiz-adv-x="698" 
d="M625 1137l3.99609 0.000976562l-13 -109l-12 -94l-2 -12h-553l8 57c2.66699 15.333 6.33398 27.666 11.001 36.999c8.66699 17.333 17.334 29.666 26.001 36.999l242 211c4.66699 4 9.66699 8.66699 15 14l17.5 18l14.5 15c7.33301 7.33301 21 24.333 41 51
c13.333 17.333 23.666 33.666 30.999 48.999c7.33301 14 12 30.333 14 49c2 26.667 -2 46.667 -12 60c-11.333 14.667 -29.333 22 -54 22c-25.333 0 -44.333 -5.33301 -57 -16c-13.333 -11.333 -26.333 -27.666 -39 -48.999c-7.33301 -11.333 -16.666 -20.333 -27.999 -27
s-23.666 -10 -36.999 -10c-1.33301 0 -3.16602 0.333008 -5.49902 1s-4.16602 1 -5.49902 1h-12l-100 16c20 78.667 58 136.667 114 174c55.333 37.333 121 56 197 56c42.667 0 77.667 -5.66699 105 -17c32.667 -13.333 57 -29 73 -47c18 -20 31 -43.333 39 -70
c8 -27.333 10 -56.666 6 -87.999c-4.66699 -31.333 -12 -57 -22 -77c-14.667 -28 -28.334 -50 -41.001 -66c-8 -10 -27.333 -30.333 -58 -61c-36.667 -36.667 -57.667 -57.334 -63 -62.001l-147 -133c11.333 3.33301 30.333 8 57 14c12 2.66699 29 4 51 4h92
c1.33301 4.66699 2.5 10.334 3.5 17.001s1.83301 10.667 2.5 12c4.66699 15.333 15 23 31 23h51h15z" />
    <glyph glyph-name="uni00B3" unicode="&#xb3;" horiz-adv-x="673" 
d="M408 1688c40.667 0 74.668 -5.66992 102.001 -17.0029c28.667 -12 52 -27 70 -45c21.333 -21.333 35 -41.666 41 -60.999c8.66699 -27.333 11.334 -52 8.00098 -74c-6 -41.333 -19.667 -77.666 -41 -108.999c-20.667 -30 -51.334 -53 -92.001 -69
c40 -14 68.667 -33.333 86 -58c16 -22.667 22 -55.334 18 -98.001c-5.33301 -38.667 -17.666 -74.667 -36.999 -108c-18.667 -31.333 -41.667 -56.666 -69 -75.999c-29.333 -20 -60.333 -35 -93 -45c-33.333 -10 -66 -15 -98 -15c-38.667 0 -71.334 3.66699 -98.001 11
c-32 8.66699 -56.667 20 -74 34c-22.667 18 -40.334 39.333 -53.001 64c-14.667 28 -25.667 60 -33 96l82 33c14 5.33301 28.333 8 43 8c24 0 40.333 -9.66699 49 -29c1.33301 -2.66699 3 -6.66699 5 -12s3.66699 -9.33301 5 -12
c3.33301 -7.33301 9.66602 -14.333 18.999 -21c10.667 -8 19.334 -13.333 26.001 -16c10 -4 22.333 -6 37 -6c31.333 0 56 8 74 24c20 18 31 38.667 33 62c2 20.667 1.33301 36.334 -2 47.001c-4 11.333 -11 21 -21 29c-10.667 8.66699 -25 14 -43 16
c-12 2.66699 -35.667 4 -71 4l14 119c24 0 48 2.66699 72 8c16.667 4 31.667 10.333 45 19c12 8 20.667 17.333 26 28c6.66699 14 11 27 13 39c4 25.333 -0.333008 45.333 -13 60s-31.667 22 -57 22s-45 -5.33301 -59 -16c-14 -10 -26.333 -25 -37 -45
c-6 -10 -15 -19.667 -27 -29c-8.66699 -6.66699 -19.667 -10 -33 -10c-10.667 0 -19.334 0.666992 -26.001 2l-93 16c10 38.667 25.333 73 46 103c21.333 30.667 44.333 54.334 69 71.001c34.667 23.333 63.334 37.666 86.001 42.999c36 8.66699 69.667 13 101 13z" />
    <glyph glyph-name="acute" unicode="&#xb4;" horiz-adv-x="632" 
d="M582 1497l-287.001 -268.001c-13.333 -13.333 -27 -22.333 -41 -27c-16 -5.33301 -31.667 -8 -47 -8h-152l176 248c12.667 18.667 26.334 32.334 41.001 41.001c16 9.33301 37.333 14 64 14h246z" />
    <glyph glyph-name="mu" unicode="&#xb5;" horiz-adv-x="1169" 
d="M459 1051l-82.001 -668c-8 -64 0.666992 -114 26 -150c25.333 -35.333 67.666 -53 126.999 -53c40.667 0 82.334 10.333 125.001 31c43.333 21.333 83 48 119 80l94 760h252l-129 -1051h-153c-34 0 -54 15 -60 45l-6 86c-36 -28.667 -59.333 -46.334 -70 -53.001
c-34.667 -21.333 -57 -33.666 -67 -36.999c-35.333 -12 -58 -19 -68 -21c-23.333 -4 -47.666 -6 -72.999 -6c-40 0 -76.333 6.33301 -109 19c-29.333 11.333 -56 29 -80 53c4.66699 -34 6 -65.333 4 -94c-2 -38 -4.66699 -68 -8 -90l-31 -246h-125
c-34 0 -59.667 9.66699 -77 29c-17.333 20 -24.333 45.667 -21 77l158 1289h254z" />
    <glyph glyph-name="paragraph" unicode="&#xb6;" horiz-adv-x="1509" 
d="M1468 1481l-26.002 -210.999h-219l-183 -1483h-221l182 1483h-241l-180 -1483h-222l105 858c-73.333 0 -136.333 11 -189 33c-51.333 21.333 -96.333 51.333 -135 90c-35.333 35.333 -61.333 79.666 -78 132.999c-15.333 49.333 -20 102.666 -14 159.999
c8.66699 68 26.334 125.333 53.001 172c28 50 65 93.667 111 131c44.667 36.667 97.334 65.334 158.001 86.001s126 31 196 31h903z" />
    <glyph glyph-name="periodcentered" unicode="&#xb7;" horiz-adv-x="507" 
d="M59 610c3.33301 21.333 11.6709 46 25.0039 74c11.333 23.333 27.666 43.666 48.999 60.999c24 19.333 46 33 66 41c28.667 11.333 53.667 17 75 17c24.667 0 50 -5.66699 76 -17c21.333 -9.33301 40 -23 56 -41c15.333 -17.333 26.666 -37.666 33.999 -60.999
c8 -24 10 -48.667 6 -74c-4 -26.667 -12 -51.667 -24 -75c-12.667 -24 -29 -44 -49 -60c-22.667 -18.667 -45.334 -32.334 -68.001 -41.001c-26.667 -10.667 -52.667 -16 -78 -16c-22.667 0 -46.334 5.33301 -71.001 16c-24 10.667 -43.333 24.334 -58 41.001
c-15.333 18 -26 38 -32 60c-8 29.333 -10.333 54.333 -7 75z" />
    <glyph glyph-name="cedilla" unicode="&#xb8;" horiz-adv-x="542" 
d="M127 -233l14 0.000976562c5.33301 -2.66699 11 -5 17 -7c8 -2.66699 14.667 -4.66699 20 -6h29c20.667 0 37.667 4.33301 51 13c12 8 19 18 21 30c2 20.667 -8.33301 35 -31 43c-28.667 10 -65.667 17.667 -111 23l64 151h157l-28 -71c60 -14 100.333 -34 121 -60
c21.333 -26.667 30 -57.334 26 -92.001c-2 -20.667 -10.667 -41 -26 -61c-14 -18 -32.667 -33 -56 -45s-51.333 -22.333 -84 -31c-26 -6.66699 -60 -10 -102 -10c-35.333 0 -61.333 1.33301 -78 4c-22.667 3.33301 -46 9.33301 -70 18l33 78c6 15.333 17 23 33 23z" />
    <glyph glyph-name="uni00B9" unicode="&#xb9;" horiz-adv-x="550" 
d="M66 1038l141 -0.000976562l47 369l10 51l-86 -61c-12.667 -8.66699 -25 -13 -37 -13c-8 0 -16.667 2.33301 -26 7c-10 4.66699 -15.667 9.33398 -17 14.001l-45 78l262 196h152l-78 -641h117l-14 -116h-441z" />
    <glyph glyph-name="ordmasculine" unicode="&#xba;" horiz-adv-x="778" 
d="M430 1499c48 0 92.335 -7.33496 133.002 -22.002c36.667 -13.333 69.667 -34.666 99 -63.999c27.333 -29.333 45.666 -63.333 54.999 -102c10.667 -44 13.334 -88.333 8.00098 -133c-5.33301 -47.333 -19 -93.333 -41 -138c-18 -37.333 -45.333 -72 -82 -104
c-32.667 -28.667 -70.334 -50 -113.001 -64c-49.333 -16 -95.666 -24 -138.999 -24c-44 0 -88.333 8 -133 24c-38.667 14 -71.334 35.333 -98.001 64s-46 63.334 -58 104.001c-10.667 36 -12.667 81.333 -6 136c5.33301 45.333 19 90.333 41 135
c18 36.667 44.667 70.667 80 102c32 28 70.333 49.333 115 64c45.333 14.667 91.666 22 138.999 22zM369.002 994.998c44 0 80 15 108 45c24.667 26 41 70.667 49 134c8 60 2.66699 105 -16 135c-18 28.667 -50 43 -96 43c-48.667 0 -86.334 -14.333 -113.001 -43
c-24.667 -26 -41 -70.333 -49 -133c-8 -60.667 -2.66699 -106 16 -136s52.334 -45 101.001 -45z" />
    <glyph glyph-name="guillemotright" unicode="&#xbb;" horiz-adv-x="862" 
d="M160 129l-78 39.002c-14 7.33301 -23 15.666 -27 24.999c-5.33301 12.667 -7.33301 22.667 -6 30c2 14 8.33301 28.333 19 43l172 242c13.333 19.333 25.333 33.666 36 42.999c-8 8 -16.667 22.333 -26 43l-113 242c-6 14 -8 28.333 -6 43c2 24 17 42.333 45 55l88 39
l211 -406l-4 -32zM498 129.002l-80 39.001c-14 7.33301 -23 15.666 -27 24.999c-4 10.667 -5.33301 20.667 -4 30c2 14 8.33301 28.333 19 43l169 242c10.667 16 23.667 30.333 39 43c-10.667 10.667 -20 25 -28 43l-111 242c-7.33301 16.667 -10 31 -8 43
c2 24 17 42.333 45 55l88 39l213 -406l-4 -32z" />
    <glyph glyph-name="onequarter" unicode="&#xbc;" horiz-adv-x="1359" 
d="M287 74c-18 -26.667 -39.332 -46 -63.999 -58c-21.333 -10.667 -45 -16 -71 -16h-109l1026 1397c18 26.667 38.333 47 61 61c25.333 15.333 52.666 23 81.999 23h107zM1198 289h96l-10 -90c-2.66699 -10 -6.66699 -17.667 -12 -23c-8 -8 -17 -12 -27 -12h-61l-21 -164
h-151l20 164h-297c-16.667 0 -29 4 -37 12s-12 17 -12 27l-6 78l401 477h174zM59.001 840h144l45 368l12 54l-88 -64c-12 -8 -23.667 -12 -35 -12c-10.667 0 -20 2 -28 6s-13 8.66699 -15 14l-47 78l262 199h154l-80 -643h119l-15 -117h-442zM1069 461
c3.33301 26 5.99902 43.667 7.99902 53c0.666992 4 1.83398 10 3.50098 18l4.5 22c1.33301 6.66699 3 13 5 19l-242 -284h199z" />
    <glyph glyph-name="onehalf" unicode="&#xbd;" horiz-adv-x="1370" 
d="M1294 215l3.99707 -0.00292969l-12 -109l-12 -94l-2 -12h-553l6 59c2 10.667 6 22.334 12 35.001c8 16.667 17 29 27 37l240 211c10.667 9.33301 27 25 49 47c7.33301 7.33301 21 24.333 41 51c10.667 14.667 20.667 31 30 49c8 15.333 13 32 15 50
c2 25.333 -2.33301 45 -13 59c-11.333 15.333 -29 23 -53 23c-24.667 0 -43.667 -5.66699 -57 -17c-11.333 -8 -24.333 -24.333 -39 -49c-7.33301 -10.667 -17 -19.667 -29 -27c-11.333 -6.66699 -23.666 -10 -36.999 -10c-1.33301 0 -3 0.333008 -5 1s-3.66699 1 -5 1h-12
l-101 17c20 78 58.333 136 115 174c54.667 36.667 120.334 55 197.001 55c43.333 0 78 -5.33301 104 -16c32.667 -13.333 57.334 -29.333 74.001 -48c18.667 -20.667 31.667 -43.667 39 -69c8 -27.333 10 -56.666 6 -87.999c-4 -30.667 -11.667 -56.667 -23 -78
c-16 -30.667 -29.333 -52.667 -40 -66c-8 -10 -27.333 -30.333 -58 -61c-32 -32 -53 -52.333 -63 -61l-148 -134c18 5.33301 37.333 10.333 58 15c12 2.66699 29 4 51 4h92c1.33301 4.66699 2.5 10.334 3.5 17.001s1.83301 10.667 2.5 12c4 14.667 14.333 22 31 22h51h14z
M284.997 73.9971c-18 -26.667 -39.332 -46.001 -63.999 -58.001c-21.333 -10.667 -45 -16 -71 -16h-109l1026 1399c16.667 24.667 37 44.334 61 59.001c25.333 15.333 52.666 23 81.999 23h107zM99.998 839.996l142 -0.000976562l45 368l12 54l-86 -64
c-12 -8 -24.333 -12 -37 -12c-9.33301 0 -18 2 -26 6c-10 4.66699 -15.667 9.33398 -17 14.001l-47 78l264 199h152l-78 -643h117l-15 -117h-440z" />
    <glyph glyph-name="threequarters" unicode="&#xbe;" horiz-adv-x="1425" 
d="M352 74c-18 -26 -39.667 -45.333 -65 -58c-21.333 -10.667 -44.666 -16 -69.999 -16h-108l1026 1397c18 26.667 38.333 47 61 61c25.333 15.333 52.666 23 81.999 23h106zM1262 289l96 0.000976562l-12 -90c-2 -8.66699 -6.33301 -16.334 -13 -23.001
c-8 -8 -16.667 -12 -26 -12h-62l-20 -164h-152l21 164h-295c-16.667 0 -29 4 -37 12c-9.33301 9.33301 -14 18.333 -14 27l-7 78l402 477h176zM406 1491c38.667 0 72.666 -6.00293 101.999 -18.0029c27.333 -11.333 50.666 -26.666 69.999 -45.999
c20 -20 33.333 -40.333 40 -61c9.33301 -28.667 12.333 -53.334 9 -74.001c-5.33301 -40.667 -19 -76.667 -41 -108c-21.333 -31.333 -52 -54.666 -92 -69.999c40.667 -14.667 69.334 -33.667 86.001 -57c16 -22.667 22 -55.667 18 -99
c-5.33301 -38.667 -17.666 -74.667 -36.999 -108c-18.667 -31.333 -41.667 -56.666 -69 -75.999c-29.333 -20 -60.333 -35 -93 -45c-30.667 -9.33301 -63.334 -14 -98.001 -14c-41.333 0 -74 3.33301 -98 10c-30.667 8.66699 -55.334 20.334 -74.001 35.001
c-23.333 18.667 -41 39.667 -53 63c-14 27.333 -25 60.333 -33 99l82 30c16 6 30.333 9 43 9c24 0 40.333 -9.66699 49 -29c1.33301 -2.66699 3 -6.83398 5 -12.501s3.66699 -9.83398 5 -12.501c3.33301 -6 9.66602 -12.667 18.999 -20
c12.667 -9.33301 21.334 -15 26.001 -17c10 -4 22.333 -6 37 -6c30.667 0 55.334 8.33301 74.001 25c20 18 31 38.333 33 61c2 20.667 1.33301 36.334 -2 47.001c-4 11.333 -11 21 -21 29c-7.33301 6 -21.666 11.333 -42.999 16c-14.667 3.33301 -38.334 5 -71.001 5l14 118
c20.667 0 44.667 3 72 9c18 4 33 10 45 18c11.333 8 20 17.667 26 29c6.66699 14 11 27 13 39c4 24.667 -0.333008 44.334 -13 59.001s-31.667 22 -57 22s-45.333 -5.33301 -60 -16c-13.333 -9.33301 -25.333 -23.666 -36 -42.999c-7.33301 -12.667 -16.333 -23 -27 -31
c-8.66699 -6.66699 -19.667 -10 -33 -10c-4 0 -12.667 1.33301 -26 4l-93 15c9.33301 37.333 24.666 71.333 45.999 102c22 32 45 56 69 72c34.667 23.333 63.334 37.666 86.001 42.999c38.667 9.33301 72.334 14 101.001 14zM1130 460.998c2 16 5 33 9 51l5 26
c2.66699 14 5 25 7 33l-242 -282h201z" />
    <glyph glyph-name="questiondown" unicode="&#xbf;" horiz-adv-x="860" 
d="M817 -209c-29.333 -22 -58.0029 -41.0039 -86.0029 -57.0039c-34.667 -20 -66 -35.667 -94 -47c-36.667 -14.667 -73 -25.667 -109 -33c-38.667 -8 -79.334 -12 -122.001 -12c-60 0 -113.333 8 -160 24s-85.667 38.667 -117 68c-33.333 30.667 -56.666 66 -69.999 106
c-13.333 38.667 -16.666 86.667 -9.99902 144c6 50 19 93.667 39 131c20.667 38.667 43.334 69.334 68.001 92.001c28 26 56 47.667 84 65l39 25l43 27c28 16.667 50.333 32.334 67 47.001c20.667 18.667 33.667 37.667 39 57l41 147h174l-4 -165v-11l-2 -10
c-4.66699 -34 -15 -60 -31 -78c-23.333 -26 -44.333 -45 -63 -57c-39.333 -25.333 -65.333 -41 -78 -47c-24 -11.333 -50.667 -27.666 -80 -48.999c-23.333 -16.667 -44.333 -38 -63 -64c-19.333 -27.333 -31 -57.333 -35 -90c-2 -24 0 -45.667 6 -65
c4.66699 -16 15.667 -32.667 33 -50c14 -14 31.667 -24.667 53 -32c24.667 -8.66699 49.334 -13 74.001 -13c30.667 0 64 5 100 15c24 6.66699 48 16 72 28c1.33301 0.666992 18.333 10.334 51 29.001c16 9.33301 28.333 14 37 14c24 0 40.333 -10.667 49 -32z
M445.997 912.996c2 22.667 8.33301 43.332 19 61.999c10.667 19.333 23.667 35.666 39 48.999c16.667 14.667 34.334 25.667 53.001 33c20 8 41.333 12 64 12c21.333 0 41 -4 59 -12s33 -19 45 -33c11.333 -13.333 20.333 -29.666 27 -48.999
c5.33301 -16 6.66602 -36.667 3.99902 -62c-2 -21.333 -8.33301 -41.666 -19 -60.999c-6.66699 -12 -19.667 -27.667 -39 -47c-13.333 -13.333 -31 -24.333 -53 -33c-20 -8 -40.333 -12 -61 -12c-23.333 0 -44 4 -62 12s-33 19 -45 33c-11.333 13.333 -20 29 -26 47
c-5.33301 16.667 -7 37 -5 61z" />
    <glyph glyph-name="Agrave" unicode="&#xc0;" 
d="M1608 158c24.667 -9.33301 35.999 -27.334 33.999 -54.001l-14 -104h-72h-159h-35h-19h-215l13 104c2 24 17.667 42 47 54c18 6 32.333 11.333 43 16l-4 23l-49 200h-590l-103 -211l-6 -12c8 -4 16.333 -7.66699 25 -11l14 -5c25.333 -11.333 37 -29.333 35 -54l-14 -104
h-213h-21h-33h-161h-72l12 104c2 24 17.667 42 47 54c2.66699 0.666992 42.334 16.334 119.001 47.001l657 1276h283l344 -1276c66 -29.333 101.667 -45 107 -47zM906.999 1051l-225 -459h448l-110 459c-10 38 -16.333 63.667 -19 77c-5.33301 26 -11.333 58.333 -18 97
l-18 -44.5l-21 -52.5c-6 -16 -18.333 -41.667 -37 -77zM910.999 1835c4.66699 0 10.9971 -0.332031 18.9971 -0.999023s13.333 -1 16 -1c10 0 19 -2 27 -6c10.667 -5.33301 17.334 -9.33301 20.001 -12c2 -2 5 -5.33301 9 -10s7.33301 -8.33398 10 -11.001l178 -209h-201
c-3.33301 0 -7.66602 0.333008 -12.999 1s-9 1 -11 1c-10 0 -17 0.666992 -21 2c-5.33301 2 -10.666 4.66699 -15.999 8c-12 8 -18.333 12.333 -19 13l-278 225h280z" />
    <glyph glyph-name="Aacute" unicode="&#xc1;" 
d="M1608 158c24.667 -9.33301 35.999 -27.334 33.999 -54.001l-14 -104h-72h-159h-35h-19h-215l13 104c2 24 17.667 42 47 54c18 6 32.333 11.333 43 16l-4 23l-49 200h-590l-103 -211l-6 -12c8 -4 16.333 -7.66699 25 -11l14 -5c25.333 -11.333 37 -29.333 35 -54l-14 -104
h-213h-21h-33h-161h-72l12 104c2 24 17.667 42 47 54c2.66699 0.666992 42.334 16.334 119.001 47.001l657 1276h283l344 -1276c66 -29.333 101.667 -45 107 -47zM906.999 1051l-225 -459h448l-110 459c-10 38 -16.333 63.667 -19 77c-5.33301 26 -11.333 58.333 -18 97
l-18 -44.5l-21 -52.5c-6 -16 -18.333 -41.667 -37 -77zM1452 1835l-330.001 -223l-12.5 -7.5c-5 -3 -8.16699 -4.83301 -9.5 -5.5c-2 -1.33301 -9 -4 -21 -8c-8 -2.66699 -15.333 -4 -22 -4c-2.66699 0 -6.66699 -0.333008 -12 -1s-9.66602 -1 -12.999 -1h-198l225 207
c9.33301 9.33301 18 17 26 23c8.66699 6 16.334 10 23.001 12c8 4 17 6 27 6c3.33301 0 8.66602 0.333008 15.999 1s13.333 1 18 1h283z" />
    <glyph glyph-name="Acircumflex" unicode="&#xc2;" 
d="M1608 158c24.667 -9.33301 35.999 -27.334 33.999 -54.001l-14 -104h-72h-159h-35h-19h-215l13 104c2 24 17.667 42 47 54c18 6 32.333 11.333 43 16l-4 23l-49 200h-590l-103 -211l-6 -12c8 -4 16.333 -7.66699 25 -11l14 -5c25.333 -11.333 37 -29.333 35 -54l-14 -104
h-213h-21h-33h-161h-72l12 104c2 24 17.667 42 47 54c2.66699 0.666992 42.334 16.334 119.001 47.001l657 1276h283l344 -1276c66 -29.333 101.667 -45 107 -47zM906.999 1051l-225 -459h448l-110 459c-10 38 -16.333 63.667 -19 77c-5.33301 26 -11.333 58.333 -18 97
l-18 -44.5l-21 -52.5c-6 -16 -18.333 -41.667 -37 -77zM1403 1585l-192.998 -0.00195312c-5.33301 0 -16 1.33301 -32 4c-12.667 2 -22.334 6.33301 -29.001 13l-94 69c-0.666992 0.666992 -2 1.33398 -4 2.00098s-3.33301 1.33398 -4 2.00098s-1.83398 2 -3.50098 4
s-2.83398 3.33301 -3.50098 4l-6 -6c-1.33301 -1.33301 -4.66602 -3.33301 -9.99902 -6l-113 -69c-9.33301 -6.66699 -19.333 -11 -30 -13c-16 -2.66699 -27.667 -4 -35 -4h-191l275 225h252z" />
    <glyph glyph-name="Atilde" unicode="&#xc3;" 
d="M1608 158c24.667 -9.33301 35.999 -27.334 33.999 -54.001l-14 -104h-72h-159h-35h-19h-215l13 104c2 24 17.667 42 47 54c18 6 32.333 11.333 43 16l-4 23l-49 200h-590l-103 -211l-6 -12c8 -4 16.333 -7.66699 25 -11l14 -5c25.333 -11.333 37 -29.333 35 -54l-14 -104
h-213h-21h-33h-161h-72l12 104c2 24 17.667 42 47 54c2.66699 0.666992 42.334 16.334 119.001 47.001l657 1276h283l344 -1276c66 -29.333 101.667 -45 107 -47zM906.999 1051l-225 -459h448l-110 459c-10 38 -16.333 63.667 -19 77c-5.33301 26 -11.333 58.333 -18 97
l-18 -44.5l-21 -52.5c-6 -16 -18.333 -41.667 -37 -77zM1174 1741c18.667 0 33.666 4.66309 44.999 13.9961c12 10 20 26.333 24 49h137c-4 -33.333 -12 -64.666 -24 -93.999c-10 -24.667 -25.667 -48.667 -47 -72c-14 -15.333 -36 -30.333 -66 -45
c-24.667 -12 -52.667 -18 -84 -18c-23.333 0 -46.333 4 -69 12c-8 2.66699 -29.333 11 -64 25c-23.333 9.33301 -41.666 17.333 -54.999 24c-14.667 7.33301 -30.334 11 -47.001 11c-18.667 0 -33.667 -5.66699 -45 -17c-13.333 -13.333 -21.666 -29.666 -24.999 -48.999
h-139c4 32 12 62.667 24 92c12 28.667 28.333 53.334 49 74.001c18.667 18.667 41.334 34.334 68.001 47.001c22 10.667 49.333 16 82 16c27.333 0 50.666 -3.33301 69.999 -10c15.333 -5.33301 36.333 -13.333 63 -24c16.667 -6.66699 35 -15 55 -25
c13.333 -6.66699 29.333 -10 48 -10z" />
    <glyph glyph-name="Adieresis" unicode="&#xc4;" 
d="M1608 158c24.667 -9.33301 35.999 -27.334 33.999 -54.001l-14 -104h-72h-159h-35h-19h-215l13 104c2 24 17.667 42 47 54c18 6 32.333 11.333 43 16l-4 23l-49 200h-590l-103 -211l-6 -12c8 -4 16.333 -7.66699 25 -11l14 -5c25.333 -11.333 37 -29.333 35 -54l-14 -104
h-213h-21h-33h-161h-72l12 104c2 24 17.667 42 47 54c2.66699 0.666992 42.334 16.334 119.001 47.001l657 1276h283l344 -1276c66 -29.333 101.667 -45 107 -47zM906.999 1051l-225 -459h448l-110 459c-10 38 -16.333 63.667 -19 77c-5.33301 26 -11.333 58.333 -18 97
l-18 -44.5l-21 -52.5c-6 -16 -18.333 -41.667 -37 -77zM957.999 1708c-2.66699 -22 -8.00098 -39.6689 -16.001 -53.002c-10 -16 -22.333 -30.333 -37 -43c-16 -14 -32.333 -23.667 -49 -29c-20 -6.66699 -38.333 -10 -55 -10c-17.333 0 -33.666 3.33301 -48.999 10
s-28.333 16.334 -39 29.001s-19 27 -25 43c-4.66699 13.333 -6 30.333 -4 51c2 19.333 8 37 18 53c13.333 21.333 25 36.333 35 45c12 10.667 27 20.334 45 29.001c16 8 34 12 54 12c18 0 35 -4 51 -12c18.667 -9.33301 33 -19 43 -29
c7.33301 -7.33301 15.333 -22.333 24 -45c4.66699 -13.333 6 -30.333 4 -51zM1401 1706c-1.33301 -14.667 -6.99902 -31.666 -16.999 -50.999c-8 -16 -19.333 -30.333 -34 -43c-16.667 -14.667 -32.334 -24.334 -47.001 -29.001c-20 -6.66699 -38.667 -10 -56 -10
c-16 0 -33 3.33301 -51 10c-16 6 -29.667 15.667 -41 29c-10.667 12.667 -19 27 -25 43c-4.66699 13.333 -6 30.333 -4 51c2 18 8.33301 35.667 19 53c13.333 21.333 25 36.333 35 45c13.333 11.333 29 21 47 29s36.333 12 55 12c18 0 35 -4 51 -12
c19.333 -9.33301 33 -19 41 -29c11.333 -13.333 19 -28.333 23 -45c4.66699 -18 6 -35.667 4 -53z" />
    <glyph glyph-name="Aring" unicode="&#xc5;" 
d="M1608 158c24.667 -9.33301 35.999 -27.334 33.999 -54.001l-14 -104h-72h-159h-35h-19h-215l13 104c2 24 17.667 42 47 54c18 6 32.333 11.333 43 16l-4 23l-49 200h-590l-103 -211l-6 -12c8 -4 16.333 -7.66699 25 -11l14 -5c25.333 -11.333 37 -29.333 35 -54l-14 -104
h-213h-21h-33h-161h-72l12 104c2 24 17.667 42 47 54c2.66699 0.666992 42.334 16.334 119.001 47.001l657 1276h283l344 -1276c66 -29.333 101.667 -45 107 -47zM906.999 1051l-225 -459h448l-110 459c-10 38 -16.333 63.667 -19 77c-5.33301 26 -11.333 58.333 -18 97
l-18 -44.5l-21 -52.5c-6 -16 -18.333 -41.667 -37 -77zM833.999 1724c3.33301 24.667 12.668 50.6689 28.001 78.002c13.333 24 31 44.667 53 62c22 18 46 31.667 72 41c25.333 9.33301 52.666 14 81.999 14c30 0 56.667 -4.66699 80 -14c20.667 -8 41.667 -21.667 63 -41
c20 -17.333 33.667 -38 41 -62c8.66699 -26 11 -52.667 7 -80c-3.33301 -25.333 -12.333 -51 -27 -77c-13.333 -24 -31.666 -44 -54.999 -60c-32.667 -22.667 -56.667 -36.334 -72 -41.001c-26.667 -8 -55.334 -12 -86.001 -12c-26.667 0 -52.667 4 -78 12
c-19.333 6 -39.666 19.667 -60.999 41c-19.333 19.333 -32.333 39.333 -39 60c-8.66699 27.333 -11.334 53.666 -8.00098 78.999zM954.001 1722c-4 -26 1.66602 -47.667 16.999 -65c14.667 -16.667 36.334 -25 65.001 -25c28 0 51.333 8.33301 70 25c18 16 29 37.667 33 65
c4 28 -1.66699 50.667 -17 68c-14.667 16.667 -35.667 25 -63 25c-29.333 0 -53.333 -8.33301 -72 -25c-18 -16 -29 -38.667 -33 -68z" />
    <glyph glyph-name="AE" unicode="&#xc6;" horiz-adv-x="2150" 
d="M1905 1130c0 40 0.667969 83.998 2.00098 131.998h-533l2 -410h506l-27 -213h-481v-418h406c14.667 66 24.667 109.667 30 131c8 26 25.333 39 52 39h86h24h8l-30 -248h-2l-19 -143h-811h-4h-151l14 121c4 34 23.667 55 59 63c0.666992 0 2 0.166992 4 0.5
s4.83301 0.833008 8.5 1.5l10.5 2c2.66699 0.666992 10.167 2.33398 22.5 5.00098s23.166 4.66699 32.499 6v166h-532l-113 -187c22 -10 38.333 -16.667 49 -20c25.333 -11.333 37 -29.333 35 -54l-14 -104h-234h-16h-17h-192h-41l12 104c2 24 17.667 42 47 54
c1.33301 0.666992 7.16602 2.83398 17.499 6.50098l39.5 14.5c16 6 32.667 12.667 50 20l690 1093c-0.666992 0 -2.5 0.333008 -5.5 1s-5.16699 1 -6.5 1s-3.66602 0.333008 -6.99902 1s-5.33301 1 -6 1c-32.667 8 -47 29.333 -43 64l15 121h172h4h1093l-16 -144h2l-31 -245
h-8h-24h-86c-26.667 0 -41 12.667 -43 38zM700.001 558.998l414 0.000976562v717c-8 -20.667 -23.667 -53.334 -47 -98.001c-5.33301 -10.667 -13 -25.167 -23 -43.5l-22 -40.5z" />
    <glyph glyph-name="Ccedilla" unicode="&#xc7;" horiz-adv-x="1390" 
d="M1141 332l94 -118.997c-70.667 -75.333 -151.334 -132 -242.001 -170c-73.333 -32 -160 -51 -260 -57l-16 -43c62 -14.667 102.333 -34.667 121 -60c20 -26.667 28 -57.334 24 -92.001c-2 -21.333 -10 -41 -24 -59c-14.667 -18.667 -34 -34.334 -58 -47.001
c-30.667 -16 -58 -26.333 -82 -31c-34.667 -6.66699 -68.667 -10 -102 -10c-26.667 0 -52.667 2 -78 6c-28.667 4.66699 -51.667 10 -69 16l32 78c6 16.667 17 25 33 25c6.66699 0 11.334 -0.666992 14.001 -2c5.33301 -2.66699 11 -5 17 -7
c2 -0.666992 5.16699 -1.33398 9.5 -2.00098s7.83301 -1.33398 10.5 -2.00098c5.33301 -1.33301 15 -2 29 -2c21.333 0 38.333 4.33301 51 13c12 8 19 18 21 30c2 20.667 -8.33301 35 -31 43c-32.667 10.667 -69.667 18.334 -111 23.001l54 125
c-70.667 7.33301 -136.334 25 -197.001 53c-86.667 38 -155.667 90 -207 156c-52 67.333 -89.667 147 -113 239c-22.667 89.333 -26.667 191 -12 305c14.667 116.667 45.334 218.667 92.001 306c48.667 91.333 110.334 170.333 185.001 237c77.333 69.333 164 122 260 158
c97.333 36.667 202.333 55 315 55c126 0 276.333 -35.333 451 -106l-15 -131l-2 -17l-28 -229h-9h-26h-84c-26.667 0 -41 12.333 -43 37c0 48.667 0.666992 103 2 163c-110 33.333 -202.333 50 -277 50v-2c-74 0 -139.333 -11.667 -196 -35c-63.333 -26 -118 -61 -164 -105
s-85 -98.667 -117 -164c-32 -64.667 -53 -137.667 -63 -219c-10 -84 -7.33301 -157.667 8 -221c15.333 -64 40.666 -118.667 75.999 -164c31.333 -40.667 75 -74.667 131 -102c47.333 -23.333 104 -35 170 -35c38 0 72.667 2 104 6c18 2 46.667 9 86 21
c26.667 8 52 18.667 76 32c18.667 10.667 44 28.667 76 54c8 6 15.333 10.667 22 14c8 4 16.333 6 25 6c14.667 0 27 -6 37 -18z" />
    <glyph glyph-name="Egrave" unicode="&#xc8;" horiz-adv-x="1347" 
d="M377 1481h934.002l-19 -144l-10 -75l-20 -170h-9h-24h-84c-26.667 0 -41 12.667 -43 38c0 1.33301 -0.166992 9 -0.5 23s-0.5 30.333 -0.5 49s0.333008 38.667 1 60h-475l-52 -410h502l-26 -213h-500l-53 -418h477c9.33301 42 19.666 85.667 30.999 131
c8 26 25.667 39 53 39h84h24h9l-21 -170l-10 -78l-17 -143h-933h-156l14 121c4 34 24 55 60 63c1.33301 0 3.16602 0.333008 5.49902 1s4.5 1 6.5 1s6.83301 1 14.5 3s13.834 3.33301 18.501 4l26 4.5c13.333 2.33301 25 4.16602 35 5.49902l131 1075l-32 5.5
c-13.333 2.33301 -22.333 3.83301 -27 4.5s-10.167 1.83398 -16.5 3.50098s-10.5 2.5 -12.5 2.5c-2.66699 0 -5.33398 0.333008 -8.00098 1l-4 1c-32.667 8 -47 29.333 -43 64l14 121h156zM756.002 1835c4.66699 0 10.832 -0.333984 18.499 -1.00098s13.167 -1 16.5 -1
c8 0 16 -2 24 -6c12 -6 19 -10 21 -12l20 -21l176 -209h-201c-3.33301 0 -7.66602 0.333008 -12.999 1s-9 1 -11 1c-8.66699 0 -15 0.666992 -19 2c-8 2.66699 -14 5.33398 -18 8.00098c-10 6.66699 -16 11 -18 13l-277 225h281z" />
    <glyph glyph-name="Eacute" unicode="&#xc9;" horiz-adv-x="1347" 
d="M377 1481h934.002l-19 -144l-10 -75l-20 -170h-9h-24h-84c-26.667 0 -41 12.667 -43 38c0 1.33301 -0.166992 9 -0.5 23s-0.5 30.333 -0.5 49s0.333008 38.667 1 60h-475l-52 -410h502l-26 -213h-500l-53 -418h477c9.33301 42 19.666 85.667 30.999 131
c8 26 25.667 39 53 39h84h24h9l-21 -170l-10 -78l-17 -143h-933h-156l14 121c4 34 24 55 60 63c1.33301 0 3.16602 0.333008 5.49902 1s4.5 1 6.5 1s6.83301 1 14.5 3s13.834 3.33301 18.501 4l26 4.5c13.333 2.33301 25 4.16602 35 5.49902l131 1075l-32 5.5
c-13.333 2.33301 -22.333 3.83301 -27 4.5s-10.167 1.83398 -16.5 3.50098s-10.5 2.5 -12.5 2.5c-2.66699 0 -5.33398 0.333008 -8.00098 1l-4 1c-32.667 8 -47 29.333 -43 64l14 121h156zM1294 1835l-328.997 -223l-13 -7.5c-5.33301 -3 -8.66602 -4.83301 -9.99902 -5.5
c-2.66699 -2 -9.33398 -4.66699 -20.001 -8c-8 -2.66699 -15 -4 -21 -4c-2.66699 0 -7 -0.333008 -13 -1s-10.667 -1 -14 -1h-198l227 207c11.333 11.333 19.666 19 24.999 23c8 6 16 10 24 12c8 4 17 6 27 6c3.33301 0 8.66602 0.333008 15.999 1s13.666 1 18.999 1h280z
" />
    <glyph glyph-name="Ecircumflex" unicode="&#xca;" horiz-adv-x="1347" 
d="M377 1481h934.002l-19 -144l-10 -75l-20 -170h-9h-24h-84c-26.667 0 -41 12.667 -43 38c0 1.33301 -0.166992 9 -0.5 23s-0.5 30.333 -0.5 49s0.333008 38.667 1 60h-475l-52 -410h502l-26 -213h-500l-53 -418h477c9.33301 42 19.666 85.667 30.999 131
c8 26 25.667 39 53 39h84h24h9l-21 -170l-10 -78l-17 -143h-933h-156l14 121c4 34 24 55 60 63c1.33301 0 3.16602 0.333008 5.49902 1s4.5 1 6.5 1s6.83301 1 14.5 3s13.834 3.33301 18.501 4l26 4.5c13.333 2.33301 25 4.16602 35 5.49902l131 1075l-32 5.5
c-13.333 2.33301 -22.333 3.83301 -27 4.5s-10.167 1.83398 -16.5 3.50098s-10.5 2.5 -12.5 2.5c-2.66699 0 -5.33398 0.333008 -8.00098 1l-4 1c-32.667 8 -47 29.333 -43 64l14 121h156zM1245 1585l-191.998 -0.00195312c-6 0 -17 1.33301 -33 4
c-12.667 2 -22.334 6.33301 -29.001 13l-94 69c-0.666992 0.666992 -2 1.33398 -4 2.00098s-3.33301 1.33398 -4 2.00098s-1.66699 2 -3 4s-2.33301 3.33301 -3 4l-6 -6c-0.666992 -0.666992 -4.33398 -2.66699 -11.001 -6l-112 -69c-8.66699 -6.66699 -19 -11 -31 -13
c-16 -2.66699 -27.667 -4 -35 -4h-190l274 225h252z" />
    <glyph glyph-name="Edieresis" unicode="&#xcb;" horiz-adv-x="1347" 
d="M377 1481h934.002l-19 -144l-10 -75l-20 -170h-9h-24h-84c-26.667 0 -41 12.667 -43 38c0 1.33301 -0.166992 9 -0.5 23s-0.5 30.333 -0.5 49s0.333008 38.667 1 60h-475l-52 -410h502l-26 -213h-500l-53 -418h477c9.33301 42 19.666 85.667 30.999 131
c8 26 25.667 39 53 39h84h24h9l-21 -170l-10 -78l-17 -143h-933h-156l14 121c4 34 24 55 60 63c1.33301 0 3.16602 0.333008 5.49902 1s4.5 1 6.5 1s6.83301 1 14.5 3s13.834 3.33301 18.501 4l26 4.5c13.333 2.33301 25 4.16602 35 5.49902l131 1075l-32 5.5
c-13.333 2.33301 -22.333 3.83301 -27 4.5s-10.167 1.83398 -16.5 3.50098s-10.5 2.5 -12.5 2.5c-2.66699 0 -5.33398 0.333008 -8.00098 1l-4 1c-32.667 8 -47 29.333 -43 64l14 121h156zM803.002 1708c-2 -18 -8.33203 -35.6709 -18.999 -53.0039
s-22.667 -31.666 -36 -42.999c-16.667 -14 -32.667 -23.667 -48 -29c-20 -6.66699 -38.333 -10 -55 -10c-18.667 0 -35.667 3.33301 -51 10s-28.333 16.334 -39 29.001c-8.66699 10 -16.334 24.333 -23.001 43c-4.66699 13.333 -6 30.333 -4 51s7.66699 38.334 17 53.001
c13.333 21.333 25 36.333 35 45c12 10.667 27 20.334 45 29.001c16 8 33.667 12 53 12s37 -4 53 -12s29.667 -17.667 41 -29c8.66699 -8.66699 17 -23.667 25 -45c6 -16 8 -33 6 -51zM1245 1706c-1.33301 -12.667 -7.33203 -29.666 -17.999 -50.999
c-7.33301 -15.333 -19 -29.666 -35 -42.999c-16.667 -14.667 -32.334 -24.334 -47.001 -29.001c-20 -6.66699 -37.667 -10 -53 -10c-18 0 -36 3.33301 -54 10c-14.667 5.33301 -27.667 15 -39 29c-9.33301 11.333 -17.333 25.666 -24 42.999
c-4.66699 13.333 -6 30.333 -4 51c2.66699 22 8 39.667 16 53c13.333 21.333 25 36.333 35 45c13.333 11.333 29 21 47 29s36.333 12 55 12s36 -4 52 -12c19.333 -9.33301 33 -19 41 -29c10 -12 17.333 -27 22 -45c5.33301 -22 7.33301 -39.667 6 -53z" />
    <glyph glyph-name="Igrave" unicode="&#xcc;" horiz-adv-x="845" 
d="M733 1296c-1.33301 0 -3.16895 -0.333008 -5.50195 -1s-4.5 -1 -6.5 -1s-6.5 -0.833008 -13.5 -2.5s-12.833 -2.83398 -17.5 -3.50098l-27 -4.5c-14 -2.33301 -26 -4.16602 -36 -5.49902l-131 -1075l32 -5.5c13.333 -2.33301 22.333 -3.83301 27 -4.5s10.167 -2 16.5 -4
s10.5 -3 12.5 -3c2.66699 0 5.66699 -0.333008 9 -1l5 -1c32.667 -8 47 -29 43 -63l-16 -121h-154h-276h-156l14 121c4 34 24 55 60 63c0.666992 0 2.33398 0.333008 5.00098 1s5 1 7 1s6.83301 1 14.5 3s13.834 3.33301 18.501 4l26 4.5
c13.333 2.33301 25 4.16602 35 5.49902l131 1075l-32 5.5c-13.333 2.33301 -22.333 3.83301 -27 4.5s-10.167 1.83398 -16.5 3.50098s-10.5 2.5 -12.5 2.5c-4 1.33301 -8 2 -12 2c-32.667 8 -47 29.333 -43 64l14 121h156h276h154l-14 -121c-4 -34.667 -24 -56 -60 -64z
M415.997 1835c4.66699 0 10.834 -0.333984 18.501 -1.00098s13.167 -1 16.5 -1c8 0 16 -2 24 -6c12 -6 19 -10 21 -12l20 -21l176 -209h-198c-4 0 -8.66699 0.333008 -14 1s-9 1 -11 1c-9.33301 0 -16 0.666992 -20 2c-6.66699 2 -12.334 4.66699 -17.001 8
c-1.33301 0.666992 -3.33301 1.83398 -6 3.50098l-7.5 4.5c-2.33301 1.33301 -4.5 3 -6.5 5l-277 225h281z" />
    <glyph glyph-name="Iacute" unicode="&#xcd;" horiz-adv-x="991" 
d="M733 1296c-1.33301 0 -3.16895 -0.333008 -5.50195 -1s-4.5 -1 -6.5 -1s-6.5 -0.833008 -13.5 -2.5s-12.833 -2.83398 -17.5 -3.50098l-27 -4.5c-14 -2.33301 -26 -4.16602 -36 -5.49902l-131 -1075l32 -5.5c13.333 -2.33301 22.333 -3.83301 27 -4.5s10.167 -2 16.5 -4
s10.5 -3 12.5 -3c2.66699 0 5.66699 -0.333008 9 -1l5 -1c32.667 -8 47 -29 43 -63l-16 -121h-154h-276h-156l14 121c4 34 24 55 60 63c0.666992 0 2.33398 0.333008 5.00098 1s5 1 7 1s6.83301 1 14.5 3s13.834 3.33301 18.501 4l26 4.5
c13.333 2.33301 25 4.16602 35 5.49902l131 1075l-32 5.5c-13.333 2.33301 -22.333 3.83301 -27 4.5s-10.167 1.83398 -16.5 3.50098s-10.5 2.5 -12.5 2.5c-4 1.33301 -8 2 -12 2c-32.667 8 -47 29.333 -43 64l14 121h156h276h154l-14 -121c-4 -34.667 -24 -56 -60 -64z
M955.997 1835l-330.998 -223l-13 -7.5c-5.33301 -3 -8.66602 -4.83301 -9.99902 -5.5c-2.66699 -2 -9.33398 -4.66699 -20.001 -8c-8 -2.66699 -15 -4 -21 -4c-2.66699 0 -6.5 -0.333008 -11.5 -1s-9.16699 -1 -12.5 -1h-199l225 209c2 2 11 9 27 21
c8.66699 6.66699 16 10.667 22 12c8 4 17 6 27 6c3.33301 0 8.66602 0.333008 15.999 1s13.666 1 18.999 1h282z" />
    <glyph glyph-name="Icircumflex" unicode="&#xce;" horiz-adv-x="940" 
d="M733 1296c-1.33301 0 -3.16895 -0.333008 -5.50195 -1s-4.5 -1 -6.5 -1s-6.5 -0.833008 -13.5 -2.5s-12.833 -2.83398 -17.5 -3.50098l-27 -4.5c-14 -2.33301 -26 -4.16602 -36 -5.49902l-131 -1075l32 -5.5c13.333 -2.33301 22.333 -3.83301 27 -4.5s10.167 -2 16.5 -4
s10.5 -3 12.5 -3c2.66699 0 5.66699 -0.333008 9 -1l5 -1c32.667 -8 47 -29 43 -63l-16 -121h-154h-276h-156l14 121c4 34 24 55 60 63c0.666992 0 2.33398 0.333008 5.00098 1s5 1 7 1s6.83301 1 14.5 3s13.834 3.33301 18.501 4l26 4.5
c13.333 2.33301 25 4.16602 35 5.49902l131 1075l-32 5.5c-13.333 2.33301 -22.333 3.83301 -27 4.5s-10.167 1.83398 -16.5 3.50098s-10.5 2.5 -12.5 2.5c-4 1.33301 -8 2 -12 2c-32.667 8 -47 29.333 -43 64l14 121h156h276h154l-14 -121c-4 -34.667 -24 -56 -60 -64z
M904.997 1585l-191.998 -0.00195312c-6 0 -17 1.33301 -33 4c-12.667 2 -22.334 6.33301 -29.001 13l-94 69c-0.666992 0.666992 -2 1.33398 -4 2.00098s-3.33301 1.33398 -4 2.00098s-1.66699 2 -3 4s-2.33301 3.33301 -3 4l-6 -6
c-0.666992 -0.666992 -4.33398 -2.66699 -11.001 -6l-112 -69c-8.66699 -6.66699 -19 -11 -31 -13c-16 -2.66699 -27.667 -4 -35 -4h-190l274 225h252z" />
    <glyph glyph-name="Idieresis" unicode="&#xcf;" horiz-adv-x="940" 
d="M733 1296c-1.33301 0 -3.16895 -0.333008 -5.50195 -1s-4.5 -1 -6.5 -1s-6.5 -0.833008 -13.5 -2.5s-12.833 -2.83398 -17.5 -3.50098l-27 -4.5c-14 -2.33301 -26 -4.16602 -36 -5.49902l-131 -1075l32 -5.5c13.333 -2.33301 22.333 -3.83301 27 -4.5s10.167 -2 16.5 -4
s10.5 -3 12.5 -3c2.66699 0 5.66699 -0.333008 9 -1l5 -1c32.667 -8 47 -29 43 -63l-16 -121h-154h-276h-156l14 121c4 34 24 55 60 63c0.666992 0 2.33398 0.333008 5.00098 1s5 1 7 1s6.83301 1 14.5 3s13.834 3.33301 18.501 4l26 4.5
c13.333 2.33301 25 4.16602 35 5.49902l131 1075l-32 5.5c-13.333 2.33301 -22.333 3.83301 -27 4.5s-10.167 1.83398 -16.5 3.50098s-10.5 2.5 -12.5 2.5c-4 1.33301 -8 2 -12 2c-32.667 8 -47 29.333 -43 64l14 121h156h276h154l-14 -121c-4 -34.667 -24 -56 -60 -64z
M462.997 1708c-2 -18 -8.33398 -35.6709 -19.001 -53.0039s-22.667 -31.666 -36 -42.999c-16.667 -14 -32.667 -23.667 -48 -29c-20 -6.66699 -38.333 -10 -55 -10c-18.667 0 -35.667 3.33301 -51 10s-28.333 16.334 -39 29.001c-7.33301 8.66699 -14.666 23 -21.999 43
c-5.33301 14.667 -7 32.334 -5 53.001c2 19.333 7.66699 36.333 17 51c13.333 21.333 25 36.333 35 45c12 10.667 27 20.334 45 29.001c16 8 33.667 12 53 12s37 -4 53 -12s29.667 -17.667 41 -29c8.66699 -8.66699 17 -23.667 25 -45c6 -16 8 -33 6 -51zM904.996 1706
c-1.33301 -12.667 -7.33203 -29.666 -17.999 -50.999c-7.33301 -15.333 -19 -29.666 -35 -42.999c-16.667 -14.667 -32.334 -24.334 -47.001 -29.001c-20 -6.66699 -37.667 -10 -53 -10c-18 0 -36 3.33301 -54 10c-14.667 5.33301 -27.667 15 -39 29
c-9.33301 11.333 -17.333 25.666 -24 42.999c-4.66699 13.333 -6 30.333 -4 51c2.66699 22 8 39.667 16 53c13.333 21.333 25 36.333 35 45c13.333 11.333 29 21 47 29s36.333 12 55 12s36 -4 52 -12c19.333 -9.33301 33 -19 41 -29c10 -12 17.333 -27 22 -45
c5.33301 -22 7.33301 -39.667 6 -53z" />
    <glyph glyph-name="Eth" unicode="&#xd0;" horiz-adv-x="1626" 
d="M1561 1040c24.667 -89.333 29.998 -189.001 15.998 -299.001c-14.667 -112 -44.667 -211.667 -90 -299c-47.333 -90.667 -108 -169 -182 -235c-71.333 -63.333 -156 -114 -254 -152c-95.333 -36.667 -200 -55 -314 -55h-542h-156l14 121c4 34 24 55 60 63
c4.66699 0.666992 9 1.33398 13 2.00098s14.333 2.5 31 5.5l62 11.5l57 465h-184l19 155h184l55 455c-60 11.333 -93.333 17.333 -100 18c-32.667 8 -47 29.333 -43 64l14 121h156h543c110.667 0 210.334 -18.667 299.001 -56c90.667 -38 163 -88.333 217 -151
c58.667 -68 100.334 -146 125.001 -234zM1237 521.999c28.667 58 48.333 131 59 219c10 82 8 154.333 -6 217c-14.667 65.333 -39 120 -73 164c-35.333 45.333 -80 80.333 -134 105c-51.333 23.333 -114.666 35 -189.999 35h-266l-54 -439h369l-18 -155h-371l-55 -449h266
c72.667 0 139 12.333 199 37c64.667 26.667 117.667 60.667 159 102c45.333 45.333 83.666 100 114.999 164z" />
    <glyph glyph-name="Ntilde" unicode="&#xd1;" horiz-adv-x="1818" 
d="M1626 1481l153.999 0.000976562l-15 -121c-4 -34.667 -23.667 -56 -59 -64c-1.33301 0 -3.16602 -0.333008 -5.49902 -1s-4.5 -1 -6.5 -1s-6.5 -0.833008 -13.5 -2.5s-12.833 -2.83398 -17.5 -3.50098l-28 -4.5c-14.667 -2.33301 -26.667 -4.16602 -36 -5.49902
l-155 -1278h-144c-20 0 -37.667 3.33301 -53 10c-11.333 4.66699 -23.666 17 -36.999 37l-653 985c0 -28.667 -0.666992 -49.667 -2 -63l-6 -60l-88 -706l68 -10l47.5 -7c9 -1.33301 14.167 -2 15.5 -2c34 -8 49 -29 45 -63l-16 -121h-185h-241h-156l14 121
c4 34 24 55 60 63c4 0 8 0.666992 12 2c8 2.66699 19 5 33 7l26 4.5c13.333 2.33301 25 4.16602 35 5.49902l131 1075l-32 5.5c-13.333 2.33301 -22.333 3.83301 -27 4.5s-10.167 1.83398 -16.5 3.50098s-10.5 2.5 -12.5 2.5c-2.66699 0 -5.33398 0.333008 -8.00098 1l-4 1
c-32.667 8 -47 29.333 -43 64l14 121h156h143c4 0 9.66699 -0.333008 17 -1s12 -1 14 -1c7.33301 0 14 -2 20 -6c6 -2 12.333 -6.33301 19 -13c2.66699 -2.66699 8 -10.667 16 -24l658 -990c0 31.333 0.666992 54.666 2 69.999c2.66699 30.667 4.66699 52.667 6 66l86 696
c-84 12 -127.667 18 -131 18c-32.667 8 -47 29.333 -43 64l14 121h184h244zM1176 1741c18.667 0 33.665 4.66309 44.998 13.9961c12 10 20 26.333 24 49h137c-4 -33.333 -12 -64.666 -24 -93.999c-10 -24.667 -25.667 -48.667 -47 -72c-14 -15.333 -36 -30.333 -66 -45
c-24.667 -12 -52.667 -18 -84 -18c-23.333 0 -46.333 4 -69 12c-8 2.66699 -29.333 11 -64 25c-23.333 9.33301 -41.666 17.333 -54.999 24c-14.667 7.33301 -30.334 11 -47.001 11c-18.667 0 -33.667 -5.66699 -45 -17c-13.333 -13.333 -21.666 -29.666 -24.999 -48.999
h-139c4 32 12 62.667 24 92c12.667 30.667 28.334 55.334 47.001 74.001s41.334 34.334 68.001 47.001c22 10.667 50 16 84 16c27.333 0 50.666 -3.33301 69.999 -10c15.333 -5.33301 36.333 -13.333 63 -24c16.667 -6.66699 35 -15 55 -25
c13.333 -6.66699 29.333 -10 48 -10z" />
    <glyph glyph-name="Ograve" unicode="&#xd2;" horiz-adv-x="1597" 
d="M1548 741c-14.667 -112.667 -44.666 -213.668 -89.999 -303.001c-46 -90 -106.667 -169.667 -182 -239c-74 -68 -159.333 -120.667 -256 -158c-98.667 -38 -203 -57 -313 -57c-108.667 0 -208.334 19 -299.001 57c-90 38 -163.333 90.667 -220 158
c-56 67.333 -96.667 147 -122 239c-26 96.667 -32.333 197.667 -19 303c14 108 44.667 208.333 92 301c46 90 107 170 183 240c73.333 67.333 159.333 120 258 158s203 57 313 57c113.333 0 213 -19 299 -57c90 -40 162.333 -92.667 217 -158
c56.667 -68 97.667 -148 123 -240c24.667 -91.333 30 -191.666 16 -300.999zM1266 740.999c10 84 8.66699 156.332 -4 216.999c-14 64.667 -38.667 120 -74 166c-34 44 -78.333 78.333 -133 103c-54 24.667 -117.667 37 -191 37s-140 -12.333 -200 -37
c-61.333 -25.333 -114.666 -59.666 -159.999 -102.999c-44.667 -42.667 -83 -98 -115 -166c-29.333 -62.667 -49 -135 -59 -217c-10 -80.667 -8 -153.667 6 -219c13.333 -63.333 38 -118 74 -164c34 -44 79 -78.667 135 -104c51.333 -23.333 114.666 -35 189.999 -35
c77.333 0 144.333 11.667 201 35c61.333 25.333 114 60 158 104c50 50 88 104.667 114 164c28.667 66 48 139 58 219zM788.001 1835c5.33301 0 11.8301 -0.333008 19.4971 -1s12.834 -1 15.501 -1c10 0 19 -2 27 -6c10.667 -5.33301 17.334 -9.33301 20.001 -12l21 -21
l176 -207h-201h-24c-10 0 -17 0.666992 -21 2c-5.33301 2 -10.666 4.66699 -15.999 8c-8 5.33301 -14.333 10.333 -19 15l-278 223h280z" />
    <glyph glyph-name="Oacute" unicode="&#xd3;" horiz-adv-x="1597" 
d="M1548 741c-14.667 -112.667 -44.666 -213.668 -89.999 -303.001c-46 -90 -106.667 -169.667 -182 -239c-74 -68 -159.333 -120.667 -256 -158c-98.667 -38 -203 -57 -313 -57c-108.667 0 -208.334 19 -299.001 57c-90 38 -163.333 90.667 -220 158
c-56 67.333 -96.667 147 -122 239c-26 96.667 -32.333 197.667 -19 303c14 108 44.667 208.333 92 301c46 90 107 170 183 240c73.333 67.333 159.333 120 258 158s203 57 313 57c113.333 0 213 -19 299 -57c90 -40 162.333 -92.667 217 -158
c56.667 -68 97.667 -148 123 -240c24.667 -91.333 30 -191.666 16 -300.999zM1266 740.999c10 84 8.66699 156.332 -4 216.999c-14 64.667 -38.667 120 -74 166c-34 44 -78.333 78.333 -133 103c-54 24.667 -117.667 37 -191 37s-140 -12.333 -200 -37
c-61.333 -25.333 -114.666 -59.666 -159.999 -102.999c-44.667 -42.667 -83 -98 -115 -166c-29.333 -62.667 -49 -135 -59 -217c-10 -80.667 -8 -153.667 6 -219c13.333 -63.333 38 -118 74 -164c34 -44 79 -78.667 135 -104c51.333 -23.333 114.666 -35 189.999 -35
c77.333 0 144.333 11.667 201 35c61.333 25.333 114 60 158 104c50 50 88 104.667 114 164c28.667 66 48 139 58 219zM1329 1835l-330.001 -221c-2.66699 -2 -10 -7 -22 -15c-2 -1.33301 -9 -4 -21 -8c-8 -2.66699 -15.333 -4 -22 -4c-2.66699 0 -6.66699 -0.333008 -12 -1
s-9.66602 -1 -12.999 -1h-198l227 209c6 6 14.333 13 25 21c8 6 16 10 24 12c8 4 16.333 6 25 6c2.66699 0 8 0.333008 16 1s14.333 1 19 1h282z" />
    <glyph glyph-name="Ocircumflex" unicode="&#xd4;" horiz-adv-x="1597" 
d="M1548 741c-14.667 -112.667 -44.666 -213.668 -89.999 -303.001c-46 -90 -106.667 -169.667 -182 -239c-74 -68 -159.333 -120.667 -256 -158c-98.667 -38 -203 -57 -313 -57c-108.667 0 -208.334 19 -299.001 57c-90 38 -163.333 90.667 -220 158
c-56 67.333 -96.667 147 -122 239c-26 96.667 -32.333 197.667 -19 303c14 108 44.667 208.333 92 301c46 90 107 170 183 240c73.333 67.333 159.333 120 258 158s203 57 313 57c113.333 0 213 -19 299 -57c90 -40 162.333 -92.667 217 -158
c56.667 -68 97.667 -148 123 -240c24.667 -91.333 30 -191.666 16 -300.999zM1266 740.999c10 84 8.66699 156.332 -4 216.999c-14 64.667 -38.667 120 -74 166c-34 44 -78.333 78.333 -133 103c-54 24.667 -117.667 37 -191 37s-140 -12.333 -200 -37
c-61.333 -25.333 -114.666 -59.666 -159.999 -102.999c-44.667 -42.667 -83 -98 -115 -166c-29.333 -62.667 -49 -135 -59 -217c-10 -80.667 -8 -153.667 6 -219c13.333 -63.333 38 -118 74 -164c34 -44 79 -78.667 135 -104c51.333 -23.333 114.666 -35 189.999 -35
c77.333 0 144.333 11.667 201 35c61.333 25.333 114 60 158 104c50 50 88 104.667 114 164c28.667 66 48 139 58 219zM1280 1587h-193c-5.33301 0 -16 1.33301 -32 4c-12.667 2 -22.334 6.33301 -29.001 13l-94 67c-0.666992 0.666992 -2 1.66699 -4 3
s-3.33301 2.33301 -4 3l-6 6l-7 -6c-1.33301 -1.33301 -4.66602 -3.33301 -9.99902 -6l-113 -67c-9.33301 -6.66699 -19.333 -11 -30 -13c-16 -2.66699 -27.667 -4 -35 -4h-191l275 223h252z" />
    <glyph glyph-name="Otilde" unicode="&#xd5;" horiz-adv-x="1597" 
d="M1548 741c-14.667 -112.667 -44.666 -213.668 -89.999 -303.001c-46 -90 -106.667 -169.667 -182 -239c-74 -68 -159.333 -120.667 -256 -158c-98.667 -38 -203 -57 -313 -57c-108.667 0 -208.334 19 -299.001 57c-90 38 -163.333 90.667 -220 158
c-56 67.333 -96.667 147 -122 239c-26 96.667 -32.333 197.667 -19 303c14 108 44.667 208.333 92 301c46 90 107 170 183 240c73.333 67.333 159.333 120 258 158s203 57 313 57c113.333 0 213 -19 299 -57c90 -40 162.333 -92.667 217 -158
c56.667 -68 97.667 -148 123 -240c24.667 -91.333 30 -191.666 16 -300.999zM1266 740.999c10 84 8.66699 156.332 -4 216.999c-14 64.667 -38.667 120 -74 166c-34 44 -78.333 78.333 -133 103c-54 24.667 -117.667 37 -191 37s-140 -12.333 -200 -37
c-61.333 -25.333 -114.666 -59.666 -159.999 -102.999c-44.667 -42.667 -83 -98 -115 -166c-29.333 -62.667 -49 -135 -59 -217c-10 -80.667 -8 -153.667 6 -219c13.333 -63.333 38 -118 74 -164c34 -44 79 -78.667 135 -104c51.333 -23.333 114.666 -35 189.999 -35
c77.333 0 144.333 11.667 201 35c61.333 25.333 114 60 158 104c50 50 88 104.667 114 164c28.667 66 48 139 58 219zM1051 1741c20 0 35.667 4.66699 47 14c10.667 8.66699 18 25 22 49h137c-3.33301 -31.333 -11.333 -62 -24 -92c-11.333 -26.667 -27 -51.334 -47 -74.001
c-14 -15.333 -36 -30.333 -66 -45c-22 -10.667 -50 -16 -84 -16c-26.667 0 -49.667 3.33301 -69 10c-7.33301 2.66699 -28.666 11 -63.999 25c-23.333 9.33301 -41.666 17.333 -54.999 24c-14.667 7.33301 -30.334 11 -47.001 11c-18.667 0 -33.667 -5.66699 -45 -17
c-13.333 -13.333 -21.666 -29.666 -24.999 -48.999h-139c4 32 12 62.667 24 92c11.333 27.333 28 52 50 74c19.333 19.333 41.666 35 66.999 47c24.667 12 52 18 82 18c23.333 0 46.666 -4 69.999 -12c15.333 -5.33301 36.333 -13.333 63 -24c20 -8 38.667 -16.333 56 -25
c13.333 -6.66699 29 -10 47 -10z" />
    <glyph glyph-name="Odieresis" unicode="&#xd6;" horiz-adv-x="1597" 
d="M1548 741c-14.667 -112.667 -44.666 -213.668 -89.999 -303.001c-46 -90 -106.667 -169.667 -182 -239c-74 -68 -159.333 -120.667 -256 -158c-98.667 -38 -203 -57 -313 -57c-108.667 0 -208.334 19 -299.001 57c-90 38 -163.333 90.667 -220 158
c-56 67.333 -96.667 147 -122 239c-26 96.667 -32.333 197.667 -19 303c14 108 44.667 208.333 92 301c46 90 107 170 183 240c73.333 67.333 159.333 120 258 158s203 57 313 57c113.333 0 213 -19 299 -57c90 -40 162.333 -92.667 217 -158
c56.667 -68 97.667 -148 123 -240c24.667 -91.333 30 -191.666 16 -300.999zM1266 740.999c10 84 8.66699 156.332 -4 216.999c-14 64.667 -38.667 120 -74 166c-34 44 -78.333 78.333 -133 103c-54 24.667 -117.667 37 -191 37s-140 -12.333 -200 -37
c-61.333 -25.333 -114.666 -59.666 -159.999 -102.999c-44.667 -42.667 -83 -98 -115 -166c-29.333 -62.667 -49 -135 -59 -217c-10 -80.667 -8 -153.667 6 -219c13.333 -63.333 38 -118 74 -164c34 -44 79 -78.667 135 -104c51.333 -23.333 114.666 -35 189.999 -35
c77.333 0 144.333 11.667 201 35c61.333 25.333 114 60 158 104c50 50 88 104.667 114 164c28.667 66 48 139 58 219zM836.001 1708c-2 -20.667 -7.66895 -38.333 -17.002 -53c-10 -16 -22.333 -30.333 -37 -43c-16 -14 -32.333 -23.667 -49 -29
c-20 -6.66699 -38.333 -10 -55 -10c-17.333 0 -33.666 3.33301 -48.999 10s-28.333 16.334 -39 29.001s-19 27 -25 43c-5.33301 13.333 -6.66602 31 -3.99902 53c2 16.667 8.33301 33.667 19 51c14 22.667 25.333 37.667 34 45c16 13.333 31 23.666 45 30.999
c13.333 6.66699 31.333 10 54 10c20.667 0 37.667 -3.33301 51 -10c16 -8 30.333 -18.333 43 -31c7.33301 -7.33301 15.333 -22.333 24 -45c5.33301 -14.667 7 -31.667 5 -51zM1278 1708c-2 -18 -7.33301 -35.666 -16 -52.999c-7.33301 -15.333 -19 -29.666 -35 -42.999
c-16.667 -14.667 -32.334 -24.334 -47.001 -29.001c-20 -6.66699 -38.667 -10 -56 -10c-16 0 -33 3.33301 -51 10c-16 6 -29.667 15.667 -41 29c-9.33301 11.333 -17.333 25.666 -24 42.999c-5.33301 13.333 -6.66602 31 -3.99902 53c2 18 8 35 18 51
c13.333 21.333 25 36.333 35 45c13.333 11.333 29 21 47 29s36.333 12 55 12c18 0 35 -4 51 -12c19.333 -9.33301 33 -19 41 -29c11.333 -13.333 19 -28.333 23 -45c4.66699 -18 6 -35 4 -51z" />
    <glyph glyph-name="multiply" unicode="&#xd7;" horiz-adv-x="1103" 
d="M1069 1020l-375 -332l307 -348l-149 -133l-305 346l-393 -348l-117 131l391 352l-293 334l150 133l293 -336l372 334z" />
    <glyph glyph-name="Oslash" unicode="&#xd8;" horiz-adv-x="1687" 
d="M1593 741c-14 -109.333 -44.667 -210.334 -92 -303.001c-46 -90 -106.667 -169.667 -182 -239c-74 -68 -159.333 -120.667 -256 -158c-98.667 -38 -203 -57 -313 -57c-71.333 0 -135 6.66699 -191 20s-110.667 34.666 -164 63.999l-92 -109
c-24 -28.667 -50 -47.667 -78 -57c-32.667 -11.333 -60 -17 -82 -17h-108l233 275c-68.667 66.667 -119 150.667 -151 252c-30.667 96.667 -39 205.667 -25 327c14.667 112.667 44.667 213.667 90 303c46 90 107 170 183 240c73.333 67.333 159.333 120 258 158
s203 57 313 57c68.667 0 138.334 -9 209.001 -27c67.333 -17.333 125.333 -41.666 174 -72.999l70 84c6.66699 8 16 18 28 30c12.667 12.667 21.667 20.334 27 23.001c5.33301 4 15 7.33301 29 10c13.333 2.66699 26 4 38 4h142l-213 -252
c61.333 -66 105.666 -147 132.999 -243c27.333 -95.333 34 -199.333 20 -312zM373 738.999c-10 -76.667 -8.66602 -147 4.00098 -211c12 -61.333 34.333 -114.333 67 -159l705 829c-65.333 42.667 -146 64 -242 64c-76.667 0 -143.334 -11.667 -200.001 -35
c-58.667 -24 -112 -59 -160 -105c-46 -44 -84.333 -98.667 -115 -164c-29.333 -62 -49 -135 -59 -219zM1311 740.999c7.33301 64.667 6.66797 128.333 -1.99902 191c-7.33301 54 -24.666 104.333 -51.999 151l-694 -817c61.333 -31.333 133 -47 215 -47
c77.333 0 144.333 11.667 201 35c63.333 26 116.666 60.667 159.999 104c47.333 47.333 84.666 102 111.999 164c30.667 70 50.667 143 60 219z" />
    <glyph glyph-name="Ugrave" unicode="&#xd9;" horiz-adv-x="1630" 
d="M1438 1481l155.002 -0.00195312l-14 -121c-4 -34.667 -23.667 -56 -59 -64c-1.33301 0 -3.33301 -0.333008 -6 -1s-5 -1 -7 -1s-6.66699 -0.833008 -14 -2.5s-13.333 -2.83398 -18 -3.50098l-26.5 -4.5c-13.667 -2.33301 -25.5 -4.16602 -35.5 -5.49902l-84 -684
c-10 -86 -34 -167.333 -72 -244c-35.333 -71.333 -84.333 -136 -147 -194c-60 -54 -129.667 -96.333 -209 -127c-77.333 -30 -164 -45 -260 -45c-98 0 -182 15 -252 45c-68.667 29.333 -127.334 71.666 -176.001 126.999c-47.333 55.333 -80 120 -98 194
c-18.667 76 -23 157.333 -13 244l84 684l-32 5.5c-13.333 2.33301 -22.333 3.83301 -27 4.5s-10.5 1.83398 -17.5 3.50098s-11.5 2.5 -13.5 2.5c-2.66699 0 -5.33398 0.333008 -8.00098 1l-4 1c-32.667 8 -47 29.333 -43 64l14 121h156h274h164l-14 -121
c-4 -34.667 -24 -56 -60 -64c-1.33301 0 -3.5 -0.333008 -6.5 -1s-5.5 -1 -7.5 -1s-7.33301 -0.833008 -16 -2.5s-15.667 -2.83398 -21 -3.50098s-15 -2.16699 -29 -4.5l-34 -5.5l-84 -682c-6.66699 -61.333 -5.33398 -112.666 3.99902 -153.999
c10.667 -48 27.667 -87.333 51 -118c22.667 -29.333 55.334 -54 98.001 -74c38.667 -18 85.334 -27 140.001 -27c52 0 100.333 9 145 27c48 19.333 87 44 117 74c34 34 60.667 72.667 80 116c23.333 52.667 37.666 104 42.999 154l84 684
c-6 0.666992 -13.5 1.83398 -22.5 3.50098s-16.667 3 -23 4s-11.833 1.83301 -16.5 2.5c-5.33301 0.666992 -12 1.83398 -20 3.50098s-13 2.5 -15 2.5c-2.66699 0 -5.66699 0.333008 -9 1l-5 1c-34 8 -49 29.333 -45 64l16 121h164h275zM723.002 1833h33.001
c9.33301 0 18 -2 26 -6s15 -9 21 -15l20 -20l176 -207h-200c-4 0 -8.83301 0.333008 -14.5 1s-9.16699 1 -10.5 1c-9.33301 0 -16 0.666992 -20 2c-6.66699 2 -12.334 4.66699 -17.001 8c-10 6.66699 -16 11 -18 13l-277 223h281z" />
    <glyph glyph-name="Uacute" unicode="&#xda;" horiz-adv-x="1630" 
d="M1438 1481l155.002 -0.00195312l-14 -121c-4 -34.667 -23.667 -56 -59 -64c-1.33301 0 -3.33301 -0.333008 -6 -1s-5 -1 -7 -1s-6.66699 -0.833008 -14 -2.5s-13.333 -2.83398 -18 -3.50098l-26.5 -4.5c-13.667 -2.33301 -25.5 -4.16602 -35.5 -5.49902l-84 -684
c-10 -86 -34 -167.333 -72 -244c-35.333 -71.333 -84.333 -136 -147 -194c-60 -54 -129.667 -96.333 -209 -127c-77.333 -30 -164 -45 -260 -45c-98 0 -182 15 -252 45c-68.667 29.333 -127.334 71.666 -176.001 126.999c-47.333 55.333 -80 120 -98 194
c-18.667 76 -23 157.333 -13 244l84 684l-32 5.5c-13.333 2.33301 -22.333 3.83301 -27 4.5s-10.5 1.83398 -17.5 3.50098s-11.5 2.5 -13.5 2.5c-2.66699 0 -5.33398 0.333008 -8.00098 1l-4 1c-32.667 8 -47 29.333 -43 64l14 121h156h274h164l-14 -121
c-4 -34.667 -24 -56 -60 -64c-1.33301 0 -3.5 -0.333008 -6.5 -1s-5.5 -1 -7.5 -1s-7.33301 -0.833008 -16 -2.5s-15.667 -2.83398 -21 -3.50098s-15 -2.16699 -29 -4.5l-34 -5.5l-84 -682c-6.66699 -61.333 -5.33398 -112.666 3.99902 -153.999
c10.667 -48 27.667 -87.333 51 -118c22.667 -29.333 55.334 -54 98.001 -74c38.667 -18 85.334 -27 140.001 -27c52 0 100.333 9 145 27c48 19.333 87 44 117 74c34 34 60.667 72.667 80 116c23.333 52.667 37.666 104 42.999 154l84 684
c-6 0.666992 -13.5 1.83398 -22.5 3.50098s-16.667 3 -23 4s-11.833 1.83301 -16.5 2.5c-5.33301 0.666992 -12 1.83398 -20 3.50098s-13 2.5 -15 2.5c-2.66699 0 -5.66699 0.333008 -9 1l-5 1c-34 8 -49 29.333 -45 64l16 121h164h275zM1262 1833l-329.996 -221
c-2.66699 -2 -6.83398 -4.5 -12.501 -7.5l-10.5 -5.5c-2.66699 -2 -9.33398 -4.66699 -20.001 -8c-8 -2.66699 -15.667 -4 -23 -4c-2.66699 0 -6.5 -0.333008 -11.5 -1s-9.16699 -1 -12.5 -1h-199l227 207c3.33301 3.33301 11.666 10 24.999 20
c11.333 8.66699 19.666 13.667 24.999 15c8 4 16 6 24 6h37h281z" />
    <glyph glyph-name="Ucircumflex" unicode="&#xdb;" horiz-adv-x="1630" 
d="M1438 1481l155.002 -0.00195312l-14 -121c-4 -34.667 -23.667 -56 -59 -64c-1.33301 0 -3.33301 -0.333008 -6 -1s-5 -1 -7 -1s-6.66699 -0.833008 -14 -2.5s-13.333 -2.83398 -18 -3.50098l-26.5 -4.5c-13.667 -2.33301 -25.5 -4.16602 -35.5 -5.49902l-84 -684
c-10 -86 -34 -167.333 -72 -244c-35.333 -71.333 -84.333 -136 -147 -194c-60 -54 -129.667 -96.333 -209 -127c-77.333 -30 -164 -45 -260 -45c-98 0 -182 15 -252 45c-68.667 29.333 -127.334 71.666 -176.001 126.999c-47.333 55.333 -80 120 -98 194
c-18.667 76 -23 157.333 -13 244l84 684l-32 5.5c-13.333 2.33301 -22.333 3.83301 -27 4.5s-10.5 1.83398 -17.5 3.50098s-11.5 2.5 -13.5 2.5c-2.66699 0 -5.33398 0.333008 -8.00098 1l-4 1c-32.667 8 -47 29.333 -43 64l14 121h156h274h164l-14 -121
c-4 -34.667 -24 -56 -60 -64c-1.33301 0 -3.5 -0.333008 -6.5 -1s-5.5 -1 -7.5 -1s-7.33301 -0.833008 -16 -2.5s-15.667 -2.83398 -21 -3.50098s-15 -2.16699 -29 -4.5l-34 -5.5l-84 -682c-6.66699 -61.333 -5.33398 -112.666 3.99902 -153.999
c10.667 -48 27.667 -87.333 51 -118c22.667 -29.333 55.334 -54 98.001 -74c38.667 -18 85.334 -27 140.001 -27c52 0 100.333 9 145 27c48 19.333 87 44 117 74c34 34 60.667 72.667 80 116c23.333 52.667 37.666 104 42.999 154l84 684
c-6 0.666992 -13.5 1.83398 -22.5 3.50098s-16.667 3 -23 4s-11.833 1.83301 -16.5 2.5c-5.33301 0.666992 -12 1.83398 -20 3.50098s-13 2.5 -15 2.5c-2.66699 0 -5.66699 0.333008 -9 1l-5 1c-34 8 -49 29.333 -45 64l16 121h164h275zM1210 1585h-189.999
c-7.33301 0 -19 1.33301 -35 4c-11.333 2 -20.333 6.33301 -27 13l-96 69c-0.666992 0.666992 -1.66699 1.33398 -3 2.00098s-2.33301 1.33398 -3 2.00098s-2 1.66699 -4 3s-3.33301 2.33301 -4 3c-0.666992 -0.666992 -1.66699 -1.33398 -3 -2.00098
s-2.33301 -1.33398 -3 -2.00098s-4.33398 -2.66699 -11.001 -6l-110 -69c-8.66699 -6.66699 -19.667 -11 -33 -13c-16 -2.66699 -27 -4 -33 -4h-192l276 225h252z" />
    <glyph glyph-name="Udieresis" unicode="&#xdc;" horiz-adv-x="1630" 
d="M1438 1481l155.002 -0.00195312l-14 -121c-4 -34.667 -23.667 -56 -59 -64c-1.33301 0 -3.33301 -0.333008 -6 -1s-5 -1 -7 -1s-6.66699 -0.833008 -14 -2.5s-13.333 -2.83398 -18 -3.50098l-26.5 -4.5c-13.667 -2.33301 -25.5 -4.16602 -35.5 -5.49902l-84 -684
c-10 -86 -34 -167.333 -72 -244c-35.333 -71.333 -84.333 -136 -147 -194c-60 -54 -129.667 -96.333 -209 -127c-77.333 -30 -164 -45 -260 -45c-98 0 -182 15 -252 45c-68.667 29.333 -127.334 71.666 -176.001 126.999c-47.333 55.333 -80 120 -98 194
c-18.667 76 -23 157.333 -13 244l84 684l-32 5.5c-13.333 2.33301 -22.333 3.83301 -27 4.5s-10.5 1.83398 -17.5 3.50098s-11.5 2.5 -13.5 2.5c-2.66699 0 -5.33398 0.333008 -8.00098 1l-4 1c-32.667 8 -47 29.333 -43 64l14 121h156h274h164l-14 -121
c-4 -34.667 -24 -56 -60 -64c-1.33301 0 -3.5 -0.333008 -6.5 -1s-5.5 -1 -7.5 -1s-7.33301 -0.833008 -16 -2.5s-15.667 -2.83398 -21 -3.50098s-15 -2.16699 -29 -4.5l-34 -5.5l-84 -682c-6.66699 -61.333 -5.33398 -112.666 3.99902 -153.999
c10.667 -48 27.667 -87.333 51 -118c22.667 -29.333 55.334 -54 98.001 -74c38.667 -18 85.334 -27 140.001 -27c52 0 100.333 9 145 27c48 19.333 87 44 117 74c34 34 60.667 72.667 80 116c23.333 52.667 37.666 104 42.999 154l84 684
c-6 0.666992 -13.5 1.83398 -22.5 3.50098s-16.667 3 -23 4s-11.833 1.83301 -16.5 2.5c-5.33301 0.666992 -12 1.83398 -20 3.50098s-13 2.5 -15 2.5c-2.66699 0 -5.66699 0.333008 -9 1l-5 1c-34 8 -49 29.333 -45 64l16 121h164h275zM768.002 1706
c-2 -18 -8 -35.001 -18 -51.001c-12 -18.667 -23.667 -33 -35 -43c-16 -14 -32.333 -23.667 -49 -29c-20 -6.66699 -38.667 -10 -56 -10s-33.666 3.33301 -48.999 10s-28.333 16.334 -39 29.001c-9.33301 11.333 -17.333 25.666 -24 42.999c-4.66699 13.333 -6 30.333 -4 51
c2.66699 22 8 39.667 16 53c13.333 21.333 25 36.333 35 45s25.667 18.334 47 29.001c16 8 33 12 51 12c19.333 0 37 -4 53 -12s29.667 -17.667 41 -29c10.667 -10.667 19.667 -25.667 27 -45c5.33301 -13.333 6.66602 -31 3.99902 -53zM1210 1706
c-2 -16 -7.33203 -32.999 -15.999 -50.999c-7.33301 -15.333 -19 -29.666 -35 -42.999c-16.667 -14.667 -32.334 -24.334 -47.001 -29.001c-20 -6.66699 -38.333 -10 -55 -10c-16 0 -33 3.33301 -51 10c-16 6 -29.667 15.667 -41 29c-10.667 12.667 -19 27 -25 43
c-4.66699 13.333 -6 30.333 -4 51c2.66699 22 8 39.667 16 53c13.333 21.333 25 36.333 35 45c12 10 28.333 19.667 49 29c18 8 36 12 54 12c19.333 0 37 -4 53 -12c16.667 -8.66699 29.667 -18.334 39 -29.001c12 -14.667 20 -29.667 24 -45c4.66699 -18 6 -35.667 4 -53z
" />
    <glyph glyph-name="Yacute" unicode="&#xdd;" horiz-adv-x="1517" 
d="M1446 1481l33.001 0.000976562l-15 -121c-4 -34.667 -23.667 -56 -59 -64c-1.33301 0 -3.16602 -0.333008 -5.49902 -1s-4.5 -1 -6.5 -1s-6.5 -0.833008 -13.5 -2.5s-12.833 -2.83398 -17.5 -3.50098l-28 -4.5c-14.667 -2.33301 -26.667 -4.16602 -36 -5.49902l-503 -703
l-45 -372l32 -5.5c13.333 -2.33301 22.333 -3.83301 27 -4.5s10.167 -2 16.5 -4s10.5 -3 12.5 -3c2.66699 0 5.66699 -0.333008 9 -1l5 -1c32.667 -8 47 -29 43 -63l-16 -121h-154h-276h-154l14 121c4 34 24 55 60 63c4 0 8 0.666992 12 2c8.66699 2.66699 19 5 31 7l27 4.5
c14 2.33301 26 4.16602 36 5.49902l45 372l-332 703l-32 5.5c-13.333 2.33301 -22.333 3.83301 -27 4.5s-10.5 1.83398 -17.5 3.50098s-11.5 2.5 -13.5 2.5c-4 1.33301 -8 2 -12 2c-32.667 8 -47 29.333 -43 64l14 121h35h37h84h121h276l-14 -121
c-4 -34.667 -23.667 -56 -59 -64c-0.666992 0 -2.33398 -0.333008 -5.00098 -1s-4.66699 -1 -6 -1c-4 -2 -10 -4 -18 -6c-3.33301 -0.666992 -8.83301 -1.83398 -16.5 -3.50098s-12.5 -2.5 -14.5 -2.5l152 -358c13.333 -32.667 23.333 -60 30 -82
c15.333 -50.667 23 -76.667 23 -78c4.66699 10.667 12.167 25.5 22.5 44.5s16.5 30.167 18.5 33.5c6.66699 12.667 23 40 49 82l240 358c-16.667 3.33301 -26.334 5.33301 -29.001 6l-10.5 3.5c-5 1.66699 -8.16699 2.5 -9.5 2.5c-2.66699 1.33301 -5.66699 2 -9 2
c-32.667 8 -47 29.333 -43 64l15 121h276h121h86h37zM1208 1833l-329.002 -220.998c-2.66699 -2 -7.16699 -4.33301 -13.5 -7s-10.166 -4.66699 -11.499 -6c-4 -2.66699 -10 -5.33398 -18 -8.00098s-15.667 -4 -23 -4c-2.66699 0 -6.66699 -0.333008 -12 -1
s-9.66602 -1 -12.999 -1h-198l225 207c2.66699 2.66699 5.5 5.16699 8.5 7.5s6.33301 4.66602 10 6.99902l8.5 5.5c12.667 9.33301 20 14.333 22 15c8 4 17 6 27 6h35h282z" />
    <glyph glyph-name="Thorn" unicode="&#xde;" horiz-adv-x="1232" 
d="M346 266l-33.001 -266h-276l182 1481h277l-31 -254h207c96.667 0 180.667 -11.667 252 -35c66.667 -22 122.667 -54.667 168 -98c40.667 -38.667 69.334 -88 86.001 -148c15.333 -54 18.666 -118 9.99902 -192c-7.33301 -66.667 -28 -132.334 -62 -197.001
c-32 -61.333 -73.667 -112.666 -125 -153.999c-49.333 -40 -113.333 -73.333 -192 -100c-73.333 -24.667 -158.666 -37 -255.999 -37h-207zM372.999 483l206.998 -0.000976562c48.667 0 93.667 6.33301 135 19c40.667 12.667 73.334 30.334 98.001 53.001
c29.333 27.333 51.333 56 66 86c17.333 36 28 73.667 32 113c4.66699 42.667 3.33398 78.667 -3.99902 108c-8 32.667 -23 60 -45 82s-51.333 39 -88 51c-39.333 12.667 -82.333 19 -129 19h-207z" />
    <glyph glyph-name="germandbls" unicode="&#xdf;" horiz-adv-x="1200" 
d="M760 1507c77.333 0 144.335 -12.3379 201.002 -37.0049c54 -23.333 96 -52 126 -86c31.333 -35.333 52.666 -72.666 63.999 -111.999c10.667 -37.333 14 -75 10 -113c-4 -36 -14.333 -69.333 -31 -100c-16 -29.333 -35.667 -54 -59 -74c-26 -22.667 -50 -41 -72 -55
l-71 -45c-24 -14.667 -42.667 -29.667 -56 -45c-15.333 -18 -24 -36 -26 -54c-2 -22 4 -41 18 -57c12.667 -14.667 32 -31 58 -49c10.667 -7.33301 36.334 -23.666 77.001 -48.999c20.667 -12.667 45.334 -34.667 74.001 -66c24 -26 41.667 -56.667 53 -92
c12 -36.667 15 -81 9 -133c-6 -54.667 -23.333 -106 -52 -154c-25.333 -42 -58.666 -78.667 -99.999 -110c-40.667 -30.667 -86.334 -54 -137.001 -70c-46.667 -14.667 -99.334 -22 -158.001 -22c-26.667 0 -57.334 3.33301 -92.001 10c-32.667 6 -61.334 14.667 -86.001 26
c-28 12.667 -52.667 26.334 -74 41.001c-24 16.667 -45 34 -63 52l71 96c7.33301 10.667 17 19.667 29 27c11.333 6.66699 25 10 41 10c13.333 0 27.666 -5 42.999 -15l43 -28c20.667 -12.667 39 -22.334 55 -29.001c23.333 -9.33301 49.333 -14 78 -14
c40.667 0 77 13 109 39c30 24 47 57.333 51 100c4 34.667 -1.33301 61.334 -16 80.001c-17.333 22 -38.666 41 -63.999 57c-36 22.667 -63.333 39 -82 49c-26 13.333 -54 32 -84 56c-25.333 20 -45 45.667 -59 77c-14.667 32.667 -19 72.334 -13 119.001
c4 36.667 15 69.667 33 99c15.333 25.333 36.666 50.333 63.999 75c28 26 54 46 78 60c5.33301 3.33301 30.333 21 75 53c23.333 16.667 44 36.334 62 59.001c16.667 20.667 27 46 31 76c2 24.667 0.333008 46 -5 64c-6 20 -16 37 -30 51
c-17.333 17.333 -38 29.666 -62 36.999c-27.333 8 -59.333 12 -96 12c-89.333 0 -160.333 -27.333 -213 -82c-53.333 -55.333 -86 -136 -98 -242l-123 -999h-254l125 1008c8 73.333 28.333 140 61 200c30 56 72.333 108 127 156c50.667 44.667 110.667 79.334 180 104.001
c72.667 26 149.334 39 230.001 39z" />
    <glyph glyph-name="agrave" unicode="&#xe0;" horiz-adv-x="1060" 
d="M975 186c34 -8 48.9971 -28.999 44.9971 -62.999l-16 -121h-127v0h-134c-31.333 0 -53 7 -65 21c-12.667 14.667 -19 33 -19 55l9 143c-49.333 -75.333 -101.333 -132.666 -156 -171.999c-56 -42 -120.333 -63 -193 -63c-38 0 -74.667 8 -110 24s-65.333 39.333 -90 70
c-25.333 29.333 -45.333 68.333 -60 117c-14.667 49.333 -22 103.666 -22 162.999c0 64 8 125.667 24 185c18 66 40 122 66 168c32 56 66.667 103.667 104 143c42 44 88.667 81.667 140 113c56.667 34.667 111.334 59 164.001 73c61.333 16.667 123.333 25 186 25
c43.333 0 91 -3.33301 143 -10c46.667 -6 93.334 -18.333 140.001 -37l-103 -821l2 2c8.66699 -1.33301 18.5 -3.33301 29.5 -6s18.167 -4.33398 21.5 -5.00098l10 -2l7.5 -1.5c1.66699 -0.333008 2.83398 -0.5 3.50098 -0.5zM697.997 567.001l39 317.999
c-24 2.66699 -41 4 -51 4c-58 0 -110.667 -13 -158 -39c-48 -26.667 -89.667 -61.667 -125 -105c-38 -48.667 -66 -99.667 -84 -153c-18.667 -53.333 -28 -115.333 -28 -186c0 -74.667 11 -128.667 33 -162c22.667 -34 54.667 -51 96 -51c26.667 0 54 9.33301 82 28
c24 16 49.333 42.667 76 80c24.667 34.667 47 74.334 67 119.001c23.333 52.667 41 101.667 53 147zM568.997 1497c27.333 0 48 -4.66797 62 -14.001c12.667 -8.66699 23 -21.667 31 -39l114 -250h-143c-15.333 0 -31 2.66699 -47 8
c-12.667 6.66699 -23.667 16.334 -33 29.001l-219 266h235z" />
    <glyph glyph-name="aacute" unicode="&#xe1;" horiz-adv-x="1060" 
d="M975 186c34 -8 48.9971 -28.999 44.9971 -62.999l-16 -121h-127v0h-134c-31.333 0 -53 7 -65 21c-12.667 14.667 -19 33 -19 55l9 143c-49.333 -75.333 -101.333 -132.666 -156 -171.999c-56 -42 -120.333 -63 -193 -63c-38 0 -74.667 8 -110 24s-65.333 39.333 -90 70
c-25.333 29.333 -45.333 68.333 -60 117c-14.667 49.333 -22 103.666 -22 162.999c0 64 8 125.667 24 185c18 66 40 122 66 168c32 56 66.667 103.667 104 143c42 44 88.667 81.667 140 113c56.667 34.667 111.334 59 164.001 73c61.333 16.667 123.333 25 186 25
c43.333 0 91 -3.33301 143 -10c46.667 -6 93.334 -18.333 140.001 -37l-103 -821l2 2c8.66699 -1.33301 18.5 -3.33301 29.5 -6s18.167 -4.33398 21.5 -5.00098l10 -2l7.5 -1.5c1.66699 -0.333008 2.83398 -0.5 3.50098 -0.5zM697.997 567.001l39 317.999
c-24 2.66699 -41 4 -51 4c-58 0 -110.667 -13 -158 -39c-48 -26.667 -89.667 -61.667 -125 -105c-38 -48.667 -66 -99.667 -84 -153c-18.667 -53.333 -28 -115.333 -28 -186c0 -74.667 11 -128.667 33 -162c22.667 -34 54.667 -51 96 -51c26.667 0 54 9.33301 82 28
c24 16 49.333 42.667 76 80c24.667 34.667 47 74.334 67 119.001c23.333 52.667 41 101.667 53 147zM1016 1497l-287 -266c-15.333 -15.333 -29 -25 -41 -29c-16 -5.33301 -31.667 -8 -47 -8h-152l177 250c11.333 16.667 25 29.667 41 39c16.667 9.33301 37.667 14 63 14
h246z" />
    <glyph glyph-name="acircumflex" unicode="&#xe2;" horiz-adv-x="1060" 
d="M975 186c34 -8 48.9971 -28.999 44.9971 -62.999l-16 -121h-127v0h-134c-31.333 0 -53 7 -65 21c-12.667 14.667 -19 33 -19 55l9 143c-49.333 -75.333 -101.333 -132.666 -156 -171.999c-56 -42 -120.333 -63 -193 -63c-38 0 -74.667 8 -110 24s-65.333 39.333 -90 70
c-25.333 29.333 -45.333 68.333 -60 117c-14.667 49.333 -22 103.666 -22 162.999c0 64 8 125.667 24 185c18 66 40 122 66 168c32 56 66.667 103.667 104 143c42 44 88.667 81.667 140 113c56.667 34.667 111.334 59 164.001 73c61.333 16.667 123.333 25 186 25
c43.333 0 91 -3.33301 143 -10c46.667 -6 93.334 -18.333 140.001 -37l-103 -821l2 2c8.66699 -1.33301 18.5 -3.33301 29.5 -6s18.167 -4.33398 21.5 -5.00098l10 -2l7.5 -1.5c1.66699 -0.333008 2.83398 -0.5 3.50098 -0.5zM697.997 567.001l39 317.999
c-24 2.66699 -41 4 -51 4c-58 0 -110.667 -13 -158 -39c-48 -26.667 -89.667 -61.667 -125 -105c-38 -48.667 -66 -99.667 -84 -153c-18.667 -53.333 -28 -115.333 -28 -186c0 -74.667 11 -128.667 33 -162c22.667 -34 54.667 -51 96 -51c26.667 0 54 9.33301 82 28
c24 16 49.333 42.667 76 80c24.667 34.667 47 74.334 67 119.001c23.333 52.667 41 101.667 53 147zM976.997 1196l-168.002 0.000976562c-20.667 0 -37 6 -49 18l-96 99c-0.666992 1.33301 -3.66699 4.66602 -9 9.99902s-8.66602 9.33301 -9.99902 12l-12 -12
c-1.33301 -1.33301 -3.33301 -3 -6 -5s-4.66699 -3.66699 -6 -5l-121 -99c-5.33301 -3.33301 -13.666 -7.33301 -24.999 -12c-10 -4 -19.667 -6 -29 -6h-176l271 285h237z" />
    <glyph glyph-name="atilde" unicode="&#xe3;" horiz-adv-x="1060" 
d="M975 186c34 -8 48.9971 -28.999 44.9971 -62.999l-16 -121h-127v0h-134c-31.333 0 -53 7 -65 21c-12.667 14.667 -19 33 -19 55l9 143c-49.333 -75.333 -101.333 -132.666 -156 -171.999c-56 -42 -120.333 -63 -193 -63c-38 0 -74.667 8 -110 24s-65.333 39.333 -90 70
c-25.333 29.333 -45.333 68.333 -60 117c-14.667 49.333 -22 103.666 -22 162.999c0 64 8 125.667 24 185c18 66 40 122 66 168c32 56 66.667 103.667 104 143c42 44 88.667 81.667 140 113c56.667 34.667 111.334 59 164.001 73c61.333 16.667 123.333 25 186 25
c43.333 0 91 -3.33301 143 -10c46.667 -6 93.334 -18.333 140.001 -37l-103 -821l2 2c8.66699 -1.33301 18.5 -3.33301 29.5 -6s18.167 -4.33398 21.5 -5.00098l10 -2l7.5 -1.5c1.66699 -0.333008 2.83398 -0.5 3.50098 -0.5zM697.997 567.001l39 317.999
c-24 2.66699 -41 4 -51 4c-58 0 -110.667 -13 -158 -39c-48 -26.667 -89.667 -61.667 -125 -105c-38 -48.667 -66 -99.667 -84 -153c-18.667 -53.333 -28 -115.333 -28 -186c0 -74.667 11 -128.667 33 -162c22.667 -34 54.667 -51 96 -51c26.667 0 54 9.33301 82 28
c24 16 49.333 42.667 76 80c24.667 34.667 47 74.334 67 119.001c23.333 52.667 41 101.667 53 147zM757.997 1393c23.333 0 40.3301 5.33301 50.9971 16c12.667 12.667 21 33 25 61h153c-3.33301 -34 -13 -68.667 -29 -104c-12 -26.667 -29.667 -53.334 -53 -80.001
c-17.333 -20 -42 -37 -74 -51c-27.333 -12 -56 -18 -86 -18c-21.333 0 -43.666 4.66699 -66.999 14c-16 6.66699 -34.333 16.334 -55 29.001c-7.33301 4.66699 -23.333 14 -48 28c-14 8 -28.333 12 -43 12c-20.667 0 -37 -6 -49 -18s-20 -31.667 -24 -59h-158
c3.33301 32.667 13 66.667 29 102c14 30.667 32.333 57.334 55 80.001c24 24 48.667 41.667 74 53c28.667 12.667 57.334 19 86.001 19c19.333 0 41.666 -5 66.999 -15c20.667 -8 39.334 -17.333 56.001 -28c26.667 -16.667 42.334 -26.334 47.001 -29.001
c14 -8 28.333 -12 43 -12z" />
    <glyph glyph-name="adieresis" unicode="&#xe4;" horiz-adv-x="1060" 
d="M975 186c34 -8 48.9971 -28.999 44.9971 -62.999l-16 -121h-127v0h-134c-31.333 0 -53 7 -65 21c-12.667 14.667 -19 33 -19 55l9 143c-49.333 -75.333 -101.333 -132.666 -156 -171.999c-56 -42 -120.333 -63 -193 -63c-38 0 -74.667 8 -110 24s-65.333 39.333 -90 70
c-25.333 29.333 -45.333 68.333 -60 117c-14.667 49.333 -22 103.666 -22 162.999c0 64 8 125.667 24 185c18 66 40 122 66 168c32 56 66.667 103.667 104 143c42 44 88.667 81.667 140 113c56.667 34.667 111.334 59 164.001 73c61.333 16.667 123.333 25 186 25
c43.333 0 91 -3.33301 143 -10c46.667 -6 93.334 -18.333 140.001 -37l-103 -821l2 2c8.66699 -1.33301 18.5 -3.33301 29.5 -6s18.167 -4.33398 21.5 -5.00098l10 -2l7.5 -1.5c1.66699 -0.333008 2.83398 -0.5 3.50098 -0.5zM697.997 567.001l39 317.999
c-24 2.66699 -41 4 -51 4c-58 0 -110.667 -13 -158 -39c-48 -26.667 -89.667 -61.667 -125 -105c-38 -48.667 -66 -99.667 -84 -153c-18.667 -53.333 -28 -115.333 -28 -186c0 -74.667 11 -128.667 33 -162c22.667 -34 54.667 -51 96 -51c26.667 0 54 9.33301 82 28
c24 16 49.333 42.667 76 80c24.667 34.667 47 74.334 67 119.001c23.333 52.667 41 101.667 53 147zM589.997 1323c-2 -18 -8.33398 -35.667 -19.001 -53s-22.667 -31.666 -36 -42.999c-14 -12 -30.667 -22.333 -50 -31c-15.333 -6.66699 -33.666 -10 -54.999 -10
c-20.667 0 -37.667 3.33301 -51 10s-27 17 -41 31c-11.333 11.333 -20.333 25.666 -27 42.999c-5.33301 13.333 -6.66602 31 -3.99902 53c2 19.333 8.33301 37.666 19 54.999c16 25.333 27.333 41 34 47c14 12 30.667 22.333 50 31c14.667 6.66699 33 10 55 10
s39.667 -3.33301 53 -10s27 -17 41 -31c10 -10 19 -25.667 27 -47c5.33301 -13.333 6.66602 -31.666 3.99902 -54.999zM972.996 1323c-2 -18 -8.33301 -35.667 -19 -53c-14 -22.667 -25.333 -37.667 -34 -45c-10.667 -9.33301 -27.334 -19 -50.001 -29
c-14.667 -6.66699 -33.667 -10 -57 -10c-22 0 -39.667 3.33301 -53 10c-19.333 9.33301 -33 19 -41 29c-10 12 -18.333 27 -25 45c-5.33301 13.333 -6.66602 31 -3.99902 53c2 19.333 8.33301 37.666 19 54.999c16 25.333 27.333 41 34 47c14 12 30.667 22.333 50 31
c14.667 6.66699 33 10 55 10s39.667 -3.33301 53 -10s27 -17 41 -31c10 -10 19 -25.667 27 -47c4.66699 -13.333 6 -31.666 4 -54.999z" />
    <glyph glyph-name="aring" unicode="&#xe5;" horiz-adv-x="1060" 
d="M975 186c34 -8 48.9971 -28.999 44.9971 -62.999l-16 -121h-127v0h-134c-31.333 0 -53 7 -65 21c-12.667 14.667 -19 33 -19 55l9 143c-49.333 -75.333 -101.333 -132.666 -156 -171.999c-56 -42 -120.333 -63 -193 -63c-38 0 -74.667 8 -110 24s-65.333 39.333 -90 70
c-25.333 29.333 -45.333 68.333 -60 117c-14.667 49.333 -22 103.666 -22 162.999c0 64 8 125.667 24 185c18 66 40 122 66 168c32 56 66.667 103.667 104 143c42 44 88.667 81.667 140 113c56.667 34.667 111.334 59 164.001 73c61.333 16.667 123.333 25 186 25
c43.333 0 91 -3.33301 143 -10c46.667 -6 93.334 -18.333 140.001 -37l-103 -821l2 2c8.66699 -1.33301 18.5 -3.33301 29.5 -6s18.167 -4.33398 21.5 -5.00098l10 -2l7.5 -1.5c1.66699 -0.333008 2.83398 -0.5 3.50098 -0.5zM697.997 567.001l39 317.999
c-24 2.66699 -41 4 -51 4c-58 0 -110.667 -13 -158 -39c-48 -26.667 -89.667 -61.667 -125 -105c-38 -48.667 -66 -99.667 -84 -153c-18.667 -53.333 -28 -115.333 -28 -186c0 -74.667 11 -128.667 33 -162c22.667 -34 54.667 -51 96 -51c26.667 0 54 9.33301 82 28
c24 16 49.333 42.667 76 80c24.667 34.667 47 74.334 67 119.001c23.333 52.667 41 101.667 53 147zM415.997 1358c4 30 14 58.666 30 85.999c14.667 24.667 34 46.334 58 65.001c24.667 19.333 50.667 33.666 78 42.999c32.667 11.333 62 17 88 17
c26.667 0 55.334 -5.66699 86.001 -17c25.333 -9.33301 47.666 -23.666 66.999 -42.999c20 -20 34.333 -41.667 43 -65c9.33301 -25.333 12 -54 8 -86c-4.66699 -33.333 -14 -61.333 -28 -84c-16 -25.333 -36 -47.333 -60 -66s-50.333 -33 -79 -43
c-27.333 -9.33301 -57 -14 -89 -14s-60.667 4.66699 -86 14c-23.333 8.66699 -45 23 -65 43c-21.333 21.333 -35.666 43.333 -42.999 66c-8.66699 28 -11.334 56 -8.00098 84zM552.997 1358c-4 -27.333 1.33496 -49.332 16.002 -65.999c15.333 -17.333 37.333 -26 66 -26
c27.333 0 50.666 8.66699 69.999 26c17.333 17.333 28 38.666 32 63.999c4 29.333 -1.33301 52.333 -16 69s-35.334 25 -62.001 25c-30 0 -54.333 -8.33301 -73 -25c-18 -16 -29 -38.333 -33 -67z" />
    <glyph glyph-name="ae" unicode="&#xe6;" horiz-adv-x="1525" 
d="M1167 1065c43.333 0 83.6699 -6.99902 121.003 -20.999c41.333 -15.333 74 -34.333 98 -57c28 -24 50 -52.667 66 -86c15.333 -31.333 23 -66 23 -104c0 -19.333 -3.66699 -45.333 -11 -78c-6 -20 -18.333 -44.667 -37 -74c-13.333 -20.667 -36.333 -42.334 -69 -65.001
s-69.667 -41.334 -111 -56.001c-43.333 -15.333 -97.333 -28.333 -162 -39c-65.333 -10.667 -137 -16 -215 -16c0 -100.667 18.667 -173.667 56 -219c38.667 -46.667 89.667 -70 153 -70c44.667 0 82.334 6.33301 113.001 19c33.333 14 58.666 27 75.999 39l28.5 19l28.5 19
c16.667 12.667 35 19 55 19c8.66699 0 17 -2 25 -6s14.667 -9.66699 20 -17l64 -77c-40.667 -40.667 -75.667 -72.334 -105 -95.001c-38 -29.333 -73.333 -51 -106 -65c-40 -17.333 -79 -29.666 -117 -36.999c-40.667 -8 -84.334 -12 -131.001 -12
c-66.667 0 -127.334 16.333 -182.001 49s-97.667 84.334 -129 155.001c-21.333 -34 -47.333 -65.333 -78 -94c-26 -24 -57.333 -45 -94 -63c-35.333 -16.667 -69.666 -29 -102.999 -37c-34.667 -8 -69.334 -12 -104.001 -12c-100 0 -175.667 21.667 -227 65
c-50.667 42.667 -76 105.667 -76 189c0 46.667 9.66699 91.667 29 135c18.667 42 52.667 82.333 102 121c43.333 34 106.666 64 189.999 90c72.667 22.667 172.334 34 299.001 34c4.66699 35.333 7.66699 57.333 9 66v33c0 53.333 -11 93 -33 119
c-21.333 25.333 -55 38 -101 38c-38 0 -68.667 -4.66699 -92 -14c-28 -11.333 -51 -22.333 -69 -33c-6 -4 -15.5 -9.5 -28.5 -16.5s-22.167 -12.167 -27.5 -15.5c-16 -10 -34.333 -15 -55 -15c-16.667 0 -30.334 4.33301 -41.001 13c-8.66699 7.33301 -16.667 18 -24 32
l-33 78c64 58 127.333 99.667 190 125c62 27.333 131.667 41 209 41c72 0 129.333 -14.333 172 -43c43.333 -29.333 74 -68.333 92 -117c40.667 46.667 90.667 85 150 115c54 27.333 118 41 192 41zM639.004 469.001c-76.667 0 -135.998 -5.33105 -177.998 -15.998
c-46 -12 -83.667 -27 -113 -45c-30 -18.667 -49.667 -39.334 -59 -62.001c-11.333 -23.333 -17 -49.333 -17 -78c0 -38 10.333 -67.333 31 -88c18.667 -18.667 46.667 -28 84 -28c33.333 0 62.666 4.66699 87.999 14c24.667 9.33301 48.667 25.666 72 48.999
c25.333 29.333 43.666 58 54.999 86c14.667 37.333 25 78.333 31 123zM1135.01 889.003c-32.667 0 -64.333 -6.33203 -95 -18.999c-27.333 -11.333 -51.666 -30.333 -72.999 -57c-26 -32.667 -44 -61.334 -54 -86.001c-13.333 -33.333 -24 -71.666 -32 -114.999
c71.333 5.33301 134 13.666 188 24.999c34.667 7.33301 73 21 115 41c25.333 12 43.666 28.333 54.999 49c10.667 19.333 16 38.333 16 57c0 30 -9.33301 55.333 -28 76c-19.333 19.333 -50 29 -92 29z" />
    <glyph glyph-name="ccedilla" unicode="&#xe7;" horiz-adv-x="980" 
d="M823 250l62.002 -91.999c-32 -32 -66.333 -60 -103 -84c-31.333 -20.667 -67.333 -38.667 -108 -54c-34 -10.667 -71.667 -19.334 -113 -26.001c-12 -2 -25 -4 -39 -6l-16 -43c59.333 -14 99 -34.667 119 -62c20.667 -28 29.334 -58 26.001 -90
c-2 -22.667 -10 -43 -24 -61c-14.667 -18.667 -34 -34.334 -58 -47.001c-30.667 -16 -58 -26.333 -82 -31c-34.667 -6.66699 -68.667 -10 -102 -10c-27.333 0 -53.333 2 -78 6c-30.667 4.66699 -54.334 10 -71.001 16l34 78c6 16.667 16.333 25 31 25
c6.66699 0 11.334 -0.666992 14.001 -2c5.33301 -2.66699 11 -5 17 -7c2 -0.666992 5.16699 -1.33398 9.5 -2.00098s7.83301 -1.33398 10.5 -2.00098c5.33301 -1.33301 15 -2 29 -2c22 0 39.667 4.33301 53 13c12 8 19 18 21 30c2 20 -9 34.333 -33 43
c-32.667 10.667 -69.667 18.334 -111 23.001l13 26l8 19l35 84c-37.333 6.66699 -69.666 16 -96.999 28c-54.667 24.667 -100.334 60.334 -137.001 107.001c-38 48 -64.667 104.667 -80 170c-15.333 66 -18 143 -8 231c10 80 29.667 151 59 213
c31.333 66.667 71 124 119 172c53.333 50.667 110.666 88.334 171.999 113.001c68.667 27.333 144 41 226 41c86 0 193 -25.333 321 -76l-41 -323h-8h-25h-84c-26.667 0 -41 13 -43 39c0 43.333 0.666992 92.333 2 147c-48.667 13.333 -92.334 20 -131.001 20
c-45.333 0 -85.333 -8 -120 -24c-35.333 -16 -66.333 -39.333 -93 -70c-24 -28 -44.333 -64 -61 -108c-18 -48 -29.667 -96 -35 -144c-6 -56 -6 -105.667 0 -149c6 -41.333 18.333 -78.333 37 -111c17.333 -28 42 -50.333 74 -67c34 -15.333 69.333 -23 106 -23
c40 0 73.667 5 101 15c25.333 9.33301 47 20 65 32c28 18.667 44.333 29.667 49 33c13.333 9.33301 28.333 14 45 14c21.333 0 35.666 -7.33301 42.999 -22z" />
    <glyph glyph-name="egrave" unicode="&#xe8;" horiz-adv-x="964" 
d="M928 807c0 -44 -9.66406 -86.9971 -28.9971 -128.997c-18 -39.333 -51.333 -74.333 -100 -105c-44.667 -28.667 -110.334 -55 -197.001 -79c-87.333 -24.667 -193 -42.667 -317 -54v-12c0 -165.333 69.667 -248 209 -248c32 0 58.333 2.66699 79 8
c28 7.33301 48.667 14.333 62 21c14 7.33301 29.667 17 47 29l13 8.5l14.5 9.5c5 3.33301 8.83301 6 11.5 8c22 14.667 33.667 22.334 35 23.001c10.667 5.33301 23.667 8 39 8c8 0 16 -2 24 -6c8.66699 -4.66699 15.667 -10.334 21 -17.001l63 -77
c-38.667 -38.667 -74 -70.334 -106 -95.001c-36.667 -28.667 -72.334 -50.334 -107.001 -65.001c-40.667 -18 -79 -30.333 -115 -37c-40.667 -8 -84.334 -12 -131.001 -12c-62.667 0 -118.667 10 -168 30s-91.333 49.333 -126 88c-36.667 38.667 -64 84.667 -82 138
c-20.667 60.667 -31 120.667 -31 180c0 54.667 6 108.667 18 162c13.333 58 30.333 108.333 51 151c22 45.333 50 89 84 131c33.333 41.333 70.333 76.333 111 105c42.667 30 88.334 53 137.001 69c51.333 16.667 104 25 158 25s102.333 -8.33301 145 -25
c47.333 -18.667 82.333 -38.334 105 -59.001c25.333 -22 45.666 -50 60.999 -84c14 -31.333 21 -61.333 21 -90zM582.003 889.003c-34.667 0 -66.332 -7 -94.999 -21c-29.333 -14 -55.666 -33.667 -78.999 -59c-25.333 -25.333 -46 -55.333 -62 -90
c-18 -38.667 -31.667 -77.667 -41 -117c87.333 12.667 155.666 25.667 204.999 39c50 13.333 89.667 28.333 119 45c30 16.667 49 33.667 57 51c8 14.667 12 34.667 12 60c0 11.333 -2 22 -6 32s-10.667 19.667 -20 29c-14.667 11.333 -26.334 19 -35.001 23
c-12.667 5.33301 -31 8 -55 8zM532.005 1497c27.333 0 48 -4.66797 62 -14.001c11.333 -7.33301 21 -20.333 29 -39l116 -250h-145c-14 0 -29 2.66699 -45 8c-12.667 6.66699 -23.667 16.334 -33 29.001l-219 266h235z" />
    <glyph glyph-name="eacute" unicode="&#xe9;" horiz-adv-x="1013" 
d="M928 807c0 -44 -9.66406 -86.9971 -28.9971 -128.997c-18 -39.333 -51.333 -74.333 -100 -105c-44.667 -28.667 -110.334 -55 -197.001 -79c-87.333 -24.667 -193 -42.667 -317 -54v-12c0 -165.333 69.667 -248 209 -248c32 0 58.333 2.66699 79 8
c28 7.33301 48.667 14.333 62 21c14 7.33301 29.667 17 47 29l13 8.5l14.5 9.5c5 3.33301 8.83301 6 11.5 8c22 14.667 33.667 22.334 35 23.001c10.667 5.33301 23.667 8 39 8c8 0 16 -2 24 -6c8.66699 -4.66699 15.667 -10.334 21 -17.001l63 -77
c-38.667 -38.667 -74 -70.334 -106 -95.001c-36.667 -28.667 -72.334 -50.334 -107.001 -65.001c-40.667 -18 -79 -30.333 -115 -37c-40.667 -8 -84.334 -12 -131.001 -12c-62.667 0 -118.667 10 -168 30s-91.333 49.333 -126 88c-36.667 38.667 -64 84.667 -82 138
c-20.667 60.667 -31 120.667 -31 180c0 54.667 6 108.667 18 162c13.333 58 30.333 108.333 51 151c22 45.333 50 89 84 131c33.333 41.333 70.333 76.333 111 105c42.667 30 88.334 53 137.001 69c51.333 16.667 104 25 158 25s102.333 -8.33301 145 -25
c47.333 -18.667 82.333 -38.334 105 -59.001c25.333 -22 45.666 -50 60.999 -84c14 -31.333 21 -61.333 21 -90zM582.003 889.003c-34.667 0 -66.332 -7 -94.999 -21c-29.333 -14 -55.666 -33.667 -78.999 -59c-25.333 -25.333 -46 -55.333 -62 -90
c-18 -38.667 -31.667 -77.667 -41 -117c87.333 12.667 155.666 25.667 204.999 39c50 13.333 89.667 28.333 119 45c30 16.667 49 33.667 57 51c8 14.667 12 34.667 12 60c0 11.333 -2 22 -6 32s-10.667 19.667 -20 29c-14.667 11.333 -26.334 19 -35.001 23
c-12.667 5.33301 -31 8 -55 8zM979.005 1497l-287 -266c-15.333 -15.333 -29 -25 -41 -29c-16 -5.33301 -31.667 -8 -47 -8h-151l176 250c11.333 16.667 25 29.667 41 39c16.667 9.33301 37.667 14 63 14h246z" />
    <glyph glyph-name="ecircumflex" unicode="&#xea;" horiz-adv-x="974" 
d="M928 807c0 -44 -9.66406 -86.9971 -28.9971 -128.997c-18 -39.333 -51.333 -74.333 -100 -105c-44.667 -28.667 -110.334 -55 -197.001 -79c-87.333 -24.667 -193 -42.667 -317 -54v-12c0 -165.333 69.667 -248 209 -248c32 0 58.333 2.66699 79 8
c28 7.33301 48.667 14.333 62 21c14 7.33301 29.667 17 47 29l13 8.5l14.5 9.5c5 3.33301 8.83301 6 11.5 8c22 14.667 33.667 22.334 35 23.001c10.667 5.33301 23.667 8 39 8c8 0 16 -2 24 -6c8.66699 -4.66699 15.667 -10.334 21 -17.001l63 -77
c-38.667 -38.667 -74 -70.334 -106 -95.001c-36.667 -28.667 -72.334 -50.334 -107.001 -65.001c-40.667 -18 -79 -30.333 -115 -37c-40.667 -8 -84.334 -12 -131.001 -12c-62.667 0 -118.667 10 -168 30s-91.333 49.333 -126 88c-36.667 38.667 -64 84.667 -82 138
c-20.667 60.667 -31 120.667 -31 180c0 54.667 6 108.667 18 162c13.333 58 30.333 108.333 51 151c22 45.333 50 89 84 131c33.333 41.333 70.333 76.333 111 105c42.667 30 88.334 53 137.001 69c51.333 16.667 104 25 158 25s102.333 -8.33301 145 -25
c47.333 -18.667 82.333 -38.334 105 -59.001c25.333 -22 45.666 -50 60.999 -84c14 -31.333 21 -61.333 21 -90zM582.003 889.003c-34.667 0 -66.332 -7 -94.999 -21c-29.333 -14 -55.666 -33.667 -78.999 -59c-25.333 -25.333 -46 -55.333 -62 -90
c-18 -38.667 -31.667 -77.667 -41 -117c87.333 12.667 155.666 25.667 204.999 39c50 13.333 89.667 28.333 119 45c30 16.667 49 33.667 57 51c8 14.667 12 34.667 12 60c0 11.333 -2 22 -6 32s-10.667 19.667 -20 29c-14.667 11.333 -26.334 19 -35.001 23
c-12.667 5.33301 -31 8 -55 8zM940.005 1196l-168 0.000976562c-20.667 0 -37 6 -49 18l-96 99c-0.666992 1.33301 -2.5 3.16602 -5.5 5.49902s-4.83301 3.83301 -5.5 4.5c-2.66699 2.66699 -5.33398 6.66699 -8.00098 12l-12 -12c-1.33301 -1.33301 -3.33301 -3 -6 -5
s-4.66699 -3.66699 -6 -5l-121 -99c-5.33301 -3.33301 -13.666 -7.33301 -24.999 -12c-10 -4 -19.333 -6 -28 -6h-177l271 285h237z" />
    <glyph glyph-name="edieresis" unicode="&#xeb;" horiz-adv-x="974" 
d="M926 807c0 -47.333 -8.99609 -90.3301 -26.9961 -128.997c-17.333 -38 -51.333 -73 -102 -105c-44.667 -28.667 -110.334 -55 -197.001 -79c-87.333 -24.667 -193 -42.667 -317 -54v-12c0 -165.333 70.333 -248 211 -248c32 0 58.333 2.66699 79 8
c28 7.33301 48.667 14.333 62 21c14 7.33301 29.667 17 47 29l13 8.5l14.5 9.5c5 3.33301 8.83301 6 11.5 8c22 14.667 33.667 22.334 35 23.001c10.667 5.33301 23 8 37 8c8 0 16 -2 24 -6c8.66699 -4.66699 15.667 -10.334 21 -17.001l65 -77
c-38.667 -38.667 -74 -70.334 -106 -95.001c-36.667 -28.667 -72.334 -50.334 -107.001 -65.001c-40.667 -18 -79 -30.333 -115 -37c-40.667 -8 -85 -12 -133 -12c-61.333 0 -116.666 10 -165.999 30c-52.667 21.333 -95.667 50.666 -129 87.999
c-35.333 37.333 -62.333 83.333 -81 138c-19.333 56.667 -29 116.667 -29 180c0 54.667 6 108.667 18 162c13.333 58 30.333 108.333 51 151c24 49.333 51.333 93 82 131c31.333 38.667 69 73.667 113 105c43.333 30.667 88.333 53.667 135 69
c51.333 16.667 104.666 25 159.999 25c54 0 102.333 -8.33301 145 -25c45.333 -17.333 79.666 -37 102.999 -59c25.333 -22 45.666 -50 60.999 -84c14 -31.333 21 -61.333 21 -90zM582.004 889.003c-34.667 0 -66.334 -7 -95.001 -21
c-29.333 -14 -55.666 -33.667 -78.999 -59c-25.333 -25.333 -46 -55.333 -62 -90c-18 -38.667 -31.667 -77.667 -41 -117c84.667 12 152.334 25 203.001 39c52 14.667 92.333 29.667 121 45c28.667 16 47 33 55 51c9.33301 16.667 14 36.667 14 60c0 11.333 -2 22 -6 32
s-10.667 19.667 -20 29c-12.667 10 -25 17.667 -37 23c-12.667 5.33301 -30.334 8 -53.001 8zM551.004 1323c-2.66699 -22 -8.00195 -39.666 -16.002 -52.999c-10 -16 -22.333 -30.333 -37 -43c-12.667 -10.667 -30 -21 -52 -31c-15.333 -6.66699 -33.666 -10 -54.999 -10
c-20.667 0 -37.667 3.33301 -51 10s-27 17 -41 31c-9.33301 9.33301 -17.666 23.666 -24.999 42.999c-6 16 -8 33.667 -6 53s8.33301 37.666 19 54.999c14 22 26.333 37.667 37 47c16.667 14 32.334 24.333 47.001 31c15.333 6.66699 33.666 10 54.999 10
c22 0 39.667 -3.33301 53 -10c16 -8 30.333 -18.333 43 -31c8 -8 16.333 -23.667 25 -47c4.66699 -13.333 6 -31.666 4 -54.999zM934.002 1323c-2.66699 -22 -8.00098 -39.667 -16.001 -53c-10 -16 -22.333 -30.333 -37 -43c-14 -12 -30.667 -22.333 -50 -31
c-15.333 -6.66699 -33.666 -10 -54.999 -10c-22 0 -39.667 3.33301 -53 10c-17.333 8.66699 -31 19 -41 31c-10.667 12.667 -19 27 -25 43s-8 33.667 -6 53s8.33301 37.666 19 54.999c14 22 26.333 37.667 37 47c16.667 14 32.334 24.333 47.001 31s33 10 55 10
s39.667 -3.33301 53 -10c16 -8 30.333 -18.333 43 -31c8 -8 16.333 -23.667 25 -47c5.33301 -13.333 6.66602 -31.666 3.99902 -54.999z" />
    <glyph glyph-name="igrave" unicode="&#xec;" horiz-adv-x="550" 
d="M461 184c32.667 -8 47.001 -29.001 43.001 -63.001l-15 -121h-155h-254l26 203l78 645l-32 5.5c-13.333 2.33301 -22.333 3.83301 -27 4.5c-12.667 2 -22.334 4 -29.001 6c-2.66699 0 -5.33398 0.333008 -8.00098 1l-4 1c-34 8 -49 29.333 -45 64l16 121h154h254
l-105 -848l32.5 -5.5c13.667 -2.33301 22.834 -3.83301 27.501 -4.5c8 -1.33301 17.333 -3.66602 28 -6.99902c4 -1.33301 9 -2 15 -2zM307.001 1497c27.333 0 48.001 -4.66699 62.001 -14c9.33301 -6 18.666 -19.667 27.999 -41l117 -248h-145c-14 0 -29 2.66699 -45 8
c-14 7.33301 -25 16.333 -33 27l-219 268h235z" />
    <glyph glyph-name="iacute" unicode="&#xed;" horiz-adv-x="788" 
d="M461 184c32.667 -8 47.001 -29.001 43.001 -63.001l-15 -121h-155h-254l26 203l78 645l-32 5.5c-13.333 2.33301 -22.333 3.83301 -27 4.5c-12.667 2 -22.334 4 -29.001 6c-2.66699 0 -5.33398 0.333008 -8.00098 1l-4 1c-34 8 -49 29.333 -45 64l16 121h154h254
l-105 -848l32.5 -5.5c13.667 -2.33301 22.834 -3.83301 27.501 -4.5c8 -1.33301 17.333 -3.66602 28 -6.99902c4 -1.33301 9 -2 15 -2zM754.001 1497l-287.001 -268.001c-13.333 -13.333 -27 -22.333 -41 -27c-16 -5.33301 -31.667 -8 -47 -8h-152l176 248
c12.667 18.667 26.334 32.334 41.001 41.001c16.667 9.33301 38 14 64 14h246z" />
    <glyph glyph-name="icircumflex" unicode="&#xee;" horiz-adv-x="776" 
d="M487 184c32.667 -8 47.002 -29.001 43.002 -63.001l-14 -121h-156h-254l25 203l80 645l-32 5.5c-13.333 2.33301 -22.333 3.83301 -27 4.5c-12.667 2 -22.334 4 -29.001 6c-2 0 -4.33301 0.333008 -7 1s-4.33398 1 -5.00098 1c-34 8 -49 29.333 -45 64l16 121h154h253
l-104 -848l32 -5.5c13.333 -2.33301 22.333 -3.83301 27 -4.5c9.33301 -1.33301 19 -3.66602 29 -6.99902c4 -1.33301 8.66699 -2 14 -2zM741.002 1196h-168c-20.667 0 -37 6 -49 18l-96 97c-1.33301 2.66699 -4.66602 6.66699 -9.99902 12
c-2.66699 2.66699 -5.33398 6.66699 -8.00098 12l-13 -12l-12 -12l-121 -97c-6 -4 -14 -8 -24 -12s-20.333 -6 -31 -6h-174l270 285h238z" />
    <glyph glyph-name="idieresis" unicode="&#xef;" horiz-adv-x="749" 
d="M461 184c32.667 -8 47.001 -29 43.001 -63l-15 -121h-155h-252l24 203l80 645l-32 5.5c-13.333 2.33301 -22.333 3.83301 -27 4.5c-15.333 2 -25.666 4 -30.999 6c-2.66699 0 -5.33398 0.333008 -8.00098 1l-4 1c-32.667 8 -47 29.333 -43 64l14 121h156h252l-103 -848
l31.5 -5.5c13 -2.33301 21.833 -3.83301 26.5 -4.5c11.333 -2 21.666 -4.33301 30.999 -7c4 -1.33301 8 -2 12 -2zM328.001 1323c-2 -18 -8.33398 -35.667 -19.001 -53c-13.333 -21.333 -25 -36.333 -35 -45s-27 -18.334 -51 -29.001
c-15.333 -6.66699 -33.666 -10 -54.999 -10c-20.667 0 -37.667 3.33301 -51 10c-16 8 -29.667 17.667 -41 29c-10.667 10.667 -19.667 25.667 -27 45c-5.33301 13.333 -6.66602 31 -3.99902 53c2 20.667 8 39 18 55c14 22 26.333 37.667 37 47c13.333 11.333 29 21 47 29
s36.667 12 56 12s37 -4 53 -12s29.667 -17.667 41 -29c10 -10 19 -25.667 27 -47c5.33301 -13.333 6.66602 -31.666 3.99902 -54.999zM711 1323c-2 -18 -8.33301 -35.668 -19 -53.001c-13.333 -21.333 -25 -36.333 -35 -45c-12 -10 -28.333 -19.667 -49 -29
c-15.333 -6.66699 -34.333 -10 -57 -10c-20.667 0 -37.667 3.33301 -51 10c-19.333 9.33301 -33 19 -41 29c-12 14.667 -21 29.667 -27 45c-5.33301 13.333 -6.66602 31 -3.99902 53c2 20.667 8 39 18 55c13.333 21.333 25 36.333 35 45c14.667 12.667 31 23 49 31
s36.667 12 56 12s37 -4 53 -12c18.667 -9.33301 33 -19 43 -29c8 -8 16.333 -23.667 25 -47c5.33301 -13.333 6.66602 -31.666 3.99902 -54.999z" />
    <glyph glyph-name="eth" unicode="&#xf0;" horiz-adv-x="1132" 
d="M444 1087c-6 10 -8.00098 21.6641 -6.00098 34.9971c2 20 15 36.333 39 49l82 43c-22 8.66699 -44.333 17 -67 25c-14 4.66699 -38.667 12.334 -74 23.001c-16 4 -29 12 -39 24c-8.66699 10.667 -12 27 -10 49c3.33301 16.667 8 31.667 14 45l39 86
c64 -11.333 128.667 -27.666 194 -48.999c54 -18 110.667 -45.333 170 -82l195 117l41 -82c6 -11.333 8 -21.666 6 -30.999s-6 -18 -12 -26c-5.33301 -7.33301 -13.666 -14.333 -24.999 -21l-88 -47c29.333 -29.333 59.333 -68.333 90 -117c28.667 -46 50.667 -93 66 -141
c16.667 -54 27 -110 31 -168c4 -57.333 1.66699 -122.666 -7 -195.999c-12.667 -102.667 -35 -192.334 -67 -269.001c-34 -80 -75.667 -146.667 -125 -200c-50.667 -54.667 -110.667 -96.334 -180 -125.001s-146.666 -43 -231.999 -43
c-76.667 0 -141.334 10.667 -194.001 32c-57.333 23.333 -106 57 -146 101c-38 42 -66 93.667 -84 155c-19.333 64.667 -24 135 -14 211c8 64.667 26.333 125 55 181c26 50.667 63.667 99.667 113 147c44.667 42.667 98 76.667 160 102c63.333 26 129.333 39 198 39
c66 0 123.333 -12 172 -36c52 -25.333 95.667 -59.666 131 -102.999c-6 76 -22.333 138 -49 186c-30 54.667 -70.333 100.667 -121 138l-219 -131zM507.999 175.997c37.333 0 75 7.66699 113 23c36.667 14.667 68.667 37.667 96 69c31.333 35.333 56 76.333 74 123
c22 56.667 37.667 118 47 184c-4 15.333 -14.333 39.333 -31 72c-12.667 24 -29 44 -49 60c-18.667 14.667 -42 27.334 -70 38.001c-30.667 11.333 -62 17 -94 17c-41.333 0 -81 -7.66699 -119 -23c-30.667 -12.667 -60.667 -32.334 -90 -59.001
c-22 -20.667 -42.333 -50 -61 -88c-16.667 -34.667 -27 -71 -31 -109c-6 -48 -4.66699 -91.667 4 -131c8 -38 21.667 -70 41 -96c20 -27.333 44.667 -47 74 -59c34 -14 66 -21 96 -21z" />
    <glyph glyph-name="ntilde" unicode="&#xf1;" horiz-adv-x="1208" 
d="M1122 184c32.667 -8 46.999 -29.002 42.999 -63.002l-14 -121h-156h-252l82 668c8 64 -0.666992 113.667 -26 149s-67.666 53 -126.999 53c-44 0 -86.333 -10 -127 -30c-43.333 -21.333 -83 -48 -119 -80l-41 -334l-6 -49l-21 -174l-24 -203h-254l39 305l65 543l-32 5.5
c-13.333 2.33301 -22.333 3.83301 -27 4.5s-10.167 1.83398 -16.5 3.50098s-10.5 2.5 -12.5 2.5c-4 1.33301 -8 2 -12 2c-34 8 -49 29.333 -45 64l16 121h154h156c33.333 0 53 -15.667 59 -47l6 -82c25.333 23.333 50 43 74 59c29.333 19.333 56.666 34.333 81.999 45
c42 17.333 71.333 27.666 88 30.999c34.667 6.66699 67.334 10 98.001 10c58.667 0 108.667 -9.66699 150 -29c40 -17.333 73.333 -44.666 100 -81.999c25.333 -35.333 43 -77.666 53 -126.999c9.33301 -46.667 10 -100.334 2 -161.001l-55 -465
c8.66699 -1.33301 19.167 -3.16602 31.5 -5.49902s20.833 -3.83301 25.5 -4.5c12 -2 22.333 -4.33301 31 -7c4 -1.33301 8 -2 12 -2zM816.999 1393c23.333 0 40.3301 5.33203 50.9971 15.999c12.667 12.667 21 33 25 61h154c-3.33301 -34 -13 -68.667 -29 -104
c-12 -26.667 -29.667 -53.334 -53 -80.001c-18 -20.667 -42 -37.667 -72 -51c-26.667 -12 -56 -18 -88 -18c-20.667 0 -42.667 4.66699 -66 14c-19.333 8 -38.333 17.667 -57 29l-47 28c-14 8 -28.333 12 -43 12c-20.667 0 -37 -6 -49 -18
c-13.333 -13.333 -21.666 -33 -24.999 -59h-156c3.33301 32.667 13 66.667 29 102c14.667 32.667 32.334 59.334 53.001 80.001c24 24 48.667 41.667 74 53c28.667 12.667 57.334 19 86.001 19c20 0 42.667 -5 68 -15c18.667 -7.33301 37 -16.666 55 -27.999
c12.667 -8 29 -17.667 49 -29c14 -8 27.667 -12 41 -12z" />
    </font>
</defs>
</svg>
